<svg width="126" height="133" viewBox="0 0 126 133" fill="none" xmlns="http://www.w3.org/2000/svg">
<g id="Group 204" filter="url(#filter0_d_3989_2520)">
<g id="Group">
<g id="Group_2">
<g id="Group_3">
<path id="Vector" d="M47.5173 65.3018C47.5778 68.1328 46.2677 73.5162 42.1877 71.6291C40.7093 70.9476 39.7804 68.2071 41.562 67.2974C43.5519 66.2795 44.2508 69.0721 42.35 69.3395C43.1623 70.0375 44.0968 69.8973 44.9082 69.2944C47.629 67.2745 47.0805 62.2606 45.2429 59.9084C45.3285 59.7393 45.3837 59.5402 45.4058 59.3149L45.4214 59.4052C47.1292 60.7261 47.4065 63.0242 47.5099 65.0682C47.5137 65.1431 47.5179 65.2213 47.5173 65.3018Z" fill="#8DD4DA"/>
</g>
<g id="Group_4">
<path id="Vector_2" d="M58.7814 51.0304C58.7033 51.0496 58.6262 51.0637 58.5525 51.0774C56.5423 51.4532 54.2393 51.7177 52.5592 50.3617L52.5514 50.3375C52.7305 50.2661 52.8823 50.1763 53.0054 50.0697C55.7219 51.312 60.7279 50.6823 62.0602 47.5634C62.4581 46.6341 62.3773 45.6925 61.5097 45.0647C61.6912 46.9756 58.8126 46.9445 59.3386 44.7711C59.8114 42.8284 62.6908 43.0938 63.6971 44.3734C66.4794 47.9086 61.5475 50.4334 58.7814 51.0304Z" fill="#8DD4DA"/>
</g>
</g>
<g id="Group_5">
<path id="Vector_3" d="M42.8404 58.7128C42.2562 58.9708 41.6164 58.9122 41.0641 58.2606C39.7771 56.7444 42.3022 54.6688 42.975 57.2402C43.2525 57.1506 43.549 56.8813 43.7042 56.3657C44.0306 55.2841 43.3703 53.7862 42.683 52.9831L42.7166 52.8987C42.9579 52.9993 43.1975 53.0866 43.4338 53.1592L43.4226 53.1923C44.479 54.3706 44.703 55.2066 44.6218 56.2091C44.5517 57.1064 43.7655 58.3075 42.8404 58.7128Z" fill="#CCAD62"/>
<path id="Vector_4" d="M45.0098 60.3177C44.0438 60.6458 43.0686 59.8582 42.8441 58.7192L42.8433 58.7126C43.7684 58.3073 44.5546 57.1062 44.6266 56.2103C44.7092 55.206 44.4819 54.3705 43.4274 53.1936L43.4386 53.1605C43.8074 53.2778 44.1723 53.3621 44.5267 53.4141L44.5246 53.4244C46.6917 55.135 46.7593 58.0405 46.1016 59.3369C46.0403 59.4563 45.9741 59.5629 45.9009 59.6519C45.7854 59.7944 45.669 59.9153 45.5466 60.0134C45.3676 60.1567 45.1887 60.2582 45.0098 60.3177Z" fill="#8DD4DA"/>
<path id="Vector_5" d="M43.7685 49.2054C44.4656 49.6507 45.5154 51.1144 45.2811 51.9541C44.5188 52.3771 42.8527 51.6942 42.2576 51.1197C42.4943 51.7649 42.6269 52.3219 42.6011 52.8708C42.5733 53.4451 42.3761 54.0024 41.9465 54.6341C39.8247 57.774 35.3129 55.2495 37.6894 52.751C38.6071 51.7856 40.6115 52.6966 39.4065 54.2232C40.9809 54.1986 42.4439 52.3033 40.6719 49.8112L40.6495 49.7636C40.7378 49.7163 40.817 49.6501 40.8826 49.567L41.9404 48.2268C42.0059 48.1437 42.052 48.0512 42.0774 47.9545L42.1308 47.9666C44.9664 49.1112 46.4681 47.2465 46.1267 45.7128C44.9232 47.2376 43.572 45.503 44.2974 44.3828C46.1758 41.4942 49.6793 45.2961 47.1164 48.0878C46.6033 48.6505 46.1022 48.9741 45.5535 49.1342C45.0223 49.2871 44.4497 49.2876 43.7685 49.2054Z" fill="#095195"/>
<path id="Vector_6" d="M49.898 59.439C49.8194 62.2981 47.462 61.9294 46.3625 59.8872C46.2707 59.7188 46.1891 59.5376 46.1162 59.3452L46.0966 59.3358C46.7529 58.0412 46.6868 55.1338 44.5196 53.4233L44.5218 53.413C45.0777 53.4982 45.6096 53.5076 46.1138 53.4382L46.1149 53.4481C46.7671 54.8916 48.1841 57.9664 49.9013 59.4386L49.8998 59.4405L49.898 59.439Z" fill="#095195"/>
<path id="Vector_7" d="M51.8714 60.2564C51.1882 60.2984 50.5239 59.9747 49.9015 59.4385C48.1858 57.9645 46.7673 54.8916 46.1151 53.448L46.1139 53.4381C46.3759 53.4022 46.6305 53.3454 46.8742 53.2682L46.9131 53.2569C46.9329 52.985 46.9285 52.7059 46.8984 52.4214L46.9248 52.4183C48.5028 52.7231 51.8896 53.4009 53.7027 54.763C54.3323 55.233 54.7727 55.7873 54.8856 56.4337C55.0003 57.1084 54.6389 58.1205 54.1308 58.9388C53.4529 59.6231 52.5543 60.2112 51.8714 60.2564Z" fill="#CCAD62"/>
<path id="Vector_8" d="M42.6532 52.8727L42.5991 52.869C42.6253 52.3234 42.4942 51.7645 42.2556 51.1178C42.8507 51.6924 44.5183 52.3734 45.2791 51.9523C45.5134 51.1126 44.4636 49.6489 43.7666 49.2035C44.4495 49.2872 45.0217 49.2834 45.5463 49.1312L45.5624 49.1829C45.5765 49.203 45.5902 49.2198 45.6025 49.2385C45.7563 49.4498 45.8954 49.6645 46.0195 49.8792C46.2164 50.2144 46.3798 50.5501 46.5131 50.886C46.7182 51.4044 46.8457 51.9185 46.8997 52.4195C46.9298 52.7039 46.9342 52.983 46.9143 53.255L46.8755 53.2662C46.6317 53.3435 46.3787 53.3984 46.1152 53.4361C45.611 53.5056 45.0791 53.4962 44.5232 53.411C44.1688 53.3589 43.8054 53.2728 43.4351 53.1573C43.1989 53.0847 42.9592 52.9974 42.718 52.8969C42.6955 52.8911 42.6727 52.8821 42.6532 52.8727Z" fill="#CCAD62"/>
<path id="Vector_9" d="M40.3703 49.8517C40.1769 49.8728 39.9767 49.8227 39.8106 49.6915C39.5724 49.5036 39.4787 49.2048 39.5415 48.9279C39.5625 48.8216 39.6121 48.7169 39.6835 48.6265L40.7413 47.2863C40.8127 47.1959 40.9029 47.1233 41.0014 47.0782C41.2562 46.9527 41.5686 46.9746 41.8067 47.1625C42.0522 47.3563 42.1461 47.6701 42.069 47.9538C42.0436 48.0505 41.9975 48.143 41.932 48.2261L40.8742 49.5663C40.8086 49.6493 40.7293 49.7156 40.6411 49.7628C40.5595 49.8093 40.4661 49.8404 40.3703 49.8517Z" fill="#8DD4DA"/>
<path id="Vector_10" d="M39.5021 48.9206C37.1238 50.0245 37.6519 46.1631 36.7695 45.2389C37.8749 45.8807 41.5065 44.4718 40.9853 47.0414L41.0032 47.0795C40.9032 47.1264 40.8144 47.1972 40.7431 47.2876L39.6853 48.6278C39.6124 48.7201 39.5642 48.8229 39.5433 48.9292L39.5021 48.9206Z" fill="#095195"/>
<path id="Vector_11" d="M46.9247 52.4183L46.8983 52.4214C46.8462 51.9219 46.7168 51.4063 46.5118 50.888L46.526 50.8813C48.6932 52.5918 51.5408 51.9752 52.6489 51.0343L52.6627 51.0511C52.8615 51.0762 53.0502 51.1143 53.2334 51.163C55.4935 51.7575 56.4718 54.0216 53.7026 54.763L53.7011 54.7649C51.8895 53.4009 48.5027 52.7231 46.9247 52.4183Z" fill="#095195"/>
<path id="Vector_12" d="M53.3499 49.748C53.3389 49.91 53.2952 50.0792 53.2174 50.2575C53.1446 50.4218 53.044 50.5911 52.9103 50.7642C52.8408 50.8561 52.7525 50.9452 52.6506 51.0325C51.5424 51.9735 48.6949 52.5901 46.5277 50.8796L46.5134 50.8863C46.3801 50.5503 46.2166 50.2146 46.0198 49.8795L46.0542 49.8587C47.4456 50.6124 48.3107 50.6361 49.2669 50.3242C50.0798 50.0611 51.012 49.104 51.2537 48.1563L51.2625 48.1603C52.414 48.1134 53.4189 48.7838 53.3499 49.748Z" fill="#8DD4DA"/>
<path id="Vector_13" d="M46.0525 49.8606L46.0181 49.8813C45.894 49.6666 45.7534 49.4537 45.6011 49.2406L45.6753 49.1883C46.6161 49.6703 48.2264 49.9645 49.2026 49.3958C49.668 49.125 49.8626 48.7722 49.8838 48.4834C47.2246 48.4249 48.6573 45.49 50.4324 46.3878C51.2534 46.8051 51.4283 47.4794 51.2535 48.1564C51.0099 49.1026 50.0778 50.0596 49.2667 50.3243C48.3091 50.638 47.4454 50.6124 46.0525 49.8606Z" fill="#CCAD62"/>
</g>
</g>
<path id="Vector_14" d="M67.1042 47.005L67.1428 46.9983C69.0806 47.8027 72.4878 48.3205 74.426 47.8387L74.4288 47.8347C74.6256 48.0261 74.9287 48.1804 75.2647 48.2864L75.255 48.3093C74.7914 48.5139 74.4989 48.7125 74.3375 48.905L74.3013 48.8804C72.4517 48.4652 69.1183 48.0881 66.8926 47.6243L66.8864 47.6178C67.0799 47.4248 67.1412 47.2136 67.1042 47.005Z" fill="#095195"/>
<path id="Vector_15" d="M67.8041 47.091C70.0498 47.4623 70.8339 48.9402 71.322 50.2261L71.3413 50.2357C71.2755 50.3816 71.2235 50.5618 71.1929 50.7784L71.1696 50.7909C71.082 50.639 70.9904 50.523 70.8967 50.4351L70.9084 50.422C70.3265 48.9451 68.7999 47.6059 67.0015 47.4264C67.1767 47.3333 67.3374 47.2244 67.4864 47.1011C67.5916 47.1002 67.6975 47.0946 67.8041 47.091Z" fill="#095195"/>
<path id="Vector_16" d="M70.8105 46.0965C70.8811 46.0717 70.9512 46.0438 71.0237 46.0123C73.6563 47.4508 78.7971 42.802 76.4035 41.8898C77.0049 41.1616 78.0769 41.1595 78.7283 41.7229C78.8087 41.79 78.8811 41.8647 78.9442 41.9488C78.977 41.9931 79.0097 42.0373 79.0381 42.0838C79.3538 41.6492 80.0183 40.7819 80.7156 40.2273C81.0964 39.9233 81.4875 39.7143 81.8402 39.7227C82.0826 39.7255 82.3045 39.8334 82.4873 40.0839C82.5657 40.1841 82.6345 40.3094 82.6977 40.4654C82.783 40.3817 82.8854 40.2889 82.9986 40.1957C83.7586 39.5708 85.0635 38.866 85.9015 39.3904C85.9948 39.4506 86.0811 39.5244 86.161 39.615C87.3192 38.4832 91.1434 38.027 90.5977 40.6141C90.5923 40.6369 90.576 40.6865 90.5528 40.7499C90.4659 40.7527 90.3787 40.7633 90.2911 40.7708C90.1462 40.345 89.6938 39.8389 88.3017 40.1078C86.4653 40.4608 84.8135 41.2436 83.2168 42.4475C83.1849 42.4702 80.3437 44.6524 78.4901 45.6735C74.171 48.0537 70.0486 48.1891 65.4049 47.345C65.4372 47.1286 65.4683 46.9139 65.4883 46.7075C67.2048 47.3277 69.1265 46.7397 70.8105 46.0965Z" fill="#8DD4DA"/>
<path id="Vector_17" d="M75.2584 48.3104L75.2681 48.2875C74.9302 48.1825 74.629 48.0272 74.4322 47.8358C74.0957 47.5108 74.0694 47.0719 74.7135 46.562C74.9914 46.3417 78.5546 45.1748 76.8503 44.0529C78.8689 43.8128 79.1082 46.4399 77.3237 47.0449C78.4819 46.9549 80.0784 47.853 80.931 48.6193C80.2637 49.4662 78.3882 50.0424 77.6228 50.0372C78.8757 50.7041 79.739 52.9146 77.2952 53.3478C79.4469 51.6178 73.1015 50.3872 74.343 48.9099C74.5023 48.7136 74.7948 48.515 75.2584 48.3104Z" fill="#095195"/>
<path id="Vector_18" d="M70.8273 51.9091C70.8036 52.1739 70.9278 52.4557 71.1743 52.6368C71.1949 52.6506 71.2135 52.665 71.2362 52.678L71.2349 52.6807C71.1266 52.9188 71.0051 53.0971 70.8761 53.2252C69.9306 54.1749 68.6181 52.5025 70.124 52.0278L70.1261 52.0134C70.2973 52.0317 70.5084 52.0183 70.7579 51.9691L70.8273 51.9091Z" fill="#095195"/>
<path id="Vector_19" d="M71.2344 52.6765C71.584 52.8919 72.0302 52.8273 72.2553 52.5203L72.3159 52.5642C72.4247 52.6699 72.5026 52.7791 72.5564 52.8849C73.104 53.9582 71.1635 54.9087 70.9031 53.2553L70.8728 53.2265C71.0033 53.0956 71.1247 52.9174 71.2316 52.682L71.2344 52.6765Z" fill="#095195"/>
<path id="Vector_20" d="M71.4528 51.2415L71.4632 51.3C71.2927 51.3319 71.1381 51.4249 71.0331 51.5702C70.959 51.6707 70.9186 51.7897 70.9057 51.9087L70.8336 51.9673C70.5841 52.0165 70.3751 52.0292 70.2017 52.0115C68.7135 51.8611 69.9696 49.5116 70.9723 50.437C71.0659 50.5249 71.1576 50.641 71.2451 50.7928C71.3182 50.9151 71.3872 51.0663 71.4528 51.2415Z" fill="#095195"/>
<path id="Vector_21" d="M72.256 52.5206C72.4543 52.25 72.4207 51.876 72.1996 51.6061L72.2511 51.5613C72.3926 51.4566 72.5266 51.3842 72.6558 51.3386C73.9725 50.8539 74.5255 53.1615 72.5982 52.8577L72.5563 52.8832C72.5025 52.7774 72.4247 52.6682 72.3159 52.5624L72.256 52.5206Z" fill="#095195"/>
<path id="Vector_22" d="M72.2006 51.6049C72.1538 51.5472 72.1001 51.4964 72.0388 51.4504C71.8392 51.3063 71.5998 51.2558 71.3874 51.2994L71.377 51.241C71.3114 51.0657 71.2424 50.9146 71.1693 50.7923L71.1927 50.7799C71.2253 50.5625 71.2753 50.383 71.3411 50.2371C71.9106 48.973 73.571 50.2055 72.6541 51.336L72.6548 51.3381C72.5255 51.3836 72.3916 51.4561 72.2501 51.5608L72.2006 51.6049Z" fill="#095195"/>
<path id="Vector_23" d="M78.8753 44.7853L78.8823 44.7832C79.1617 44.7313 79.439 44.6757 79.7187 44.6172C79.986 44.5612 80.2547 44.5027 80.5219 44.4425C80.7923 44.3824 81.0614 44.3216 81.3326 44.2601C82.5832 43.9779 84.0238 43.8595 84.635 45.2237C82.8662 45.3113 84.0572 47.6132 85.353 46.3386C86.2412 45.4655 85.573 44.0495 84.2055 43.6304C83.5461 43.4277 82.7355 43.4494 82.0631 43.4735C83.7877 42.913 86.6684 43.3504 88.0157 44.4071C88.4566 44.3397 88.9222 44.384 89.3688 44.5585C89.4086 44.575 89.4492 44.5902 89.4874 44.6083L89.4878 44.606C88.8432 44.0176 87.8294 43.3714 87.041 43.1134C85.3778 42.5674 83.1237 42.786 81.4444 43.1582C79.9332 43.4933 79.0411 43.6705 77.5379 44.2151L77.5373 44.224C78.0118 44.2143 78.716 44.3369 78.8753 44.7853Z" fill="#8DD4DA"/>
<path id="Vector_24" d="M83.1177 47.052L83.1493 47.0699C83.2225 47.0152 83.2971 46.9907 83.3733 46.9898L83.3723 46.9682C83.2579 45.5483 81.718 44.2859 80.522 44.4404C80.2539 44.5009 79.9861 44.5592 79.7188 44.6151C82.6676 44.5679 83.0487 46.7263 83.1177 47.052Z" fill="#095195"/>
<path id="Vector_25" d="M83.149 47.0705C83.0524 47.142 82.9613 47.2686 82.8766 47.46C82.5692 48.1638 83.6748 49.3583 82.6352 49.6484C82.98 49.943 83.5522 49.8396 83.6118 49.3596C83.7144 49.7244 84.1583 50.1532 84.5089 50.3281C84.7597 49.8663 84.7695 49.552 84.5683 49.1129C85.1934 49.6251 85.6729 49.1791 85.665 48.5828C85.3578 49.0789 84.8806 48.6229 84.6325 48.2754C84.3542 47.8856 83.839 46.9887 83.372 46.9907C83.2975 46.99 83.2219 47.0148 83.149 47.0705Z" fill="#CCAD62"/>
<path id="Vector_26" d="M88.0159 44.407C87.1132 44.5448 86.3086 45.1459 85.9531 46.0574C85.4718 47.2939 85.9848 48.6733 87.1058 49.3092C87.2162 49.3713 87.331 49.4265 87.4521 49.4733C87.5745 49.5209 87.6971 49.5585 87.8194 49.5875C89.0748 49.8763 90.3861 49.2088 90.868 47.9743C91.3819 46.6571 90.7647 45.1778 89.4866 44.6085C89.4484 44.5904 89.4086 44.5739 89.368 44.5587C88.9224 44.3839 88.4578 44.3393 88.0159 44.407ZM89.6035 46.9901C91.0652 46.9605 90.3266 48.8529 89.2723 47.8408C90.3266 48.8529 88.4676 49.6689 88.437 48.2076C88.4676 49.6689 86.5742 48.9307 87.5873 47.8761C86.5752 48.9304 85.7589 47.0704 87.2203 47.0397C85.7589 47.0704 86.4964 45.1783 87.5514 46.189C86.4964 45.1783 88.3564 44.362 88.3871 45.8233C88.3554 44.3623 90.2496 45.0992 89.2368 46.1548C90.2489 45.1005 91.0641 46.9608 89.6035 46.9901Z" fill="#095195"/>
<path id="Vector_27" d="M89.237 46.1563C90.2488 45.101 88.3557 44.3638 88.3873 45.8249C88.3557 44.3638 86.4966 45.1798 87.5517 46.1906C86.4966 45.1798 85.7591 47.0719 87.2205 47.0413C85.7591 47.0719 86.5754 48.932 87.5875 47.8776C86.5754 48.932 88.4679 49.6704 88.4372 48.2091C88.4679 49.6704 90.3279 48.8542 89.2726 47.8424C90.3269 48.8544 91.0654 46.962 89.6037 46.9917C91.0641 46.9613 90.2488 45.101 89.237 46.1563ZM88.9657 47.2327C88.8465 47.5393 88.5007 47.6908 88.1938 47.5707C87.8873 47.4515 87.7368 47.1054 87.8562 46.7998C87.9754 46.4932 88.3202 46.342 88.6278 46.4609C88.9347 46.5811 89.0859 46.9259 88.9657 47.2327Z" fill="#CCAD62"/>
<path id="Vector_28" d="M88.6055 46.5044C88.299 46.3853 87.9531 46.5368 87.834 46.8434C87.7148 47.1499 87.866 47.4947 88.1716 47.6142C88.4782 47.7334 88.824 47.5819 88.9435 47.2763C89.0629 46.9707 88.9124 46.6246 88.6055 46.5044Z" fill="white"/>
<path id="Vector_29" d="M62.719 46.8516C65.17 47.1164 67.7181 46.5126 69.7258 45.0652C69.8626 44.9667 69.9998 44.8565 70.1327 44.7348C71.5608 43.4337 72.6995 40.9344 72.7322 38.6727C72.753 37.089 72.2357 35.6224 70.9014 34.7653C69.1382 33.6311 65.4027 35.1458 66.5952 37.5326C67.6114 39.5622 70.1299 37.6689 68.5665 36.2095C69.6961 35.711 70.645 36.2367 71.1399 37.2195C72.4401 39.7972 70.5495 43.1707 68.4758 44.7767C66.6647 46.1784 64.5753 46.2559 62.4373 46.0045C62.3327 45.9935 62.2258 45.9768 62.1221 45.9639C62.3767 46.2204 62.577 46.524 62.719 46.8516Z" fill="#8DD4DA"/>
<path id="Vector_30" d="M66.8767 48.2611C65.9474 47.447 64.1256 45.4946 62.9532 45.7765C62.7619 45.8222 62.5867 45.9293 62.4367 46.1098C62.2368 46.3469 62.0812 46.7193 61.9836 47.2521C61.6252 49.2015 65.1067 51.5502 62.6649 52.8938C63.705 53.4318 65.0808 52.834 64.9502 51.5916C65.1622 51.979 65.5624 52.3528 66.0218 52.6714C66.5813 53.0617 67.2351 53.3676 67.7761 53.4944C68.0284 52.5736 68.0177 51.9073 67.7291 51.2512C67.6054 50.9742 67.4383 50.6972 67.2094 50.4068C69.0825 51.3228 70.0261 49.9211 69.6536 48.4252C69.1724 49.8523 67.7068 48.9866 66.8767 48.2611Z" fill="#CCAD62"/>
<path id="Vector_31" d="M46.8634 73.7216L46.8648 73.7607C48.0486 75.4929 49.2527 78.722 49.1778 80.7178L49.1744 80.7213C49.402 80.8748 49.6151 81.14 49.7876 81.4471L49.808 81.433C49.9134 80.9373 50.048 80.6103 50.2034 80.413L50.1719 80.3826C49.387 78.6571 48.3357 75.4714 47.4263 73.3877L47.4186 73.383C47.2693 73.6119 47.0751 73.7151 46.8634 73.7216Z" fill="#095195"/>
<path id="Vector_32" d="M47.0897 74.3882C47.9128 76.5104 49.5199 76.9755 50.8784 77.1901L50.8917 77.207C51.0211 77.1128 51.1868 77.025 51.3926 76.9507L51.4 76.9253C51.2335 76.8707 51.1011 76.8047 50.9959 76.731L50.9855 76.7451C49.4208 76.4778 47.7975 75.2576 47.2538 73.5339C47.1985 73.7245 47.1248 73.9041 47.0346 74.0752C47.0553 74.1784 47.0714 74.2832 47.0897 74.3882Z" fill="#095195"/>
<path id="Vector_33" d="M46.7319 77.5353C46.7221 77.6095 46.7091 77.6838 46.6932 77.7612C48.6399 80.0438 45.1415 86.0271 43.7588 83.8707C43.1691 84.6084 43.3864 85.6582 44.0711 86.1805C44.1533 86.2455 44.2412 86.3011 44.3365 86.3457C44.3865 86.3687 44.4365 86.3916 44.4879 86.41C44.127 86.8079 43.414 87.6358 43.0139 88.4319C42.7942 88.8668 42.6697 89.2924 42.7501 89.6359C42.8025 89.8726 42.9535 90.0677 43.2361 90.1954C43.3502 90.2517 43.487 90.2933 43.6526 90.3233C43.5882 90.4239 43.5182 90.5431 43.4501 90.673C42.994 91.5448 42.5712 92.9663 43.256 93.6793C43.3339 93.7583 43.4239 93.8276 43.5289 93.8873C42.6581 95.2526 42.9941 99.0893 45.4148 98.0257C45.436 98.0157 45.4813 97.9896 45.5386 97.9539C45.5235 97.8683 45.516 97.7808 45.5054 97.6935C45.059 97.6388 44.4711 97.2995 44.4494 95.8818C44.4191 94.0121 44.8473 92.2351 45.6989 90.4257C45.7147 90.3898 47.2693 87.1622 47.8894 85.1389C49.3354 80.4241 48.6243 76.3613 46.8478 71.9886C46.6426 72.0645 46.4388 72.1388 46.2409 72.2007C47.1992 73.754 47.0169 75.7553 46.7319 77.5353Z" fill="#8DD4DA"/>
<path id="Vector_34" d="M49.8092 81.4356L49.7888 81.4497C49.617 81.1405 49.4033 80.8774 49.1757 80.7239C48.7886 80.4612 48.3537 80.5252 47.9863 81.26C47.8276 81.5771 47.4145 85.3037 45.9676 83.865C46.1457 85.89 48.7661 85.5867 48.9932 83.7161C49.1421 84.8682 50.3479 86.2472 51.2725 86.9249C51.9649 86.0984 52.1451 84.1448 51.9834 83.3966C52.8925 84.4865 55.233 84.8792 55.1569 82.3985C53.9039 84.8586 51.4007 78.8993 50.2087 80.4169C50.0492 80.6129 49.9147 80.9399 49.8092 81.4356Z" fill="#095195"/>
<path id="Vector_35" d="M52.4264 76.3631C52.6807 76.2858 52.9819 76.3497 53.2097 76.5539C53.2274 76.5713 53.2453 76.5865 53.2627 76.6061L53.2651 76.6042C53.476 76.4495 53.6256 76.2941 53.7246 76.1416C54.4607 75.0218 52.5551 74.0793 52.3986 75.6505L52.3849 75.6554C52.4379 75.8193 52.468 76.0287 52.4709 76.283L52.4264 76.3631Z" fill="#095195"/>
<path id="Vector_36" d="M53.2603 76.6037C53.5427 76.9018 53.5707 77.3518 53.3162 77.635L53.3716 77.6853C53.4974 77.7701 53.6202 77.824 53.7348 77.855C54.8974 78.1714 55.4307 76.0775 53.759 76.161L53.7246 76.1372C53.6232 76.2917 53.4736 76.447 53.2651 76.5999L53.2603 76.6037Z" fill="#095195"/>
<path id="Vector_37" d="M51.9001 77.1105L51.9594 77.1087C51.9558 76.9353 52.0152 76.765 52.1359 76.6325C52.2191 76.5394 52.3274 76.4755 52.4412 76.4385L52.4838 76.356C52.4809 76.1016 52.4505 75.8944 52.3978 75.7284C51.946 74.3024 49.9033 76.0128 51.0143 76.8048C51.1195 76.8785 51.2519 76.9444 51.4184 76.9991C51.5531 77.0456 51.7151 77.0822 51.9001 77.1105Z" fill="#095195"/>
<path id="Vector_38" d="M53.3165 77.6353C53.0922 77.8848 52.7192 77.9285 52.4098 77.7672L52.3765 77.8268C52.3029 77.9867 52.2595 78.1327 52.2413 78.2685C52.0363 79.6566 54.4082 79.7256 53.7165 77.9013L53.7329 77.8551C53.6183 77.8241 53.4954 77.7702 53.3697 77.6854L53.3165 77.6353Z" fill="#095195"/>
<path id="Vector_39" d="M52.4094 77.7686C52.3433 77.7345 52.2826 77.6923 52.2251 77.6418C52.0432 77.4758 51.9447 77.2519 51.944 77.035L51.8846 77.0368C51.6997 77.0084 51.5376 76.9718 51.4029 76.9253L51.3956 76.9508C51.1895 77.0272 51.024 77.1128 50.8946 77.2071C49.7739 78.0232 51.3201 79.3963 52.239 78.2674L52.2412 78.2677C52.2593 78.1319 52.3028 77.9859 52.3764 77.826L52.4094 77.7686Z" fill="#095195"/>
<path id="Vector_40" d="M47.0995 85.6979L47.0989 85.7052C47.1053 85.9894 47.1076 86.2721 47.1076 86.5579C47.1075 86.831 47.1052 87.106 47.101 87.3798C47.0974 87.6568 47.093 87.9327 47.0884 88.2107C47.068 89.4926 47.2469 90.9269 48.7073 91.246C48.4311 89.4968 50.928 90.1915 49.9455 91.7207C49.2727 92.7688 47.7499 92.4045 47.0598 91.1517C46.7265 90.5478 46.5819 89.7498 46.4679 89.0867C46.2721 90.8895 47.2898 93.6197 48.5998 94.7223C48.6241 95.1677 48.7627 95.6143 49.025 96.0157C49.0493 96.0514 49.0724 96.088 49.0979 96.1217L49.0958 96.1226C48.3879 95.612 47.5479 94.7519 47.134 94.033C46.2593 92.5167 46.0119 90.2656 46.0326 88.5457C46.0513 86.9978 46.0422 86.0884 46.2677 84.5056L46.2763 84.5032C46.3639 84.9696 46.628 85.6338 47.0995 85.6979Z" fill="#8DD4DA"/>
<path id="Vector_41" d="M50.1862 89.3862L50.2102 89.4134C50.1716 89.4963 50.1629 89.5743 50.1776 89.6491L50.1563 89.6525C48.743 89.8312 47.1923 88.5821 47.0987 87.3798C47.1031 87.105 47.1053 86.831 47.1053 86.5579C47.6625 89.4539 49.8533 89.3853 50.1862 89.3862Z" fill="#095195"/>
<path id="Vector_42" d="M50.211 89.4126C50.2612 89.3034 50.3665 89.1884 50.5365 89.0663C51.1625 88.6214 52.5579 89.4591 52.6292 88.3821C52.9881 88.6594 53.004 89.2406 52.5464 89.3972C52.9245 89.4229 53.435 89.7698 53.6779 90.0771C53.2772 90.4171 52.9716 90.491 52.5006 90.3839C53.13 90.891 52.7915 91.4517 52.2062 91.5659C52.6289 91.1637 52.0849 90.7899 51.694 90.6181C51.2555 90.4255 50.2721 90.1048 50.1785 89.6473C50.1626 89.5745 50.1714 89.4954 50.211 89.4126Z" fill="#CCAD62"/>
<path id="Vector_43" d="M48.5995 94.7217C48.5497 93.8099 48.9735 92.8993 49.7929 92.3647C50.9047 91.6406 52.3599 91.8605 53.2118 92.8277C53.2951 92.923 53.3727 93.0241 53.4433 93.133C53.5149 93.2431 53.5768 93.3554 53.6302 93.4692C54.1697 94.6389 53.7847 96.0591 52.675 96.7834C51.4909 97.556 49.9165 97.2546 49.0977 96.12C49.0722 96.0864 49.0479 96.0507 49.0247 96.0141C48.7624 95.6137 48.6237 95.1681 48.5995 94.7217ZM51.4529 95.747C51.723 97.1838 53.4242 96.0737 52.2178 95.2488C53.4242 96.0737 53.8425 94.087 52.4058 94.3561C53.8425 94.087 52.7325 92.3847 51.9075 93.5922C52.7324 92.3858 50.7447 91.9674 51.0137 93.4041C50.7447 91.9674 49.0435 93.0765 50.2488 93.9023C49.0435 93.0765 48.6252 95.0642 50.0619 94.7952C48.6252 95.0632 49.7342 96.7664 50.5602 95.559C49.7353 96.7654 51.7231 97.1828 51.4529 95.747Z" fill="#095195"/>
<path id="Vector_44" d="M50.5621 95.5586C49.7362 96.765 48.6272 95.0628 50.0638 94.7948C48.6272 95.0628 49.0455 93.0761 50.2508 93.902C49.0455 93.0761 50.7466 91.967 51.0157 93.4037C50.7466 91.967 52.7343 92.3854 51.9094 93.5918C52.7343 92.3854 53.8445 94.0866 52.4078 94.3557C53.8445 94.0866 53.4261 96.0744 52.2198 95.2484C53.4262 96.0733 51.7249 97.1834 51.4548 95.7467C51.724 97.1823 49.7362 96.765 50.5621 95.5586ZM51.5602 95.0728C51.836 94.8934 51.9135 94.5239 51.733 94.2481C51.5537 93.9724 51.1841 93.8959 50.9094 94.0754C50.6337 94.2548 50.5563 94.6232 50.7356 94.9C50.916 95.1758 51.2844 95.2532 51.5602 95.0728Z" fill="#CCAD62"/>
<path id="Vector_45" d="M45.8148 69.4604C46.5756 71.8054 46.506 74.4231 45.5001 76.6845C45.4316 76.8385 45.3519 76.9954 45.2599 77.1504C44.2786 78.8145 42.0652 80.4406 39.8581 80.9355C38.3121 81.2799 36.7708 81.0737 35.6587 79.943C34.1877 78.4492 34.9059 74.4828 37.4863 75.1617C39.6808 75.741 38.343 78.5936 36.5946 77.362C36.3378 78.5697 37.0465 79.3909 38.1097 79.6743C40.899 80.4194 43.8142 77.8785 44.9619 75.52C45.9633 73.4604 45.6115 71.3994 44.928 69.3581C44.8958 69.2579 44.8576 69.1567 44.8237 69.0578C45.1269 69.2546 45.4651 69.3885 45.8148 69.4604Z" fill="#8DD4DA"/>
<path id="Vector_46" d="M48.0463 73.2414C47.0592 72.4983 44.7753 71.1146 44.8114 69.9094C44.817 69.7127 44.8859 69.5193 45.032 69.3356C45.2231 69.0913 45.5558 68.8629 46.0573 68.6583C47.8921 67.9086 50.9036 70.8358 51.719 68.1707C52.4585 69.0787 52.1549 70.5476 50.912 70.6741C51.3346 70.8023 51.7825 71.1176 52.1883 71.5021C52.6849 71.9698 53.1181 72.5472 53.3529 73.0508C52.5032 73.4862 51.8488 73.6121 51.1475 73.4638C50.8511 73.3995 50.5458 73.2926 50.2147 73.128C51.4946 74.774 50.3157 75.9844 48.7752 75.9259C50.0736 75.1628 48.9263 73.9054 48.0463 73.2414Z" fill="#CCAD62"/>
</g>
<defs>
<filter id="filter0_d_3989_2520" x="0.904297" y="0.381348" width="124.145" height="131.828" filterUnits="userSpaceOnUse" color-interpolation-filters="sRGB">
<feFlood flood-opacity="0" result="BackgroundImageFix"/>
<feColorMatrix in="SourceAlpha" type="matrix" values="0 0 0 0 0 0 0 0 0 0 0 0 0 0 0 0 0 0 127 0" result="hardAlpha"/>
<feOffset/>
<feGaussianBlur stdDeviation="17"/>
<feComposite in2="hardAlpha" operator="out"/>
<feColorMatrix type="matrix" values="0 0 0 0 0 0 0 0 0 0 0 0 0 0 0 0 0 0 0.15 0"/>
<feBlend mode="normal" in2="BackgroundImageFix" result="effect1_dropShadow_3989_2520"/>
<feBlend mode="normal" in="SourceGraphic" in2="effect1_dropShadow_3989_2520" result="shape"/>
</filter>
</defs>
</svg>
