<svg width="128" height="131" viewBox="0 0 128 131" fill="none" xmlns="http://www.w3.org/2000/svg">
<g id="patern" filter="url(#filter0_d_1416_10631)">
<g id="Group">
<g id="Group_2">
<g id="Group_3">
<path id="Vector" d="M79.8942 63.7985C80.0466 66.6215 81.7591 71.8918 85.6912 69.7316C87.1162 68.9511 87.8377 66.1583 85.9905 65.3752C83.9271 64.4987 83.4391 67.3276 85.3571 67.4629C84.5985 68.2139 83.6548 68.1387 82.7993 67.5943C79.9309 65.7704 80.1019 60.7401 81.7599 58.2714C81.6618 58.1089 81.5917 57.9145 81.5527 57.6917L81.5439 57.7826C79.938 59.2156 79.8337 61.523 79.8841 63.5654C79.8859 63.6402 79.8876 63.7184 79.8942 63.7985Z" fill="#8DD4DA"/>
</g>
<g id="Group_4">
<path id="Vector_2" d="M67.5075 50.5073C67.5869 50.521 67.6649 50.5298 67.7395 50.5383C69.775 50.7739 72.0944 50.8786 73.67 49.4126L73.6761 49.388C73.4919 49.3293 73.3335 49.2503 73.2026 49.1526C70.5835 50.5768 65.5377 50.2948 63.9731 47.281C63.506 46.3831 63.5159 45.44 64.335 44.755C64.2974 46.6702 67.1693 46.441 66.4808 44.3131C65.8627 42.4113 63.0076 42.8739 62.0989 44.2174C59.5865 47.9292 64.7006 50.1034 67.5075 50.5073Z" fill="#8DD4DA"/>
</g>
</g>
<g id="Group_5">
<path id="Vector_3" d="M84.0145 56.8831C84.617 57.0998 85.2513 56.9973 85.7536 56.31C86.9244 54.7107 84.248 52.8169 83.7695 55.4252C83.4858 55.355 83.1696 55.1071 82.9759 54.6041C82.5688 53.549 83.1154 52.0112 83.7412 51.1636L83.7013 51.0819C83.4681 51.1987 83.2354 51.3022 83.005 51.3909L83.0186 51.4231C82.0527 52.6699 81.8918 53.5182 82.0482 54.5114C82.1856 55.4006 83.0606 56.543 84.0145 56.8831Z" fill="#CCAD62"/>
<path id="Vector_4" d="M81.9757 58.6563C82.9638 58.9171 83.8772 58.0635 84.0157 56.911L84.0159 56.9043C83.0629 56.5636 82.1887 55.419 82.0497 54.5296C81.8919 53.5327 82.0559 52.6829 83.0192 51.4352L83.0056 51.4029C82.6466 51.5455 82.289 51.6549 81.9395 51.7313L81.9424 51.7414C79.9094 53.5987 80.0601 56.5039 80.8133 57.7526C80.8834 57.8676 80.9574 57.9694 81.0371 58.0532C81.163 58.1875 81.2881 58.3001 81.4175 58.3896C81.6068 58.5203 81.7929 58.6092 81.9757 58.6563Z" fill="#8DD4DA"/>
<path id="Vector_5" d="M82.3435 47.4796C81.68 47.9697 80.7405 49.4953 81.038 50.313C81.832 50.6807 83.4464 49.8881 83.9982 49.2767C83.81 49.9337 83.7194 50.4959 83.7865 51.0392C83.8575 51.6075 84.0966 52.1474 84.5737 52.7451C86.9314 55.7172 91.2525 52.9004 88.6884 50.5827C87.6982 49.6872 85.7627 50.7294 87.0823 52.1626C85.5063 52.2463 83.901 50.4648 85.4852 47.8684L85.504 47.8196C85.4122 47.7787 85.328 47.7184 85.2562 47.6404L84.0977 46.3823C84.0259 46.3043 83.9729 46.2156 83.9402 46.1213L83.8878 46.137C81.1388 47.4684 79.497 45.72 79.7229 44.1735C81.0409 45.605 82.2615 43.7896 81.4519 42.7271C79.3565 39.9879 76.1395 44.0039 78.9121 46.5999C79.4675 47.1234 79.9928 47.4103 80.5535 47.5315C81.0961 47.6469 81.6687 47.608 82.3435 47.4796Z" fill="#095195"/>
<path id="Vector_6" d="M77.0421 58.1509C77.3347 61.0069 79.6554 60.4747 80.5975 58.3546C80.6764 58.1797 80.7441 57.9926 80.8023 57.7951L80.8211 57.7843C80.0703 56.5341 79.9182 53.6197 81.9488 51.7576L81.9459 51.7474C81.3985 51.8712 80.8694 51.9174 80.3619 51.8829L80.3615 51.8929C79.82 53.3828 78.639 56.5583 77.0388 58.1507L77.0404 58.1525L77.0421 58.1509Z" fill="#095195"/>
<path id="Vector_7" d="M75.128 59.1487C75.8118 59.1433 76.4494 58.7735 77.0292 58.1938C78.6279 56.5999 79.8105 53.4264 80.3521 51.9366L80.3525 51.9266C80.0888 51.9089 79.831 51.8697 79.5824 51.8092L79.5428 51.8007C79.5026 51.5299 79.4861 51.2503 79.4948 50.9635L79.4682 50.9623C77.9191 51.3765 74.596 52.2894 72.892 53.7781C72.3 54.292 71.9028 54.8772 71.8388 55.5319C71.7752 56.2151 72.211 57.2028 72.7785 57.9866C73.5052 58.6244 74.4444 59.1507 75.128 59.1487Z" fill="#CCAD62"/>
<path id="Vector_8" d="M83.7412 51.0767L83.7947 51.0693C83.7277 50.5264 83.8165 49.9594 84.0059 49.2973C83.4555 49.912 81.8437 50.7071 81.0533 50.3392C80.7566 49.5171 81.6937 47.9833 82.3554 47.4905C81.6806 47.6212 81.1097 47.657 80.5751 47.5413L80.5629 47.594C80.5504 47.6151 80.538 47.6328 80.5272 47.6523C80.3896 47.8738 80.267 48.0978 80.1594 48.3208C79.9882 48.669 79.8504 49.0154 79.7426 49.36C79.577 49.8917 79.4885 50.4137 79.4722 50.9176C79.4635 51.2037 79.4801 51.4826 79.5203 51.7527L79.5599 51.7613C79.8088 51.8216 80.0653 51.8589 80.3308 51.8784C80.8389 51.9129 81.3686 51.8668 81.9166 51.7433C82.2661 51.6668 82.6221 51.5557 82.9827 51.4149C83.2128 51.326 83.4453 51.2223 83.6783 51.1053C83.7003 51.098 83.7224 51.0874 83.7412 51.0767Z" fill="#CCAD62"/>
<path id="Vector_9" d="M85.7735 47.8559C85.9683 47.8636 86.1645 47.8 86.3207 47.6582C86.5445 47.455 86.6158 47.1515 86.5322 46.8805C86.5032 46.7763 86.4458 46.6757 86.3676 46.5907L85.2098 45.3311C85.1317 45.2461 85.036 45.1801 84.9342 45.1421C84.6702 45.0349 84.3597 45.0781 84.1359 45.2813C83.9051 45.4909 83.8349 45.8093 83.9333 46.086C83.966 46.1804 84.0189 46.2692 84.0907 46.3473L85.2485 47.6068C85.3202 47.6849 85.4044 47.7453 85.4961 47.7862C85.5812 47.8268 85.6769 47.8513 85.7735 47.8559Z" fill="#8DD4DA"/>
<path id="Vector_10" d="M86.558 46.8507C89.0123 47.7887 88.1959 43.969 89.0064 42.9851C87.9524 43.7023 84.2255 42.5464 84.938 45.0765L84.923 45.1158C85.0262 45.1557 85.1201 45.2202 85.198 45.3056L86.3534 46.5709C86.4329 46.658 86.4887 46.7573 86.5176 46.862L86.558 46.8507Z" fill="#095195"/>
<path id="Vector_11" d="M79.4485 50.9833L79.4751 50.9846C79.4895 50.481 79.5797 49.956 79.7451 49.423L79.7304 49.4173C77.6998 51.2795 74.8171 50.8595 73.6427 49.9945L73.6303 50.0123C73.4341 50.0512 73.249 50.1024 73.0702 50.1638C70.8634 50.9154 70.0586 53.2493 72.8727 53.7995L72.8743 53.8013C74.5766 52.3106 77.8994 51.3976 79.4485 50.9833Z" fill="#095195"/>
<path id="Vector_12" d="M72.8322 48.7529C72.8554 48.9139 72.9117 49.0799 73.0027 49.2525C73.0875 49.4115 73.2006 49.5735 73.3469 49.7371C73.4231 49.824 73.5179 49.9069 73.6261 49.987C74.8018 50.8499 77.6878 51.2687 79.7207 49.4113L79.7355 49.417C79.8432 49.0724 79.981 48.726 80.1522 48.3778L80.1164 48.3594C78.7853 49.208 77.9243 49.2914 76.9473 49.0461C76.1169 48.8396 75.1155 47.9485 74.8033 47.0191L74.7948 47.0237C73.6429 47.0564 72.6911 47.7951 72.8322 48.7529Z" fill="#8DD4DA"/>
<path id="Vector_13" d="M80.113 48.3488L80.1489 48.3671C80.2567 48.1446 80.381 47.9228 80.5171 47.7L80.4391 47.653C79.5361 48.198 77.9508 48.6022 76.9337 48.1029C76.4487 47.8652 76.228 47.5271 76.1851 47.2408C78.8352 46.9992 77.1846 44.1739 75.4801 45.1907C74.6919 45.6632 74.568 46.347 74.7933 47.0094C75.1075 47.9354 76.1099 48.8246 76.9394 49.0324C77.9189 49.2789 78.7791 49.1939 80.113 48.3488Z" fill="#CCAD62"/>
</g>
</g>
<path id="Vector_14" d="M58.9026 47.1613L58.8636 47.1578C56.9965 48.1149 53.6419 48.9043 51.6712 48.5796L51.6682 48.5758C51.4874 48.7823 51.1976 48.9604 50.8712 49.0931L50.8827 49.1151C51.3612 49.2819 51.6687 49.4564 51.845 49.6353L51.8791 49.6079C53.6895 49.0457 56.9819 48.4025 59.1632 47.7617L59.1688 47.7547C58.9605 47.5778 58.8825 47.3722 58.9026 47.1613Z" fill="#095195"/>
<path id="Vector_15" d="M58.2121 47.3032C56.0034 47.8534 55.3403 49.3895 54.9569 50.7103L54.9385 50.7214C55.0158 50.8616 55.082 51.0371 55.1299 51.2506L55.1542 51.2611C55.2293 51.1027 55.3113 50.9796 55.3976 50.8845L55.385 50.8724C55.8466 49.3537 57.2608 47.8963 59.0391 47.5731C58.857 47.4944 58.688 47.3987 58.5296 47.2878C58.4246 47.2954 58.3186 47.2982 58.2121 47.3032Z" fill="#095195"/>
<path id="Vector_16" d="M55.1354 46.553C55.0631 46.5339 54.9911 46.5117 54.9162 46.4862C52.4074 48.1311 46.9104 43.9096 49.2232 42.8084C48.5653 42.1307 47.4965 42.2146 46.8925 42.8284C46.8177 42.9017 46.7515 42.982 46.6953 43.071C46.6662 43.1177 46.6372 43.1644 46.6125 43.213C46.263 42.8051 45.5312 41.9939 44.7915 41.497C44.3877 41.2245 43.9811 41.0476 43.6302 41.0843C43.3887 41.1065 43.1763 41.2318 43.0141 41.4962C42.944 41.6023 42.8854 41.7328 42.8349 41.8933C42.7432 41.8168 42.6338 41.7324 42.5134 41.6486C41.7057 41.0866 40.3486 40.4888 39.5553 41.0787C39.4671 41.1462 39.387 41.2267 39.3146 41.3234C38.0694 40.2882 34.2209 40.1401 34.9724 42.6751C34.9795 42.6974 34.9997 42.7456 35.028 42.8069C35.1149 42.8027 35.2026 42.8062 35.2905 42.8067C35.4008 42.3707 35.8111 41.8299 37.2204 41.9863C39.0791 42.1909 40.7884 42.8387 42.4765 43.9106C42.5102 43.9308 45.5172 45.8781 47.4467 46.7472C51.9428 48.7734 56.0628 48.5777 60.6238 47.3639C60.5742 47.1508 60.5261 46.9393 60.4895 46.7352C58.8283 47.4911 56.8657 47.059 55.1354 46.553Z" fill="#8DD4DA"/>
<path id="Vector_17" d="M50.8796 49.1164L50.8682 49.0944C51.1965 48.9627 51.4843 48.7837 51.6652 48.5771C51.9744 48.2262 51.9655 47.7866 51.2826 47.33C50.9879 47.1326 47.3426 46.2553 48.9515 45.0003C46.9201 44.9229 46.8923 47.5607 48.7195 48.0206C47.5579 48.0238 46.0384 49.0471 45.2501 49.8793C45.9832 50.67 47.8988 51.0939 48.6613 51.0273C47.466 51.7925 46.7827 54.0652 49.2533 54.301C46.9699 52.7492 53.1961 51.0135 51.8402 49.6406C51.6657 49.4577 51.3581 49.2832 50.8796 49.1164Z" fill="#095195"/>
<path id="Vector_18" d="M55.585 52.3482C55.6299 52.6102 55.5287 52.901 55.2975 53.1014C55.278 53.1167 55.2607 53.1326 55.2391 53.1474L55.2407 53.15C55.3677 53.3786 55.503 53.5466 55.642 53.6639C56.6605 54.5348 57.8347 52.7625 56.2956 52.4101L56.2924 52.3958C56.1231 52.4278 55.9117 52.4314 55.659 52.4024L55.585 52.3482Z" fill="#095195"/>
<path id="Vector_19" d="M55.2407 53.1458C54.9094 53.3886 54.4595 53.3599 54.2105 53.0719L54.1537 53.1206C54.0537 53.2347 53.9848 53.3498 53.9397 53.4596C53.4799 54.5733 55.4904 55.3651 55.6173 53.6962L55.6452 53.665C55.5047 53.5451 55.3693 53.3771 55.2439 53.1511L55.2407 53.1458Z" fill="#095195"/>
<path id="Vector_20" d="M54.9083 51.733L54.9026 51.792C55.0751 51.8102 55.2366 51.8905 55.3529 52.0269C55.4349 52.1211 55.4847 52.2365 55.5071 52.3541L55.5836 52.4067C55.8363 52.4357 56.0457 52.4316 56.217 52.4002C57.6885 52.1309 56.2479 49.8897 55.3227 50.8925C55.2364 50.9876 55.1544 51.1107 55.0793 51.269C55.0163 51.3968 54.9596 51.553 54.9083 51.733Z" fill="#095195"/>
<path id="Vector_21" d="M54.2102 53.0722C53.9908 52.8184 53.9943 52.4429 54.193 52.1561L54.1381 52.1156C53.9887 52.0226 53.8493 51.9611 53.7169 51.9261C52.3654 51.5485 51.9994 53.893 53.896 53.4356L53.9398 53.4577C53.985 53.3479 54.0538 53.2328 54.1538 53.1187L54.2102 53.0722Z" fill="#095195"/>
<path id="Vector_22" d="M54.1916 52.155C54.2337 52.0937 54.2832 52.0387 54.3405 51.988C54.528 51.8284 54.7625 51.7588 54.9778 51.7853L54.9835 51.7262C55.0348 51.5462 55.0914 51.39 55.1545 51.2623L55.1302 51.2518C55.0802 51.0377 55.016 50.8628 54.9387 50.7226C54.2697 49.5083 52.7134 50.87 53.7181 51.9233L53.7176 51.9254C53.85 51.9605 53.9894 52.0219 54.1388 52.115L54.1916 52.155Z" fill="#095195"/>
<path id="Vector_23" d="M46.9919 45.8928L46.9847 45.8912C46.702 45.8619 46.4212 45.8287 46.1377 45.7928C45.8668 45.7585 45.5942 45.7218 45.3231 45.6831C45.0487 45.6449 44.7756 45.6059 44.5004 45.5664C43.2311 45.3853 41.7857 45.3829 41.2859 46.7917C43.056 46.7372 42.0534 49.1272 40.6596 47.9605C39.7042 47.1615 40.2567 45.6965 41.5862 45.169C42.2272 44.9141 43.037 44.8708 43.7091 44.8409C41.9451 44.4205 39.1088 45.0875 37.8505 46.2488C37.4057 46.217 36.9452 46.2985 36.514 46.5083C36.4756 46.5279 36.4363 46.5463 36.3997 46.5674L36.3991 46.5651C36.9945 45.927 37.9532 45.2015 38.7183 44.8811C40.3325 44.2036 42.5968 44.2406 44.3005 44.477C45.8338 44.6898 46.7371 44.7948 48.2792 45.2171L48.2805 45.226C47.8067 45.2544 47.1146 45.4331 46.9919 45.8928Z" fill="#8DD4DA"/>
<path id="Vector_24" d="M42.9446 48.4923L42.9146 48.5127C42.8372 48.4641 42.7609 48.4456 42.6848 48.4508L42.6841 48.4292C42.6842 47.0047 44.118 45.6229 45.3225 45.681C45.5946 45.7198 45.8662 45.7564 46.1371 45.7907C43.1941 45.9801 42.9873 48.1622 42.9446 48.4923Z" fill="#095195"/>
<path id="Vector_25" d="M42.9154 48.5133C43.0174 48.5769 43.1183 48.6958 43.2181 48.8798C43.581 49.5566 42.5747 50.8359 43.6343 51.0418C43.3142 51.363 42.7356 51.3059 42.6376 50.8322C42.5646 51.2041 42.1565 51.6671 41.8211 51.8695C41.534 51.4293 41.4991 51.1168 41.6644 50.663C41.0824 51.2237 40.5686 50.8176 40.5287 50.2226C40.8747 50.6924 41.3138 50.1997 41.5333 49.8334C41.7794 49.4225 42.221 48.4871 42.6866 48.4517C42.7608 48.445 42.8382 48.4637 42.9154 48.5133Z" fill="#CCAD62"/>
<path id="Vector_26" d="M37.85 46.2488C38.7609 46.3137 39.6111 46.8484 40.0386 47.7285C40.6175 48.9224 40.2167 50.3384 39.1503 51.0622C39.0453 51.1329 38.9353 51.1972 38.8184 51.2536C38.7002 51.3108 38.5809 51.3581 38.4614 51.3968C37.2332 51.7854 35.8726 51.2252 35.2932 50.0334C34.6753 48.7616 35.1719 47.2376 36.4002 46.5675C36.4368 46.5465 36.4753 46.5268 36.5145 46.5085C36.9446 46.2985 37.4041 46.2167 37.85 46.2488ZM36.4747 48.9509C35.0154 49.0386 35.9033 50.8657 36.8731 49.7723C35.9033 50.8657 37.8218 51.53 37.7351 50.0709C37.8218 51.53 39.6499 50.6423 38.5555 49.6723C39.6489 50.6421 40.3134 48.7226 38.8543 48.8092C40.3134 48.7226 39.4265 46.8957 38.4559 47.9878C39.4265 46.8957 37.507 46.2312 37.5937 47.6903C37.508 46.2314 35.6791 47.1179 36.7733 48.0889C35.6799 47.1191 35.0164 49.0388 36.4747 48.9509Z" fill="#095195"/>
<path id="Vector_27" d="M36.7735 48.0903C35.6803 47.1195 37.5082 46.2329 37.5939 47.6918C37.5082 46.2329 39.4267 46.8972 38.4561 47.9893C39.4267 46.8972 40.3136 48.724 38.8545 48.8107C40.3136 48.724 39.6491 50.6435 38.5557 49.6738C39.6491 50.6435 37.822 51.5314 37.7353 50.0723C37.822 51.5314 35.9025 50.8669 36.8733 49.7738C35.9035 50.8671 35.0156 49.0401 36.4749 48.9524C35.0169 49.0392 35.6803 47.1195 36.7735 48.0903ZM37.1303 49.1415C37.2736 49.4375 37.6305 49.5608 37.9267 49.4164C38.2228 49.273 38.345 48.916 38.2014 48.621C38.0581 48.3249 37.7022 48.2019 37.4052 48.345C37.1089 48.4894 36.9859 48.8452 37.1303 49.1415Z" fill="#CCAD62"/>
<path id="Vector_28" d="M37.4307 48.3867C37.7267 48.2433 38.0836 48.3666 38.227 48.6626C38.3703 48.9587 38.2473 49.3145 37.9523 49.4581C37.6562 49.6015 37.2994 49.4782 37.1558 49.1832C37.0122 48.8882 37.1344 48.5311 37.4307 48.3867Z" fill="white"/>
<path id="Vector_29" d="M63.2615 46.6567C60.8396 47.1172 58.2513 46.7196 56.134 45.4379C55.9898 45.3507 55.8441 45.2519 55.7019 45.1412C54.1741 43.9588 52.8386 41.5589 52.6246 39.3071C52.4769 37.7302 52.8749 36.2269 54.1362 35.2654C55.8028 33.9935 59.6476 35.2038 58.6504 37.6786C57.8003 39.7831 55.1381 38.0978 56.5794 36.5178C55.4134 36.1115 54.5098 36.7116 54.0952 37.7308C53.0059 40.4046 55.161 43.6155 57.3568 45.0501C59.2745 46.302 61.3634 46.2117 63.4743 45.7897C63.5777 45.7704 63.6829 45.7452 63.7853 45.7239C63.552 46 63.3767 46.3187 63.2615 46.6567Z" fill="#8DD4DA"/>
<path id="Vector_30" d="M59.2303 48.3952C60.0914 47.5091 61.7507 45.417 62.9419 45.6039C63.1363 45.6342 63.3195 45.7268 63.4835 45.8948C63.7018 46.1151 63.8867 46.4738 64.0268 46.997C64.5403 48.9114 61.2584 51.5318 63.8001 52.6752C62.8065 53.2948 61.3872 52.8094 61.4177 51.5604C61.2375 51.9636 60.8685 52.3683 60.4361 52.7227C59.9098 53.1567 59.2826 53.514 58.7535 53.6837C58.4282 52.7861 58.3854 52.1212 58.6205 51.444C58.7215 51.158 58.8659 50.8685 59.0707 50.5607C57.2771 51.6239 56.2242 50.3024 56.4755 48.7815C57.0697 50.1654 58.4611 49.185 59.2303 48.3952Z" fill="#CCAD62"/>
<path id="Vector_31" d="M81.2209 72.1684L81.2226 72.2076C80.1815 74.0292 79.2403 77.3444 79.475 79.3278L79.4786 79.331C79.2641 79.5022 79.0729 79.7836 78.9256 80.1036L78.9041 80.0912C78.7593 79.6056 78.599 79.2904 78.4283 79.1061L78.4572 79.0733C79.1012 77.2905 79.8936 74.0307 80.633 71.8808L80.6403 71.8755C80.8075 72.0917 81.0093 72.179 81.2209 72.1684Z" fill="#095195"/>
<path id="Vector_32" d="M81.0489 72.8511C80.3987 75.0325 78.834 75.625 77.4971 75.9479L77.4852 75.9658C77.3487 75.8822 77.1764 75.808 76.9653 75.7504L76.9559 75.7257C77.1175 75.6579 77.2442 75.5816 77.3431 75.4997L77.3546 75.5129C78.8928 75.1209 80.4131 73.7745 80.8168 72.0127C80.8872 72.1982 80.9751 72.3714 81.0787 72.5347C81.0664 72.6392 81.0587 72.7449 81.0489 72.8511Z" fill="#095195"/>
<path id="Vector_33" d="M81.6578 75.9595C81.6736 76.0327 81.6925 76.1056 81.7146 76.1816C79.9571 78.6129 83.9241 84.2964 85.1294 82.0361C85.7764 82.7241 85.644 83.788 85.0033 84.3635C84.9267 84.4349 84.8435 84.4973 84.752 84.5494C84.7041 84.5763 84.6561 84.6032 84.6064 84.6256C84.998 84.9933 85.775 85.7613 86.2377 86.5228C86.4915 86.9387 86.6498 87.3529 86.5972 87.7018C86.564 87.942 86.4292 88.1485 86.1577 88.2984C86.0484 88.3637 85.9155 88.4162 85.7528 88.4594C85.8251 88.5544 85.9044 88.6677 85.9826 88.7917C86.5072 89.6241 87.0427 91.0071 86.4173 91.7727C86.3459 91.8577 86.2618 91.9341 86.1619 92.0019C87.1394 93.293 87.1121 97.1443 84.614 96.2782C84.5921 96.27 84.5448 96.2477 84.4848 96.2167C84.493 96.1301 84.4935 96.0423 84.497 95.9544C84.9375 95.8641 85.4964 95.4788 85.4043 94.0639C85.2845 92.1977 84.7153 90.4608 83.7212 88.7256C83.7027 88.6911 81.8942 85.5985 81.1139 83.6315C79.2944 79.0478 79.6773 74.941 81.0975 70.4399C81.3081 70.4991 81.5172 70.5569 81.7195 70.6027C80.8887 72.2278 81.231 74.2081 81.6578 75.9595Z" fill="#8DD4DA"/>
<path id="Vector_34" d="M78.9034 80.0939L78.9249 80.1063C79.0714 79.7843 79.2633 79.5049 79.4779 79.3337C79.8426 79.0407 80.2812 79.0697 80.7064 79.7727C80.8901 80.076 81.6006 83.7575 82.9275 82.2074C82.9124 84.2402 80.2761 84.1479 79.8998 82.3016C79.8437 83.4619 78.7524 84.9332 77.8851 85.6828C77.1286 84.9145 76.7923 82.9816 76.8936 82.2229C76.0747 83.3822 73.7733 83.9613 73.6502 81.4825C75.0965 83.8342 77.1137 77.6934 78.4235 79.1105C78.5983 79.2931 78.7586 79.6083 78.9034 80.0939Z" fill="#095195"/>
<path id="Vector_35" d="M75.8879 75.2478C75.6282 75.1911 75.3331 75.279 75.1225 75.5008C75.1062 75.5195 75.0896 75.5362 75.0738 75.5571L75.0713 75.5554C74.8487 75.4181 74.687 75.2752 74.5761 75.1311C73.7526 74.0739 75.5765 72.9817 75.8585 74.5352L75.8725 74.5391C75.8329 74.7067 75.8197 74.9178 75.8372 75.1715L75.8879 75.2478Z" fill="#095195"/>
<path id="Vector_36" d="M75.0761 75.5544C74.8185 75.8743 74.8267 76.325 75.103 76.5869L75.0519 76.6415C74.9333 76.7361 74.8152 76.7997 74.7035 76.8398C73.57 77.2484 72.8705 75.204 74.5434 75.1532L74.5758 75.1267C74.6893 75.2726 74.8509 75.4154 75.071 75.551L75.0761 75.5544Z" fill="#095195"/>
<path id="Vector_37" d="M76.4724 75.9505L76.4131 75.9535C76.4028 75.7803 76.3299 75.6153 76.199 75.4929C76.1086 75.4068 75.9955 75.3517 75.8791 75.324L75.8301 75.2451C75.8126 74.9914 75.8262 74.7824 75.8654 74.6127C76.2014 73.1551 78.3747 74.6961 77.3308 75.5747C77.2319 75.6566 77.1052 75.7329 76.9436 75.8008C76.8131 75.8579 76.6545 75.9074 76.4724 75.9505Z" fill="#095195"/>
<path id="Vector_38" d="M75.1029 76.5872C75.3464 76.8179 75.7217 76.8315 76.0172 76.646L76.0552 76.7027C76.1413 76.8562 76.1964 76.9982 76.2254 77.1321C76.541 78.4993 74.1823 78.7583 74.7255 76.8844L74.7055 76.8397C74.8172 76.7996 74.9353 76.736 75.0539 76.6413L75.1029 76.5872Z" fill="#095195"/>
<path id="Vector_39" d="M76.0178 76.6471C76.0809 76.6079 76.1381 76.561 76.1914 76.506C76.3594 76.326 76.4395 76.0948 76.4229 75.8786L76.4822 75.8756C76.6643 75.8326 76.8229 75.7831 76.9534 75.7259L76.9628 75.7507C77.1743 75.8104 77.3462 75.8824 77.4826 75.966C78.6652 76.6896 77.2341 78.1823 76.2276 77.1307L76.2255 77.1312C76.1965 76.9972 76.1415 76.8552 76.0553 76.7017L76.0178 76.6471Z" fill="#095195"/>
<path id="Vector_40" d="M81.9461 84.1252L81.9473 84.1324C81.9637 84.4162 81.9841 84.6982 82.0071 84.983C82.029 85.2553 82.0533 85.5292 82.0795 85.8018C82.1053 86.0777 82.1318 86.3523 82.1587 86.629C82.2818 87.9052 82.2185 89.3492 80.7884 89.7844C80.9234 88.0186 78.4903 88.9113 79.5923 90.3568C80.347 91.3476 81.8356 90.8623 82.423 89.5582C82.7068 88.9295 82.787 88.1225 82.8474 87.4525C83.1872 89.2338 82.3917 92.0368 81.1743 93.2409C81.1859 93.6868 81.0835 94.1431 80.8543 94.5642C80.833 94.6017 80.8128 94.6401 80.7901 94.6757L80.7923 94.6764C81.4569 94.1107 82.2252 93.186 82.5801 92.4363C83.3305 90.8546 83.3965 88.591 83.2379 86.8782C83.0951 85.3369 83.0313 84.4297 82.6796 82.87L82.6708 82.8683C82.6209 83.3403 82.4109 84.0235 81.9461 84.1252Z" fill="#8DD4DA"/>
<path id="Vector_41" d="M79.1654 88.0492L79.1437 88.0783C79.1888 88.1578 79.2037 88.2349 79.1951 88.3106L79.2166 88.3124C80.6397 88.377 82.0853 87.0077 82.0821 85.8017C82.0557 85.5281 82.0315 85.2552 82.0096 84.983C81.6864 87.9144 79.4972 88.0216 79.1654 88.0492Z" fill="#095195"/>
<path id="Vector_42" d="M79.1426 88.0776C79.0837 87.9727 78.9695 87.8665 78.7903 87.7584C78.1307 87.3651 76.8069 88.3121 76.6495 87.2443C76.314 87.5495 76.3447 88.1301 76.8134 88.2495C76.4386 88.3054 75.9575 88.6921 75.7401 89.0179C76.1667 89.3247 76.4773 89.3739 76.9382 89.2293C76.3515 89.7853 76.7339 90.317 77.3265 90.3839C76.8728 90.0169 77.3851 89.6007 77.761 89.3981C78.1827 89.1709 79.1371 88.7724 79.1938 88.3088C79.2038 88.235 79.1886 88.1569 79.1426 88.0776Z" fill="#CCAD62"/>
<path id="Vector_43" d="M81.1747 93.2402C81.1513 92.3273 80.6559 91.4536 79.7962 90.9865C78.6299 90.3539 77.197 90.6897 76.4254 91.7221C76.35 91.8238 76.2808 91.9308 76.2192 92.045C76.1566 92.1605 76.1039 92.2775 76.0599 92.3951C75.6158 93.6043 76.1135 94.9891 77.2777 95.622C78.52 96.2972 80.0651 95.8705 80.7903 94.6739C80.813 94.6383 80.8344 94.6008 80.8545 94.5625C81.0839 94.1423 81.1864 93.687 81.1747 93.2402ZM78.4128 94.491C78.2588 95.9449 76.474 94.9747 77.6104 94.0557C76.474 94.9747 75.8977 93.028 77.3514 93.181C75.8977 93.028 76.8677 91.2422 77.7868 92.3796C76.8678 91.2432 78.8156 90.6668 78.6626 92.1204C78.8156 90.6668 80.6002 91.6358 79.465 92.5557C80.6002 91.6358 81.1767 93.5836 79.723 93.4306C81.1765 93.5826 80.2077 95.3693 79.2875 94.232C80.2065 95.3684 78.2586 95.9438 78.4128 94.491Z" fill="#095195"/>
<path id="Vector_44" d="M79.2855 94.2319C80.2056 95.3681 81.1745 93.5825 79.721 93.4305C81.1745 93.5825 80.5982 91.6358 79.463 92.5556C80.5982 91.6358 78.8136 90.6667 78.6606 92.1203C78.8136 90.6667 76.8658 91.2431 77.7848 92.3795C76.8658 91.2431 75.8957 93.0279 77.3494 93.1809C75.8957 93.0279 76.4722 94.9757 77.6084 94.0556C76.472 94.9746 78.2568 95.9448 78.4108 94.4909C78.2576 95.9436 80.2056 95.3681 79.2855 94.2319ZM78.2517 93.8277C77.9625 93.671 77.8556 93.3089 78.0133 93.0195C78.17 92.7303 78.5322 92.6245 78.8204 92.7813C79.1096 92.938 79.2164 93.2991 79.0598 93.5893C78.9021 93.8787 78.5411 93.9854 78.2517 93.8277Z" fill="#CCAD62"/>
<path id="Vector_45" d="M81.9244 67.837C81.3541 70.2355 81.6334 72.8392 82.8174 75.0126C82.898 75.1607 82.9901 75.3107 83.0942 75.4578C84.2058 77.0379 86.5424 78.4812 88.7822 78.7975C90.3508 79.0168 91.8706 78.6876 92.8885 77.4714C94.2349 75.8644 93.2009 71.9685 90.6833 72.852C88.5423 73.6055 90.1046 76.3416 91.7486 74.9737C92.1014 76.157 91.4608 77.0324 90.4237 77.4001C87.7032 78.3666 84.5937 76.0676 83.2605 73.8088C82.0972 71.8361 82.2825 69.7535 82.8001 67.6639C82.8241 67.5615 82.8541 67.4576 82.88 67.3563C82.5936 67.5767 82.2672 67.7373 81.9244 67.837Z" fill="#8DD4DA"/>
<path id="Vector_46" d="M80.0034 71.7847C80.9277 70.9649 83.0933 69.4026 82.9607 68.2041C82.9393 68.0085 82.8551 67.8212 82.6948 67.6498C82.4847 67.4217 82.1348 67.2206 81.6184 67.0569C79.7294 66.4568 76.9624 69.6161 75.9358 67.0249C75.2716 67.9893 75.692 69.4292 76.941 69.4556C76.53 69.6172 76.1089 69.9674 75.7352 70.3832C75.2778 70.8893 74.8923 71.4995 74.6986 72.0204C75.5805 72.3863 76.2428 72.4592 76.93 72.2552C77.2203 72.1673 77.5161 72.0363 77.8329 71.8456C76.6891 73.589 77.9613 74.701 79.4921 74.5191C78.1367 73.8626 79.1795 72.5173 80.0034 71.7847Z" fill="#CCAD62"/>
</g>
<defs>
<filter id="filter0_d_1416_10631" x="0.875977" y="0.753906" width="126.606" height="129.65" filterUnits="userSpaceOnUse" color-interpolation-filters="sRGB">
<feFlood flood-opacity="0" result="BackgroundImageFix"/>
<feColorMatrix in="SourceAlpha" type="matrix" values="0 0 0 0 0 0 0 0 0 0 0 0 0 0 0 0 0 0 127 0" result="hardAlpha"/>
<feOffset/>
<feGaussianBlur stdDeviation="17"/>
<feComposite in2="hardAlpha" operator="out"/>
<feColorMatrix type="matrix" values="0 0 0 0 0 0 0 0 0 0 0 0 0 0 0 0 0 0 0.15 0"/>
<feBlend mode="normal" in2="BackgroundImageFix" result="effect1_dropShadow_1416_10631"/>
<feBlend mode="normal" in="SourceGraphic" in2="effect1_dropShadow_1416_10631" result="shape"/>
</filter>
</defs>
</svg>
