<svg width="127" height="130" viewBox="0 0 127 130" fill="none" xmlns="http://www.w3.org/2000/svg">
<g id="patern" filter="url(#filter0_d_1416_10685)">
<g id="Group">
<g id="Group_2">
<g id="Group_3">
<path id="Vector" d="M47.6116 66.9464C47.4593 64.1233 45.7467 58.8531 41.8146 61.0133C40.3897 61.7938 39.6681 64.5866 41.5154 65.3696C43.5788 66.2461 44.0668 63.4173 42.1488 63.282C42.9073 62.531 43.851 62.6062 44.7065 63.1506C47.575 64.9744 47.404 70.0047 45.7459 72.4735C45.8441 72.636 45.9142 72.8304 45.9531 73.0532L45.962 72.9623C47.5679 71.5293 47.6721 69.2219 47.6218 67.1795C47.62 67.1046 47.6183 67.0265 47.6116 66.9464Z" fill="#8DD4DA"/>
</g>
<g id="Group_4">
<path id="Vector_2" d="M59.9986 80.2376C59.9192 80.2238 59.8412 80.2151 59.7666 80.2065C57.7311 79.971 55.4117 79.8663 53.8361 81.3322L53.83 81.3569C54.0142 81.4155 54.1726 81.4946 54.3035 81.5922C56.9226 80.168 61.9684 80.4501 63.533 83.4639C64.0001 84.3618 63.9902 85.3049 63.1711 85.9899C63.2087 84.0746 60.3368 84.3039 61.0253 86.4318C61.6434 88.3336 64.4985 87.871 65.4072 86.5275C67.9196 82.8156 62.8055 80.6415 59.9986 80.2376Z" fill="#8DD4DA"/>
</g>
</g>
<g id="Group_5">
<path id="Vector_3" d="M43.4921 73.8613C42.8896 73.6446 42.2553 73.7471 41.753 74.4344C40.5822 76.0336 43.2586 77.9275 43.7371 75.3192C44.0208 75.3894 44.337 75.6373 44.5307 76.1402C44.9378 77.1953 44.3912 78.7332 43.7654 79.5808L43.8053 79.6625C44.0385 79.5457 44.2712 79.4422 44.5016 79.3535L44.488 79.3213C45.4539 78.0745 45.6148 77.2262 45.4584 76.233C45.321 75.3438 44.446 74.2014 43.4921 73.8613Z" fill="#CCAD62"/>
<path id="Vector_4" d="M45.5306 72.0883C44.5426 71.8275 43.6292 72.6812 43.4907 73.8337L43.4904 73.8403C44.4434 74.181 45.3176 75.3257 45.4567 76.2151C45.6145 77.2119 45.4505 78.0617 44.4871 79.3094L44.5008 79.3417C44.8597 79.1991 45.2173 79.0898 45.5669 79.0133L45.564 79.0032C47.597 77.1459 47.4463 74.2408 46.693 72.992C46.6229 72.877 46.549 72.7752 46.4692 72.6914C46.3434 72.5571 46.2182 72.4445 46.0888 72.355C45.8995 72.2243 45.7134 72.1354 45.5306 72.0883Z" fill="#8DD4DA"/>
<path id="Vector_5" d="M45.1626 83.265C45.8261 82.7749 46.7656 81.2493 46.4681 80.4316C45.6741 80.064 44.0597 80.8565 43.5079 81.4679C43.6961 80.811 43.7867 80.2487 43.7196 79.7054C43.6486 79.1371 43.4095 78.5972 42.9324 77.9995C40.5747 75.0274 36.2536 77.8442 38.8177 80.1619C39.8079 81.0575 41.7434 80.0152 40.4238 78.582C41.9998 78.4983 43.6051 80.2798 42.0209 82.8762L42.0021 82.925C42.0939 82.9659 42.1781 83.0262 42.2499 83.1042L43.4084 84.3623C43.4802 84.4403 43.5332 84.529 43.5659 84.6233L43.6183 84.6076C46.3674 83.2762 48.0091 85.0246 47.7832 86.5711C46.4652 85.1397 45.2446 86.955 46.0542 88.0175C48.1496 90.7568 51.3666 86.7408 48.594 84.1448C48.0387 83.6212 47.5133 83.3343 46.9526 83.2131C46.41 83.0977 45.8375 83.1366 45.1626 83.265Z" fill="#095195"/>
<path id="Vector_6" d="M50.4642 72.5938C50.1717 69.7377 47.8509 70.27 46.9088 72.3901C46.8299 72.5649 46.7622 72.752 46.704 72.9496L46.6853 72.9603C47.4361 74.2106 47.5882 77.125 45.5576 78.9871L45.5605 78.9972C46.1078 78.8734 46.637 78.8272 47.1444 78.8618L47.1448 78.8518C47.6863 77.3618 48.8674 74.1863 50.4675 72.5939L50.466 72.5922L50.4642 72.5938Z" fill="#095195"/>
<path id="Vector_7" d="M52.3783 71.5959C51.6945 71.6013 51.057 71.9712 50.4772 72.5508C48.8785 74.1448 47.6958 77.3182 47.1543 78.808L47.1539 78.818C47.4176 78.8358 47.6754 78.8749 47.924 78.9354L47.9635 78.944C48.0037 79.2147 48.0203 79.4943 48.0116 79.7811L48.0381 79.7824C49.5873 79.3681 52.9103 78.4552 54.6144 76.9666C55.2064 76.4526 55.6035 75.8674 55.6676 75.2127C55.7312 74.5296 55.2953 73.5418 54.7278 72.7581C54.0012 72.1202 53.062 71.5939 52.3783 71.5959Z" fill="#CCAD62"/>
<path id="Vector_8" d="M43.7652 79.6679L43.7116 79.6754C43.7786 80.2182 43.6898 80.7853 43.5004 81.4474C44.0508 80.8326 45.6627 80.0375 46.453 80.4054C46.7497 81.2275 45.8127 82.7613 45.1509 83.2541C45.8257 83.1234 46.3966 83.0876 46.9312 83.2033L46.9434 83.1506C46.956 83.1295 46.9684 83.1118 46.9792 83.0924C47.1167 82.8708 47.2394 82.6469 47.347 82.4239C47.5182 82.0757 47.656 81.7292 47.7637 81.3846C47.9293 80.853 48.0179 80.3309 48.0341 79.827C48.0428 79.541 48.0263 79.262 47.986 78.9919L47.9465 78.9833C47.6976 78.923 47.4411 78.8857 47.1755 78.8662C46.6675 78.8318 46.1377 78.8779 45.5898 79.0014C45.2402 79.0778 44.8843 79.1889 44.5237 79.3297C44.2935 79.4186 44.061 79.5223 43.828 79.6393C43.8061 79.6466 43.784 79.6572 43.7652 79.6679Z" fill="#CCAD62"/>
<path id="Vector_9" d="M41.7329 82.8887C41.538 82.8811 41.3418 82.9447 41.1857 83.0864C40.9618 83.2897 40.8906 83.5931 40.9742 83.8641C41.0031 83.9683 41.0606 84.069 41.1387 84.154L42.2965 85.4135C42.3747 85.4985 42.4703 85.5645 42.5721 85.6025C42.8362 85.7097 43.1467 85.6665 43.3705 85.4633C43.6013 85.2538 43.6715 84.9354 43.5731 84.6586C43.5404 84.5642 43.4874 84.4754 43.4157 84.3974L42.2579 83.1378C42.1861 83.0597 42.1019 82.9993 42.0102 82.9584C41.9252 82.9179 41.8295 82.8934 41.7329 82.8887Z" fill="#8DD4DA"/>
<path id="Vector_10" d="M40.9486 83.894C38.4943 82.956 39.3107 86.7756 38.5002 87.7595C39.5542 87.0423 43.2811 88.1983 42.5686 85.6681L42.5836 85.6289C42.4804 85.5889 42.3865 85.5244 42.3086 85.439L41.1532 84.1737C41.0737 84.0866 41.0179 83.9873 40.989 83.8826L40.9486 83.894Z" fill="#095195"/>
<path id="Vector_11" d="M48.0581 79.7613L48.0315 79.76C48.0171 80.2636 47.9268 80.7886 47.7615 81.3216L47.7762 81.3273C49.8068 79.4652 52.6895 79.8851 53.8639 80.7501L53.8763 80.7324C54.0725 80.6934 54.2576 80.6423 54.4364 80.5808C56.6432 79.8292 57.448 77.4953 54.6339 76.9451L54.6323 76.9434C52.93 78.434 49.6072 79.347 48.0581 79.7613Z" fill="#095195"/>
<path id="Vector_12" d="M54.6744 81.9917C54.6512 81.8307 54.5949 81.6648 54.5039 81.4922C54.4191 81.3332 54.306 81.1712 54.1597 81.0075C54.0835 80.9206 53.9887 80.8377 53.8805 80.7576C52.7048 79.8948 49.8188 79.4759 47.7859 81.3333L47.7711 81.3276C47.6634 81.6722 47.5256 82.0187 47.3544 82.3669L47.3902 82.3852C48.7213 81.5366 49.5823 81.4532 50.5593 81.6985C51.3897 81.9051 52.3911 82.7961 52.7033 83.7256L52.7118 83.721C53.8637 83.6882 54.8155 82.9496 54.6744 81.9917Z" fill="#8DD4DA"/>
<path id="Vector_13" d="M47.3933 82.3959L47.3574 82.3775C47.2497 82.6001 47.1253 82.8218 46.9892 83.0447L47.0673 83.0916C47.9702 82.5466 49.5555 82.1424 50.5727 82.6417C51.0576 82.8794 51.2783 83.2175 51.3212 83.5038C48.6712 83.7455 50.3217 86.5707 52.0262 85.5539C52.8144 85.0815 52.9383 84.3976 52.713 83.7352C52.3988 82.8092 51.3965 81.92 50.567 81.7123C49.5874 81.4657 48.7272 81.5507 47.3933 82.3959Z" fill="#CCAD62"/>
</g>
</g>
<path id="Vector_14" d="M68.6037 83.5833L68.6427 83.5868C70.5098 82.6297 73.8645 81.8403 75.8351 82.165L75.8382 82.1688C76.019 81.9623 76.3088 81.7842 76.6351 81.6516L76.6237 81.6296C76.1452 81.4628 75.8376 81.2883 75.6613 81.1093L75.6272 81.1368C73.8169 81.6989 70.5245 82.3421 68.3431 82.983L68.3375 82.99C68.5459 83.1668 68.6238 83.3724 68.6037 83.5833Z" fill="#095195"/>
<path id="Vector_15" d="M69.2945 83.4415C71.5032 82.8912 72.1662 81.3551 72.5497 80.0343L72.5681 80.0232C72.4908 79.8831 72.4246 79.7076 72.3767 79.4941L72.3524 79.4836C72.2773 79.6419 72.1952 79.765 72.1089 79.8601L72.1216 79.8722C71.66 81.391 70.2458 82.8483 68.4675 83.1715C68.6496 83.2502 68.8186 83.3459 68.977 83.4569C69.082 83.4493 69.188 83.4464 69.2945 83.4415Z" fill="#095195"/>
<path id="Vector_16" d="M72.3709 84.1916C72.4432 84.2108 72.5153 84.2329 72.5901 84.2585C75.0989 82.6135 80.596 86.8351 78.2832 87.9362C78.941 88.6139 80.0098 88.53 80.6139 87.9162C80.6887 87.8429 80.7549 87.7626 80.811 87.6737C80.8401 87.627 80.8692 87.5802 80.8938 87.5316C81.2433 87.9395 81.9752 88.7507 82.7148 89.2476C83.1187 89.5201 83.5253 89.6971 83.8762 89.6604C84.1176 89.6381 84.3301 89.5128 84.4922 89.2485C84.5624 89.1423 84.6209 89.0119 84.6714 88.8513C84.7631 88.9279 84.8726 89.0122 84.9929 89.096C85.8006 89.658 87.1578 90.2558 87.9511 89.6659C88.0392 89.5985 88.1194 89.5179 88.1917 89.4212C89.437 90.4565 93.2855 90.6045 92.534 88.0696C92.5268 88.0473 92.5066 87.9991 92.4784 87.9377C92.3915 87.942 92.3038 87.9384 92.2158 87.9379C92.1056 88.3739 91.6952 88.9147 90.286 88.7583C88.4272 88.5537 86.718 87.906 85.0298 86.834C84.9962 86.8139 81.9891 84.8665 80.0597 83.9975C75.5636 81.9712 71.4436 82.1669 66.8825 83.3807C66.9321 83.5938 66.9803 83.8053 67.0168 84.0095C68.6781 83.2536 70.6407 83.6856 72.3709 84.1916Z" fill="#8DD4DA"/>
<path id="Vector_17" d="M76.6267 81.6282L76.6382 81.6502C76.3098 81.7819 76.022 81.9609 75.8412 82.1675C75.5319 82.5185 75.5409 82.958 76.2238 83.4147C76.5185 83.612 80.1638 84.4894 78.5549 85.7443C80.5863 85.8218 80.6141 83.1839 78.7868 82.724C79.9485 82.7208 81.4679 81.6976 82.2562 80.8653C81.5231 80.0746 79.6076 79.6508 78.845 79.7173C80.0404 78.9521 80.7237 76.6795 78.253 76.4436C80.5365 77.9955 74.3102 79.7311 75.6662 81.104C75.8407 81.2869 76.1482 81.4614 76.6267 81.6282Z" fill="#095195"/>
<path id="Vector_18" d="M71.9213 78.3964C71.8765 78.1344 71.9777 77.8436 72.2088 77.6433C72.2283 77.6279 72.2457 77.6121 72.2673 77.5973L72.2657 77.5946C72.1387 77.366 72.0033 77.198 71.8644 77.0807C70.8458 76.2099 69.6717 77.9822 71.2108 78.3346L71.214 78.3488C71.3832 78.3168 71.5947 78.3132 71.8474 78.3423L71.9213 78.3964Z" fill="#095195"/>
<path id="Vector_19" d="M72.2656 77.5988C72.5969 77.3561 73.0468 77.3847 73.2958 77.6727L73.3527 77.6241C73.4526 77.51 73.5215 77.3948 73.5666 77.2851C74.0264 76.1713 72.016 75.3795 71.889 77.0484L71.8612 77.0796C72.0017 77.1996 72.137 77.3675 72.2625 77.5936L72.2656 77.5988Z" fill="#095195"/>
<path id="Vector_20" d="M72.5981 79.0117L72.6037 78.9526C72.4313 78.9345 72.2697 78.8541 72.1534 78.7177C72.0715 78.6235 72.0217 78.5081 71.9993 78.3905L71.9227 78.3379C71.67 78.3089 71.4607 78.313 71.2893 78.3445C69.8179 78.6137 71.2585 80.855 72.1836 79.8521C72.2699 79.757 72.352 79.634 72.4271 79.4756C72.4901 79.3478 72.5467 79.1916 72.5981 79.0117Z" fill="#095195"/>
<path id="Vector_21" d="M73.2959 77.6725C73.5153 77.9262 73.5119 78.3017 73.3131 78.5885L73.368 78.629C73.5174 78.7221 73.6568 78.7835 73.7892 78.8186C75.1407 79.1961 75.5067 76.8517 73.6101 77.309L73.5663 77.2869C73.5211 77.3967 73.4523 77.5118 73.3523 77.6259L73.2959 77.6725Z" fill="#095195"/>
<path id="Vector_22" d="M73.3145 78.5897C73.2724 78.6509 73.2229 78.7059 73.1656 78.7566C72.9781 78.9163 72.7436 78.9858 72.5283 78.9594L72.5226 79.0184C72.4713 79.1984 72.4147 79.3546 72.3516 79.4824L72.3759 79.4929C72.4259 79.7069 72.4901 79.8819 72.5674 80.022C73.2364 81.2363 74.7927 79.8746 73.788 78.8213L73.7885 78.8192C73.6561 78.7841 73.5167 78.7227 73.3673 78.6296L73.3145 78.5897Z" fill="#095195"/>
<path id="Vector_23" d="M80.5145 84.8519L80.5216 84.8534C80.8043 84.8827 81.0852 84.9159 81.3686 84.9518C81.6396 84.9861 81.9121 85.0229 82.1832 85.0615C82.4576 85.0997 82.7308 85.1388 83.006 85.1782C84.2752 85.3593 85.7207 85.3618 86.2205 83.9529C84.4504 84.0075 85.4529 81.6175 86.8467 82.7841C87.8021 83.5831 87.2496 85.0481 85.9201 85.5756C85.2792 85.8305 84.4694 85.8738 83.7972 85.9037C85.5612 86.3242 88.3976 85.6571 89.6558 84.4958C90.1007 84.5276 90.5612 84.4461 90.9923 84.2363C91.0308 84.2167 91.07 84.1983 91.1066 84.1772L91.1072 84.1795C90.5118 84.8177 89.5532 85.5431 88.788 85.8635C87.1739 86.5411 84.9096 86.504 83.2058 86.2677C81.6726 86.0549 80.7692 85.9498 79.2272 85.5275L79.2258 85.5186C79.6996 85.4903 80.3917 85.3116 80.5145 84.8519Z" fill="#8DD4DA"/>
<path id="Vector_24" d="M84.5617 82.2523L84.5918 82.2319C84.6692 82.2806 84.7455 82.299 84.8215 82.2938L84.8223 82.3154C84.8221 83.7399 83.3884 85.1217 82.1838 85.0636C81.9117 85.0248 81.6402 84.9882 81.3692 84.9539C84.3123 84.7645 84.5191 82.5825 84.5617 82.2523Z" fill="#095195"/>
<path id="Vector_25" d="M84.591 82.2313C84.489 82.1678 84.3881 82.0488 84.2882 81.8648C83.9254 81.188 84.9316 79.9087 83.8721 79.7028C84.1922 79.3816 84.7708 79.4388 84.8687 79.9124C84.9417 79.5405 85.3499 79.0775 85.6853 78.8751C85.9723 79.3153 86.0073 79.6278 85.8419 80.0816C86.424 79.5209 86.9377 79.927 86.9776 80.5221C86.6316 80.0522 86.1925 80.545 85.973 80.9113C85.7269 81.3221 85.2854 82.2575 84.8197 82.293C84.7455 82.2996 84.6682 82.2809 84.591 82.2313Z" fill="#CCAD62"/>
<path id="Vector_26" d="M89.6563 84.4959C88.7455 84.4309 87.8953 83.8962 87.4677 83.0161C86.8888 81.8223 87.2896 80.4062 88.356 79.6824C88.461 79.6117 88.5711 79.5474 88.688 79.491C88.8062 79.4338 88.9254 79.3865 89.045 79.3478C90.2731 78.9593 91.6338 79.5194 92.2131 80.7113C92.831 81.983 92.3344 83.5071 91.1061 84.1771C91.0695 84.1982 91.0311 84.2178 90.9918 84.2362C90.5617 84.4462 90.1022 84.5279 89.6563 84.4959ZM91.0316 81.7937C92.4909 81.706 91.603 79.8789 90.6333 80.9723C91.603 79.8789 89.6846 79.2147 89.7712 80.6738C89.6846 79.2147 87.8564 80.1023 88.9509 81.0723C87.8575 80.1025 87.193 82.0221 88.6521 81.9354C87.193 82.0221 88.0798 83.8489 89.0504 82.7568C88.0798 83.8489 89.9994 84.5134 89.9127 83.0543C89.9983 84.5132 91.8272 83.6268 90.7331 82.6558C91.8264 83.6255 92.4899 81.7058 91.0316 81.7937Z" fill="#095195"/>
<path id="Vector_27" d="M90.7329 82.6543C91.826 83.6251 89.9981 84.5118 89.9125 83.0529C89.9981 84.5118 88.0796 83.8475 89.0502 82.7553C88.0796 83.8475 87.1928 82.0206 88.6519 81.9339C87.1928 82.0206 87.8573 80.1011 88.9506 81.0709C87.8573 80.1011 89.6843 79.2132 89.771 80.6723C89.6843 79.2132 91.6039 79.8777 90.6331 80.9709C91.6028 79.8775 92.4907 81.7046 91.0314 81.7923C92.4895 81.7054 91.826 83.6251 90.7329 82.6543ZM90.3761 81.6031C90.2327 81.3071 89.8759 81.1838 89.5796 81.3282C89.2836 81.4716 89.1613 81.8287 89.3049 82.1237C89.4483 82.4197 89.8041 82.5428 90.1012 82.3996C90.3974 82.2552 90.5205 81.8994 90.3761 81.6031Z" fill="#CCAD62"/>
<path id="Vector_28" d="M90.0756 82.3579C89.7796 82.5013 89.4228 82.378 89.2794 82.082C89.136 81.786 89.2591 81.4301 89.5541 81.2865C89.8501 81.1432 90.207 81.2664 90.3506 81.5615C90.4942 81.8565 90.3719 82.2135 90.0756 82.3579Z" fill="white"/>
<path id="Vector_29" d="M64.2446 84.088C66.6665 83.6274 69.2548 84.025 71.3721 85.3067C71.5163 85.3939 71.662 85.4928 71.8042 85.6034C73.332 86.7858 74.6675 89.1857 74.8815 91.4375C75.0292 93.0145 74.6312 94.5178 73.3699 95.4792C71.7033 96.7511 67.8585 95.5409 68.8557 93.0661C69.7058 90.9616 72.3681 92.6468 70.9268 94.2268C72.0927 94.6332 72.9963 94.0331 73.4109 93.0138C74.5002 90.3401 72.3451 87.1291 70.1493 85.6946C68.2316 84.4426 66.1427 84.5329 64.0318 84.9549C63.9284 84.9743 63.8232 84.9995 63.7208 85.0207C63.9541 84.7446 64.1294 84.4259 64.2446 84.088Z" fill="#8DD4DA"/>
<path id="Vector_30" d="M68.2758 82.3494C67.4147 83.2355 65.7554 85.3277 64.5642 85.1407C64.3698 85.1104 64.1866 85.0178 64.0226 84.8498C63.8043 84.6295 63.6194 84.2709 63.4793 83.7476C62.9658 81.8332 66.2477 79.2129 63.706 78.0694C64.6996 77.4498 66.1189 77.9353 66.0884 79.1842C66.2686 78.781 66.6376 78.3763 67.07 78.0219C67.5963 77.588 68.2235 77.2306 68.7526 77.0609C69.0779 77.9585 69.1207 78.6235 68.8856 79.3006C68.7846 79.5866 68.6402 79.8761 68.4354 80.184C70.229 79.1207 71.2819 80.4422 71.0306 81.9632C70.4364 80.5792 69.045 81.5597 68.2758 82.3494Z" fill="#CCAD62"/>
<path id="Vector_31" d="M46.2852 58.5762L46.2835 58.537C47.3246 56.7155 48.2658 53.4002 48.0311 51.4168L48.0275 51.4136C48.2421 51.2424 48.4332 50.961 48.5805 50.641L48.602 50.6534C48.7468 51.1391 48.9071 51.4542 49.0778 51.6385L49.0489 51.6713C48.405 53.4542 47.6125 56.7139 46.8731 58.8638L46.8658 58.8691C46.6986 58.6529 46.4968 58.5657 46.2852 58.5762Z" fill="#095195"/>
<path id="Vector_32" d="M46.4575 57.8935C47.1077 55.7121 48.6723 55.1197 50.0092 54.7968L50.0212 54.7788C50.1577 54.8624 50.3299 54.9366 50.541 54.9942L50.5504 55.0189C50.3888 55.0867 50.2622 55.1631 50.1632 55.245L50.1517 55.2317C48.6135 55.6237 47.0933 56.9702 46.6895 58.7319C46.6191 58.5464 46.5313 58.3733 46.4276 58.2099C46.44 58.1054 46.4477 57.9997 46.4575 57.8935Z" fill="#095195"/>
<path id="Vector_33" d="M45.8486 54.7851C45.8328 54.712 45.8139 54.639 45.7918 54.5631C47.5492 52.1317 43.5822 46.4482 42.3769 48.7085C41.7299 48.0205 41.8624 46.9566 42.503 46.3812C42.5797 46.3098 42.6629 46.2473 42.7543 46.1952C42.8023 46.1683 42.8503 46.1414 42.9 46.119C42.5084 45.7513 41.7313 44.9833 41.2686 44.2218C41.0148 43.806 40.8565 43.3917 40.9091 43.0429C40.9423 42.8027 41.0772 42.5961 41.3487 42.4462C41.4579 42.3809 41.5909 42.3284 41.7535 42.2853C41.6813 42.1902 41.602 42.077 41.5237 41.9529C40.9991 41.1205 40.4637 39.7375 41.0891 38.9719C41.1605 38.8869 41.2446 38.8106 41.3445 38.7427C40.367 37.4516 40.3942 33.6003 42.8923 34.4664C42.9143 34.4746 42.9615 34.497 43.0215 34.528C43.0133 34.6146 43.0129 34.7023 43.0094 34.7903C42.5688 34.8805 42.0099 35.2659 42.102 36.6808C42.2218 38.5469 42.7911 40.2839 43.7851 42.019C43.8037 42.0536 45.6121 45.1461 46.3925 47.1132C48.212 51.6968 47.829 55.8036 46.4088 60.3047C46.1982 60.2455 45.9892 60.1877 45.7869 60.1419C46.6176 58.5168 46.2753 56.5366 45.8486 54.7851Z" fill="#8DD4DA"/>
<path id="Vector_34" d="M48.6027 50.6508L48.5812 50.6383C48.4347 50.9603 48.2428 51.2397 48.0282 51.4109C47.6635 51.7039 47.2249 51.6749 46.7997 50.972C46.616 50.6686 45.9055 46.9871 44.5786 48.5373C44.5937 46.5045 47.23 46.5967 47.6063 48.443C47.6624 47.2827 48.7537 45.8114 49.621 45.0618C50.3775 45.8301 50.7138 47.763 50.6125 48.5217C51.4314 47.3625 53.7328 46.7833 53.8559 49.2621C52.4096 46.9104 50.3924 53.0512 49.0826 51.6342C48.9078 51.4515 48.7475 51.1364 48.6027 50.6508Z" fill="#095195"/>
<path id="Vector_35" d="M51.6187 55.4968C51.8784 55.5535 52.1735 55.4656 52.3841 55.2438C52.4003 55.2251 52.417 55.2085 52.4328 55.1876L52.4353 55.1893C52.6579 55.3266 52.8196 55.4694 52.9305 55.6136C53.754 56.6707 51.9301 57.763 51.6481 56.2094L51.6341 56.2056C51.6737 56.038 51.6869 55.8269 51.6694 55.5731L51.6187 55.4968Z" fill="#095195"/>
<path id="Vector_36" d="M52.4305 55.1902C52.688 54.8704 52.6799 54.4196 52.4036 54.1578L52.4547 54.1032C52.5733 54.0085 52.6914 53.9449 52.8031 53.9048C53.9366 53.4962 54.6361 55.5406 52.9631 55.5915L52.9307 55.6179C52.8173 55.4721 52.6557 55.3292 52.4356 55.1936L52.4305 55.1902Z" fill="#095195"/>
<path id="Vector_37" d="M51.0342 54.7942L51.0935 54.7912C51.1037 54.9643 51.1767 55.1293 51.3076 55.2517C51.398 55.3379 51.511 55.3929 51.6275 55.4206L51.6765 55.4995C51.694 55.7532 51.6804 55.9622 51.6412 56.1319C51.3052 57.5896 49.1319 56.0485 50.1758 55.1699C50.2747 55.088 50.4014 55.0117 50.563 54.9439C50.6935 54.8867 50.8521 54.8372 51.0342 54.7942Z" fill="#095195"/>
<path id="Vector_38" d="M52.4037 54.1575C52.1602 53.9268 51.7849 53.9131 51.4894 54.0987L51.4514 54.0419C51.3653 53.8884 51.3102 53.7464 51.2812 53.6125C50.9656 52.2453 53.3243 51.9863 52.7811 53.8602L52.8011 53.905C52.6894 53.9451 52.5713 54.0086 52.4527 54.1033L52.4037 54.1575Z" fill="#095195"/>
<path id="Vector_39" d="M51.4886 54.0975C51.4254 54.1367 51.3683 54.1836 51.315 54.2387C51.147 54.4186 51.0668 54.6498 51.0835 54.866L51.0242 54.869C50.8421 54.9121 50.6835 54.9616 50.553 55.0187L50.5436 54.994C50.3321 54.9343 50.1602 54.8622 50.0237 54.7786C48.8411 54.055 50.2722 52.5623 51.2787 53.6139L51.2808 53.6135C51.3099 53.7474 51.3649 53.8894 51.451 54.0429L51.4886 54.0975Z" fill="#095195"/>
<path id="Vector_40" d="M45.56 46.6194L45.5588 46.6122C45.5424 46.3284 45.522 46.0464 45.4991 45.7616C45.4771 45.4894 45.4528 45.2154 45.4266 44.9428C45.4008 44.667 45.3743 44.3923 45.3474 44.1156C45.2243 42.8394 45.2876 41.3954 46.7177 40.9602C46.5827 42.726 49.0158 41.8333 47.9138 40.3878C47.1591 39.397 45.6705 39.8823 45.0831 41.1864C44.7993 41.8151 44.7191 42.6221 44.6587 43.2921C44.3189 41.5109 45.1144 38.7078 46.3318 37.5037C46.3202 37.0579 46.4226 36.6016 46.6518 36.1804C46.6731 36.1429 46.6933 36.1045 46.716 36.0689L46.7138 36.0682C46.0492 36.634 45.2809 37.5586 44.926 38.3084C44.1757 39.89 44.1096 42.1537 44.2682 43.8664C44.411 45.4077 44.4748 46.315 44.8265 47.8746L44.8353 47.8763C44.8852 47.4044 45.0952 46.7211 45.56 46.6194Z" fill="#8DD4DA"/>
<path id="Vector_41" d="M48.3412 42.6954L48.3629 42.6663C48.3178 42.5868 48.3029 42.5097 48.3115 42.434L48.29 42.4323C46.8669 42.3676 45.4213 43.737 45.4245 44.9429C45.4509 45.2165 45.4751 45.4894 45.497 45.7617C45.8202 42.8303 48.0094 42.723 48.3412 42.6954Z" fill="#095195"/>
<path id="Vector_42" d="M48.3638 42.6671C48.4226 42.7719 48.5368 42.8781 48.7161 42.9862C49.3757 43.3795 50.6995 42.4325 50.8569 43.5003C51.1924 43.1952 51.1616 42.6146 50.6929 42.4951C51.0677 42.4392 51.5488 42.0525 51.7663 41.7267C51.3396 41.4199 51.029 41.3707 50.5682 41.5153C51.1548 40.9594 50.7725 40.4277 50.1799 40.3607C50.6335 40.7277 50.1212 41.144 49.7454 41.3465C49.3237 41.5737 48.3692 41.9722 48.3126 42.4358C48.3026 42.5096 48.3177 42.5877 48.3638 42.6671Z" fill="#CCAD62"/>
<path id="Vector_43" d="M46.3314 37.5045C46.3548 38.4174 46.8502 39.291 47.71 39.7581C48.8762 40.3908 50.3091 40.0549 51.0807 39.0225C51.1561 38.9209 51.2253 38.8138 51.287 38.6996C51.3495 38.5842 51.4022 38.4672 51.4462 38.3495C51.8903 37.1403 51.3926 35.7556 50.2284 35.1226C48.9861 34.4474 47.441 34.8742 46.7158 36.0707C46.6931 36.1063 46.6717 36.1438 46.6516 36.1822C46.4222 36.6023 46.3197 37.0576 46.3314 37.5045ZM49.0933 36.2536C49.2474 34.7998 51.0321 35.7699 49.8957 36.6889C51.0321 35.7699 51.6084 37.7166 50.1547 37.5637C51.6084 37.7166 50.6384 39.5025 49.7193 38.365C50.6383 39.5014 48.6905 40.0779 48.8435 38.6242C48.6905 40.0779 46.9059 39.1088 48.0411 38.1889C46.9059 39.1088 46.3295 37.161 47.7831 37.314C46.3296 37.162 47.2984 35.3754 48.2186 36.5126C47.2996 35.3762 49.2475 34.8008 49.0933 36.2536Z" fill="#095195"/>
<path id="Vector_44" d="M48.2208 36.5127C47.3008 35.3765 46.3319 37.1621 47.7853 37.3141C46.3319 37.1621 46.9081 39.1089 48.0433 38.189C46.9081 39.1089 48.6927 40.078 48.8457 38.6243C48.6927 40.078 50.6405 39.5015 49.7215 38.3651C50.6405 39.5015 51.6106 37.7167 50.157 37.5638C51.6106 37.7167 51.0342 35.769 49.898 36.689C51.0344 35.77 49.2496 34.7999 49.0956 36.2537C49.2487 34.8011 47.3008 35.3765 48.2208 36.5127ZM49.2547 36.9169C49.5439 37.0736 49.6508 37.4357 49.4931 37.7251C49.3364 38.0143 48.9741 38.1202 48.6859 37.9633C48.3967 37.8066 48.29 37.4456 48.4465 37.1553C48.6042 36.8659 48.9653 36.7592 49.2547 36.9169Z" fill="#CCAD62"/>
<path id="Vector_45" d="M45.582 62.9076C46.1523 60.5091 45.8729 57.9054 44.6889 55.732C44.6084 55.5839 44.5162 55.4339 44.4122 55.2868C43.3005 53.7068 40.9639 52.2634 38.7242 51.9472C37.1556 51.7279 35.6357 52.057 34.6179 53.2733C33.2714 54.8802 34.3055 58.7762 36.8231 57.8926C38.9641 57.1392 37.4018 54.403 35.7578 55.7709C35.4049 54.5877 36.0455 53.7123 37.0826 53.3445C39.8031 52.3781 42.9127 54.6771 44.2458 56.9359C45.4092 58.9085 45.2239 60.9912 44.7062 63.0807C44.6822 63.1831 44.6522 63.287 44.6264 63.3884C44.9128 63.1679 45.2391 63.0073 45.582 62.9076Z" fill="#8DD4DA"/>
<path id="Vector_46" d="M47.5027 58.9599C46.5784 59.7797 44.4129 61.3421 44.5454 62.5406C44.5668 62.7361 44.651 62.9234 44.8113 63.0948C45.0214 63.323 45.3713 63.524 45.8877 63.6877C47.7767 64.2879 50.5437 61.1286 51.5703 63.7197C52.2345 62.7553 51.8141 61.3154 50.5651 61.2891C50.9761 61.1274 51.3972 60.7772 51.7709 60.3614C52.2283 59.8553 52.6138 59.2451 52.8075 58.7242C51.9256 58.3584 51.2633 58.2854 50.5761 58.4894C50.2858 58.5773 49.99 58.7084 49.6732 58.899C50.817 57.1557 49.5448 56.0437 48.014 56.2255C49.3694 56.882 48.3267 58.2274 47.5027 58.9599Z" fill="#CCAD62"/>
</g>
<defs>
<filter id="filter0_d_1416_10685" x="0.0244141" y="0.34082" width="126.606" height="129.65" filterUnits="userSpaceOnUse" color-interpolation-filters="sRGB">
<feFlood flood-opacity="0" result="BackgroundImageFix"/>
<feColorMatrix in="SourceAlpha" type="matrix" values="0 0 0 0 0 0 0 0 0 0 0 0 0 0 0 0 0 0 127 0" result="hardAlpha"/>
<feOffset/>
<feGaussianBlur stdDeviation="17"/>
<feComposite in2="hardAlpha" operator="out"/>
<feColorMatrix type="matrix" values="0 0 0 0 0 0 0 0 0 0 0 0 0 0 0 0 0 0 0.15 0"/>
<feBlend mode="normal" in2="BackgroundImageFix" result="effect1_dropShadow_1416_10685"/>
<feBlend mode="normal" in="SourceGraphic" in2="effect1_dropShadow_1416_10685" result="shape"/>
</filter>
</defs>
</svg>
