<svg width="128" height="130" viewBox="0 0 128 130" fill="none" xmlns="http://www.w3.org/2000/svg">
<g id="patern" filter="url(#filter0_d_3602_16497)">
<g id="Group">
<g id="Group_2">
<g id="Group_3">
<path id="Vector" d="M79.8639 66.9934C80.0854 64.176 81.9178 58.8914 85.7706 60.9762C87.1669 61.7294 87.8143 64.5012 85.9596 65.3144C83.8879 66.2245 83.4734 63.4125 85.3823 63.244C84.6473 62.5085 83.7079 62.6001 82.8444 63.1579C79.9493 65.0266 79.9942 70.039 81.5801 72.4713C81.4786 72.6351 81.4041 72.8301 81.3599 73.053L81.3533 72.9625C79.7935 71.5619 79.7473 69.2632 79.848 67.226C79.8517 67.1513 79.8553 67.0733 79.8639 66.9934Z" fill="#8DD4DA"/>
</g>
<g id="Group_4">
<path id="Vector_2" d="M67.5462 80.2359C67.6255 80.2208 67.7032 80.2107 67.7775 80.2008C69.8056 79.9302 72.1124 79.7852 73.6413 81.2191L73.6467 81.2436C73.4622 81.3053 73.303 81.3869 73.1705 81.4866C70.6039 80.1126 65.584 80.4823 63.9548 83.5146C63.4684 84.418 63.4547 85.3581 64.2515 86.0267C64.2617 84.1178 67.1092 84.296 66.3723 86.4296C65.711 88.3366 62.886 87.9254 62.0167 86.6019C59.6129 82.9452 64.7477 80.6878 67.5462 80.2359Z" fill="#8DD4DA"/>
</g>
</g>
<g id="Group_5">
<path id="Vector_3" d="M84.0492 73.8653C84.654 73.6383 85.2824 73.7295 85.765 74.4066C86.89 75.982 84.1803 77.919 83.7692 75.3245C83.4852 75.3994 83.1645 75.6524 82.9593 76.1577C82.5281 77.2178 83.0336 78.7429 83.635 79.5778L83.5933 79.66C83.3642 79.5476 83.1353 79.4483 82.9083 79.3639L82.9226 79.3315C81.9927 78.1042 81.8539 77.2605 82.0341 76.2666C82.1929 75.3768 83.0918 74.2213 84.0492 73.8653Z" fill="#CCAD62"/>
<path id="Vector_4" d="M82.0336 72.093C83.0273 71.8145 83.9187 72.653 84.0282 73.8042L84.0283 73.8109C83.0676 74.1687 82.1655 75.3299 82.0043 76.2227C81.8217 77.2234 81.9644 78.0711 82.8957 79.3031L82.8813 79.3357C82.5262 79.1993 82.1716 79.0961 81.8243 79.0258L81.8274 79.0156C79.8425 77.1922 80.0656 74.2814 80.8495 73.0181C80.9224 72.9018 80.9989 72.7986 81.0806 72.7133C81.2097 72.5766 81.3376 72.4617 81.4692 72.3698C81.6616 72.2356 81.8497 72.1434 82.0336 72.093Z" fill="#8DD4DA"/>
<path id="Vector_5" d="M82.2988 83.2703C81.656 82.7953 80.7662 81.2972 81.0801 80.4803C81.8729 80.1014 83.4471 80.86 83.9767 81.4574C83.8072 80.8085 83.7316 80.2519 83.8112 79.7114C83.8954 79.146 84.1448 78.6058 84.6305 78.0042C87.0313 75.0125 91.2274 77.7333 88.639 80.0789C87.6393 80.9852 85.7544 79.9844 87.0925 78.5386C85.5388 78.483 83.9101 80.2796 85.4098 82.8294L85.4272 82.8776C85.3356 82.9197 85.2509 82.9811 85.1781 83.0598L84.0035 84.3289C83.9307 84.4076 83.8762 84.4966 83.8415 84.5908L83.7902 84.5761C81.1093 83.3024 79.4454 85.0668 79.6302 86.598C80.9667 85.154 82.1267 86.9348 81.3013 88.0037C79.1651 90.7596 76.0887 86.829 78.8898 84.2035C79.4509 83.6741 79.9766 83.3801 80.5331 83.25C81.0716 83.1259 81.6358 83.1545 82.2988 83.2703Z" fill="#095195"/>
<path id="Vector_6" d="M77.0563 72.6327C77.4221 69.7569 79.7408 70.2509 80.6342 72.3651C80.709 72.5394 80.7724 72.7263 80.8259 72.9238L80.8445 72.9343C80.0586 74.2042 79.8325 77.1361 81.8262 78.9717L81.8231 78.982C81.2761 78.8673 80.7456 78.8302 80.2348 78.8739L80.2346 78.8638C79.7279 77.3759 78.621 74.2051 77.053 72.6329L77.0546 72.6311L77.0563 72.6327Z" fill="#095195"/>
<path id="Vector_7" d="M75.2046 71.5958C75.8915 71.589 76.5227 71.9495 77.0906 72.5217C78.6567 74.0953 79.7651 77.2634 80.2717 78.7509L80.2719 78.761C80.0065 78.7835 79.7465 78.8274 79.4952 78.8925L79.4553 78.9019C79.4081 79.1747 79.3845 79.4559 79.386 79.7439L79.3593 79.7457C77.8134 79.3568 74.4978 78.4982 72.8233 77.0324C72.2414 76.5263 71.8572 75.9453 71.8093 75.2885C71.7625 74.6031 72.2252 73.6028 72.815 72.8051C73.5611 72.1513 74.5179 71.6059 75.2046 71.5958Z" fill="#CCAD62"/>
<path id="Vector_8" d="M83.7356 79.6244L83.789 79.6309C83.7084 80.1755 83.783 80.7416 83.9558 81.4012C83.4211 80.7954 81.8301 80.0278 81.0311 80.41C80.714 81.2383 81.6122 82.7574 82.2612 83.239C81.5901 83.1201 81.0204 83.0943 80.4833 83.2196L80.4724 83.167C80.4604 83.1462 80.4484 83.1286 80.4381 83.1093C80.3062 82.8899 80.1892 82.6679 80.0872 82.4466C79.9249 82.101 79.7958 81.7566 79.6968 81.4135C79.5446 80.8841 79.4691 80.363 79.4655 79.8588C79.4639 79.5726 79.4874 79.2931 79.5344 79.0219L79.5742 79.0127C79.8244 78.9479 80.0816 78.906 80.3475 78.8818C80.8561 78.8384 81.3843 78.8752 81.9289 78.9892C82.2763 79.0595 82.6293 79.1645 82.9861 79.2992C83.2139 79.384 83.4436 79.4838 83.6736 79.5968C83.6953 79.6037 83.7172 79.614 83.7356 79.6244Z" fill="#CCAD62"/>
<path id="Vector_9" d="M85.7729 82.8868C85.966 82.8758 86.1586 82.9356 86.3097 83.0739C86.5262 83.2721 86.5892 83.5726 86.4997 83.8436C86.4685 83.9477 86.4091 84.0488 86.3297 84.1347L85.1525 85.4076C85.073 85.4935 84.9767 85.5608 84.875 85.6004C84.611 85.7116 84.3048 85.6741 84.0883 85.4759C83.865 85.2716 83.8034 84.9561 83.9076 84.6792C83.9423 84.5847 83.997 84.4955 84.0699 84.4166L85.2471 83.1437C85.3201 83.0648 85.4049 83.0032 85.4967 82.961C85.5818 82.9192 85.6772 82.8931 85.7729 82.8868Z" fill="#8DD4DA"/>
<path id="Vector_10" d="M86.5874 83.9044C89.0652 82.9216 88.1533 86.7618 88.9392 87.733C87.9031 87.0332 84.1472 88.2567 84.923 85.7099L84.909 85.6709C85.0132 85.629 85.1087 85.5628 85.1888 85.4759L86.3758 84.1882C86.4575 84.0995 86.5158 83.999 86.5473 83.8937L86.5874 83.9044Z" fill="#095195"/>
<path id="Vector_11" d="M79.4355 79.6909L79.4622 79.6891C79.4641 80.1951 79.5416 80.7211 79.6944 81.254L79.6795 81.26C77.6856 79.4242 74.778 79.8973 73.5761 80.7875L73.5641 80.7698C73.3679 80.7342 73.1832 80.686 73.0049 80.6274C70.8061 79.911 70.056 77.5793 72.8979 76.9765L72.8995 76.9747C74.5728 78.4429 77.8892 79.3018 79.4355 79.6909Z" fill="#095195"/>
<path id="Vector_12" d="M72.8083 82.0538C72.8355 81.8922 72.8959 81.725 72.9911 81.5506C73.0799 81.39 73.1969 81.2258 73.3472 81.0594C73.4256 80.971 73.5223 80.8864 73.6324 80.8042C74.829 79.9197 77.7237 79.4495 79.7089 81.2733L79.7238 81.2673C79.8229 81.6104 79.9519 81.9548 80.1143 82.3004L80.078 82.3194C78.769 81.4933 77.9106 81.4249 76.9281 81.6877C76.093 81.9092 75.07 82.8189 74.7348 83.7549L74.7264 83.7504C73.5761 83.7379 72.6433 83.0152 72.8083 82.0538Z" fill="#8DD4DA"/>
<path id="Vector_13" d="M80.0984 82.3494L80.1346 82.3304C80.2362 82.5506 80.3544 82.7697 80.4842 82.9897L80.4054 83.038C79.5207 82.5099 77.9537 82.1344 76.9295 82.6505C76.4411 82.8963 76.2132 83.2375 76.1634 83.524C78.7936 83.7186 77.0814 86.567 75.411 85.5822C74.6387 85.1246 74.5324 84.4443 74.7731 83.7793C75.1087 82.8498 76.1279 81.9448 76.9583 81.7229C77.9388 81.4597 78.7924 81.5294 80.0984 82.3494Z" fill="#CCAD62"/>
</g>
</g>
<path id="Vector_14" d="M58.8738 83.5833L58.8348 83.5868C56.9677 82.6297 53.6131 81.8403 51.6424 82.165L51.6394 82.1688C51.4586 81.9623 51.1688 81.7842 50.8424 81.6516L50.8538 81.6296C51.3324 81.4628 51.6399 81.2883 51.8162 81.1093L51.8503 81.1368C53.6606 81.6989 56.9531 82.3421 59.1344 82.983L59.14 82.99C58.9317 83.1668 58.8537 83.3724 58.8738 83.5833Z" fill="#095195"/>
<path id="Vector_15" d="M58.183 83.4415C55.9743 82.8912 55.3113 81.3551 54.9279 80.0343L54.9094 80.0232C54.9867 79.8831 55.053 79.7076 55.1009 79.4941L55.1252 79.4836C55.2003 79.6419 55.2823 79.765 55.3686 79.8601L55.3559 79.8722C55.8175 81.391 57.2317 82.8483 59.01 83.1715C58.8279 83.2502 58.6589 83.3459 58.5005 83.4569C58.3956 83.4493 58.2896 83.4464 58.183 83.4415Z" fill="#095195"/>
<path id="Vector_16" d="M55.1066 84.1916C55.0343 84.2108 54.9622 84.2329 54.8874 84.2585C52.3786 82.6135 46.8815 86.8351 49.1944 87.9362C48.5365 88.6139 47.4677 88.53 46.8637 87.9162C46.7889 87.8429 46.7227 87.7626 46.6665 87.6737C46.6374 87.627 46.6083 87.5802 46.5837 87.5316C46.2342 87.9395 45.5024 88.7507 44.7627 89.2476C44.3589 89.5201 43.9523 89.6971 43.6014 89.6604C43.3599 89.6381 43.1475 89.5128 42.9853 89.2485C42.9152 89.1423 42.8566 89.0119 42.8061 88.8513C42.7144 88.9279 42.6049 89.0122 42.4846 89.096C41.6769 89.658 40.3198 90.2558 39.5264 89.6659C39.4383 89.5985 39.3582 89.5179 39.2858 89.4212C38.0406 90.4565 34.1921 90.6045 34.9435 88.0696C34.9507 88.0473 34.9709 87.9991 34.9992 87.9377C35.086 87.942 35.1738 87.9384 35.2617 87.9379C35.372 88.3739 35.7823 88.9147 37.1916 88.7583C39.0503 88.5537 40.7596 87.906 42.4477 86.834C42.4814 86.8139 45.4884 84.8665 47.4179 83.9975C51.914 81.9712 56.034 82.1669 60.595 83.3807C60.5454 83.5938 60.4972 83.8053 60.4607 84.0095C58.7995 83.2536 56.8368 83.6856 55.1066 84.1916Z" fill="#8DD4DA"/>
<path id="Vector_17" d="M50.8508 81.6282L50.8394 81.6502C51.1677 81.7819 51.4555 81.9609 51.6364 82.1675C51.9456 82.5185 51.9366 82.958 51.2538 83.4147C50.9591 83.612 47.3137 84.4894 48.9227 85.7443C46.8913 85.8218 46.8635 83.1839 48.6907 82.724C47.5291 82.7208 46.0096 81.6976 45.2213 80.8653C45.9544 80.0746 47.87 79.6508 48.6325 79.7173C47.4372 78.9521 46.7539 76.6795 49.2245 76.4436C46.9411 77.9955 53.1673 79.7311 51.8114 81.104C51.6369 81.2869 51.3293 81.4614 50.8508 81.6282Z" fill="#095195"/>
<path id="Vector_18" d="M55.5562 78.3962C55.6011 78.1342 55.4998 77.8434 55.2687 77.643C55.2492 77.6277 55.2319 77.6118 55.2103 77.597L55.2119 77.5944C55.3389 77.3658 55.4742 77.1978 55.6132 77.0804C56.6317 76.2096 57.8059 77.9819 56.2668 78.3343L56.2636 78.3486C56.0943 78.3166 55.8829 78.313 55.6302 78.342L55.5562 78.3962Z" fill="#095195"/>
<path id="Vector_19" d="M55.2114 77.5988C54.8802 77.3561 54.4302 77.3847 54.1812 77.6727L54.1244 77.6241C54.0244 77.51 53.9555 77.3948 53.9104 77.2851C53.4506 76.1713 55.4611 75.3795 55.588 77.0484L55.6159 77.0796C55.4754 77.1996 55.34 77.3675 55.2146 77.5936L55.2114 77.5988Z" fill="#095195"/>
<path id="Vector_20" d="M54.879 79.0117L54.8733 78.9526C55.0458 78.9345 55.2073 78.8541 55.3236 78.7177C55.4056 78.6235 55.4554 78.5081 55.4778 78.3905L55.5543 78.3379C55.807 78.3089 56.0164 78.313 56.1877 78.3445C57.6592 78.6137 56.2186 80.855 55.2934 79.8521C55.2071 79.757 55.1251 79.634 55.05 79.4756C54.987 79.3478 54.9303 79.1916 54.879 79.0117Z" fill="#095195"/>
<path id="Vector_21" d="M54.1811 77.6722C53.9617 77.926 53.9652 78.3015 54.164 78.5883L54.1091 78.6288C53.9596 78.7218 53.8203 78.7833 53.6878 78.8183C52.3364 79.1959 51.9703 76.8514 53.867 77.3087L53.9108 77.2867C53.9559 77.3965 54.0248 77.5116 54.1248 77.6257L54.1811 77.6722Z" fill="#095195"/>
<path id="Vector_22" d="M54.1626 78.5894C54.2046 78.6507 54.2541 78.7056 54.3115 78.7564C54.4989 78.916 54.7335 78.9856 54.9487 78.9591L54.9544 79.0182C55.0057 79.1981 55.0624 79.3544 55.1254 79.4821L55.1011 79.4926C55.0511 79.7066 54.987 79.8816 54.9097 80.0218C54.2406 81.2361 52.6844 79.8744 53.689 78.8211L53.6885 78.819C53.821 78.7839 53.9603 78.7225 54.1098 78.6294L54.1626 78.5894Z" fill="#095195"/>
<path id="Vector_23" d="M46.9631 84.8519L46.9559 84.8534C46.6732 84.8827 46.3924 84.9159 46.1089 84.9518C45.838 84.9861 45.5654 85.0229 45.2943 85.0615C45.0199 85.0997 44.7468 85.1388 44.4716 85.1782C43.2023 85.3593 41.7569 85.3618 41.2571 83.9529C43.0272 84.0075 42.0246 81.6175 40.6308 82.7841C39.6754 83.5831 40.2279 85.0481 41.5574 85.5756C42.1984 85.8305 43.0082 85.8738 43.6803 85.9037C41.9163 86.3242 39.08 85.6571 37.8217 84.4958C37.3769 84.5276 36.9164 84.4461 36.4852 84.2363C36.4468 84.2167 36.4075 84.1983 36.3709 84.1772L36.3703 84.1795C36.9657 84.8177 37.9244 85.5431 38.6895 85.8635C40.3037 86.5411 42.568 86.504 44.2717 86.2677C45.805 86.0549 46.7083 85.9498 48.2504 85.5275L48.2517 85.5186C47.7779 85.4903 47.0858 85.3116 46.9631 84.8519Z" fill="#8DD4DA"/>
<path id="Vector_24" d="M42.9158 82.252L42.8858 82.2317C42.8084 82.2803 42.732 82.2988 42.656 82.2936L42.6553 82.3151C42.6554 83.7397 44.0892 85.1214 45.2937 85.0634C45.5658 85.0246 45.8374 84.988 46.1083 84.9537C43.1653 84.7643 42.9585 82.5822 42.9158 82.252Z" fill="#095195"/>
<path id="Vector_25" d="M42.8861 82.2313C42.9881 82.1678 43.089 82.0488 43.1888 81.8648C43.5517 81.188 42.5454 79.9087 43.605 79.7028C43.2849 79.3816 42.7063 79.4388 42.6083 79.9124C42.5353 79.5405 42.1272 79.0775 41.7918 78.8751C41.5047 79.3153 41.4698 79.6278 41.6351 80.0816C41.0531 79.5209 40.5393 79.927 40.4994 80.5221C40.8454 80.0522 41.2845 80.545 41.504 80.9113C41.7501 81.3221 42.1917 82.2575 42.6573 82.293C42.7315 82.2996 42.8089 82.2809 42.8861 82.2313Z" fill="#CCAD62"/>
<path id="Vector_26" d="M37.8207 84.4959C38.7316 84.4309 39.5818 83.8962 40.0093 83.0161C40.5882 81.8223 40.1874 80.4062 39.121 79.6824C39.016 79.6117 38.906 79.5474 38.7891 79.491C38.6709 79.4338 38.5516 79.3865 38.4321 79.3478C37.2039 78.9593 35.8433 79.5194 35.2639 80.7113C34.646 81.983 35.1426 83.5071 36.3709 84.1771C36.4075 84.1982 36.446 84.2178 36.4852 84.2362C36.9153 84.4462 37.3748 84.5279 37.8207 84.4959ZM36.4454 81.7937C34.9861 81.706 35.874 79.8789 36.8438 80.9723C35.874 79.8789 37.7925 79.2147 37.7058 80.6738C37.7925 79.2147 39.6206 80.1023 38.5262 81.0723C39.6196 80.1025 40.2841 82.0221 38.825 81.9354C40.2841 82.0221 39.3972 83.8489 38.4266 82.7568C39.3972 83.8489 37.4777 84.5134 37.5644 83.0543C37.4787 84.5132 35.6498 83.6268 36.744 82.6558C35.6506 83.6255 34.9871 81.7058 36.4454 81.7937Z" fill="#095195"/>
<path id="Vector_27" d="M36.7447 82.6541C35.6515 83.6249 37.4794 84.5115 37.5651 83.0526C37.4794 84.5115 39.3979 83.8472 38.4273 82.7551C39.3979 83.8472 40.2848 82.0204 38.8257 81.9337C40.2848 82.0204 39.6203 80.1009 38.5269 81.0706C39.6203 80.1009 37.7932 79.213 37.7065 80.6721C37.7932 79.213 35.8737 79.8775 36.8445 80.9706C35.8747 79.8772 34.9868 81.7043 36.4461 81.792C34.9881 81.7051 35.6515 83.6249 36.7447 82.6541ZM37.1014 81.6029C37.2448 81.3069 37.6017 81.1836 37.8979 81.328C38.194 81.4713 38.3162 81.8284 38.1726 82.1234C38.0293 82.4195 37.6734 82.5425 37.3764 82.3994C37.0801 82.255 36.9571 81.8991 37.1014 81.6029Z" fill="#CCAD62"/>
<path id="Vector_28" d="M37.4019 82.3579C37.6979 82.5013 38.0548 82.378 38.1981 82.082C38.3415 81.786 38.2185 81.4301 37.9234 81.2865C37.6274 81.1432 37.2706 81.2664 37.127 81.5615C36.9834 81.8565 37.1056 82.2135 37.4019 82.3579Z" fill="white"/>
<path id="Vector_29" d="M63.2325 84.0877C60.8105 83.6272 58.2222 84.0248 56.105 85.3065C55.9607 85.3937 55.8151 85.4925 55.6729 85.6032C54.145 86.7856 52.8095 89.1855 52.5955 91.4373C52.4478 93.0142 52.8458 94.5175 54.1071 95.479C55.7737 96.7509 59.6186 95.5406 58.6213 93.0658C57.7712 90.9613 55.109 92.6465 56.5503 94.2266C55.3844 94.6329 54.4807 94.0328 54.0661 93.0135C52.9769 90.3398 55.132 87.1289 57.3277 85.6943C59.2454 84.4424 61.3343 84.5327 63.4453 84.9547C63.5487 84.974 63.6539 84.9992 63.7562 85.0205C63.523 84.7444 63.3477 84.4257 63.2325 84.0877Z" fill="#8DD4DA"/>
<path id="Vector_30" d="M59.2013 82.3494C60.0623 83.2355 61.7216 85.3277 62.9128 85.1407C63.1072 85.1104 63.2905 85.0178 63.4544 84.8498C63.6728 84.6295 63.8577 84.2709 63.9977 83.7476C64.5113 81.8332 61.2293 79.2129 63.771 78.0694C62.7774 77.4498 61.3582 77.9353 61.3887 79.1842C61.2085 78.781 60.8395 78.3763 60.4071 78.0219C59.8807 77.588 59.2536 77.2306 58.7244 77.0609C58.3991 77.9585 58.3564 78.6235 58.5914 79.3006C58.6925 79.5866 58.8368 79.8761 59.0417 80.184C57.2481 79.1207 56.1952 80.4422 56.4465 81.9632C57.0406 80.5792 58.432 81.5597 59.2013 82.3494Z" fill="#CCAD62"/>
<path id="Vector_31" d="M81.1918 58.576L81.1936 58.5368C80.1524 56.7152 79.2112 53.4 79.4459 51.4166L79.4496 51.4134C79.235 51.2421 79.0439 50.9608 78.8965 50.6408L78.8751 50.6532C78.7302 51.1388 78.5699 51.454 78.3992 51.6382L78.4281 51.6711C79.0721 53.4539 79.8645 56.7137 80.604 58.8636L80.6112 58.8689C80.7784 58.6527 80.9803 58.5654 81.1918 58.576Z" fill="#095195"/>
<path id="Vector_32" d="M81.0196 57.8932C80.3694 55.7119 78.8047 55.1194 77.4678 54.7965L77.4559 54.7786C77.3194 54.8622 77.1471 54.9364 76.936 54.9939L76.9266 55.0187C77.0882 55.0865 77.2149 55.1628 77.3138 55.2447L77.3253 55.2315C78.8635 55.6235 80.3838 56.9699 80.7875 58.7316C80.8579 58.5461 80.9458 58.373 81.0494 58.2097C81.0371 58.1052 81.0294 57.9994 81.0196 57.8932Z" fill="#095195"/>
<path id="Vector_33" d="M81.629 54.7851C81.6448 54.712 81.6637 54.639 81.6858 54.5631C79.9283 52.1317 83.8953 46.4482 85.1006 48.7085C85.7476 48.0205 85.6152 46.9566 84.9745 46.3812C84.8979 46.3098 84.8147 46.2473 84.7232 46.1952C84.6753 46.1683 84.6273 46.1414 84.5776 46.119C84.9692 45.7513 85.7462 44.9833 86.2089 44.2218C86.4627 43.806 86.621 43.3917 86.5684 43.0429C86.5352 42.8027 86.4004 42.5961 86.1289 42.4462C86.0196 42.3809 85.8867 42.3284 85.724 42.2853C85.7963 42.1902 85.8756 42.077 85.9538 41.9529C86.4784 41.1205 87.0139 39.7375 86.3885 38.9719C86.3171 38.8869 86.233 38.8106 86.1331 38.7427C87.1106 37.4516 87.0833 33.6003 84.5852 34.4664C84.5632 34.4746 84.516 34.497 84.456 34.528C84.4642 34.6146 84.4647 34.7023 84.4682 34.7903C84.9087 34.8805 85.4676 35.2659 85.3755 36.6808C85.2557 38.5469 84.6865 40.2839 83.6924 42.019C83.6738 42.0536 81.8654 45.1461 81.0851 47.1132C79.2656 51.6968 79.6485 55.8036 81.0687 60.3047C81.2793 60.2455 81.4884 60.1877 81.6907 60.1419C80.8599 58.5168 81.2022 56.5366 81.629 54.7851Z" fill="#8DD4DA"/>
<path id="Vector_34" d="M78.8744 50.6505L78.8958 50.6381C79.0424 50.9601 79.2343 51.2395 79.4488 51.4107C79.8135 51.7037 80.2522 51.6747 80.6773 50.9717C80.861 50.6684 81.5716 46.9869 82.8984 48.537C82.8834 46.5042 80.247 46.5965 79.8707 48.4428C79.8147 47.2825 78.7233 45.8112 77.856 45.0616C77.0996 45.8299 76.7633 47.7628 76.8645 48.5215C76.0457 47.3622 73.7443 46.783 73.6211 49.2619C75.0674 46.9102 77.0846 53.051 78.3945 51.6339C78.5692 51.4513 78.7295 51.1361 78.8744 50.6505Z" fill="#095195"/>
<path id="Vector_35" d="M75.8589 55.4968C75.5992 55.5535 75.3041 55.4656 75.0934 55.2438C75.0772 55.2251 75.0606 55.2085 75.0448 55.1876L75.0422 55.1893C74.8196 55.3266 74.658 55.4694 74.5471 55.6136C73.7235 56.6707 75.5474 57.763 75.8294 56.2094L75.8435 56.2056C75.8038 56.038 75.7906 55.8269 75.8081 55.5731L75.8589 55.4968Z" fill="#095195"/>
<path id="Vector_36" d="M75.0471 55.1902C74.7895 54.8704 74.7976 54.4196 75.074 54.1578L75.0228 54.1032C74.9043 54.0085 74.7861 53.9449 74.6744 53.9048C73.5409 53.4962 72.8414 55.5406 74.5144 55.5915L74.5468 55.6179C74.6602 55.4721 74.8219 55.3292 75.0419 55.1936L75.0471 55.1902Z" fill="#095195"/>
<path id="Vector_37" d="M76.4433 54.7939L76.384 54.7909C76.3738 54.9641 76.3009 55.1291 76.1699 55.2515C76.0795 55.3376 75.9665 55.3926 75.8501 55.4204L75.801 55.4992C75.7835 55.753 75.7972 55.9619 75.8364 56.1317C76.1723 57.5893 78.3457 56.0483 77.3017 55.1697C77.2028 55.0878 77.0762 55.0114 76.9145 54.9436C76.784 54.8865 76.6254 54.837 76.4433 54.7939Z" fill="#095195"/>
<path id="Vector_38" d="M75.0738 54.1572C75.3174 53.9265 75.6927 53.9129 75.9882 54.0984L76.0261 54.0417C76.1123 53.8882 76.1673 53.7462 76.1963 53.6123C76.512 52.2451 74.1533 51.9861 74.6965 53.8599L74.6764 53.9047C74.7881 53.9448 74.9063 54.0084 75.0248 54.1031L75.0738 54.1572Z" fill="#095195"/>
<path id="Vector_39" d="M75.9885 54.0972C76.0516 54.1365 76.1088 54.1834 76.1621 54.2384C76.3301 54.4184 76.4102 54.6495 76.3936 54.8658L76.4529 54.8687C76.635 54.9118 76.7936 54.9613 76.9241 55.0185L76.9335 54.9937C77.145 54.934 77.3169 54.862 77.4533 54.7784C78.636 54.0548 77.2048 52.5621 76.1983 53.6137L76.1962 53.6132C76.1672 53.7471 76.1122 53.8891 76.026 54.0427L75.9885 54.0972Z" fill="#095195"/>
<path id="Vector_40" d="M81.9171 46.6192L81.9183 46.6119C81.9347 46.3282 81.955 46.0461 81.978 45.7613C81.9999 45.4891 82.0243 45.2151 82.0505 44.9426C82.0762 44.6667 82.1028 44.3921 82.1297 44.1154C82.2528 42.8392 82.1895 41.3951 80.7593 40.96C80.8944 42.7258 78.4612 41.833 79.5632 40.3875C80.3179 39.3968 81.8066 39.882 82.394 41.1862C82.6778 41.8148 82.7579 42.6219 82.8184 43.2919C83.1581 41.5106 82.3626 38.7076 81.1453 37.5035C81.1568 37.0576 81.0544 36.6013 80.8253 36.1802C80.8039 36.1426 80.7838 36.1043 80.761 36.0687L80.7633 36.068C81.4279 36.6337 82.1962 37.5583 82.5511 38.3081C83.3014 39.8898 83.3674 42.1534 83.2089 43.8662C83.0661 45.4075 83.0022 46.3147 82.6506 47.8744L82.6418 47.8761C82.5919 47.4041 82.3819 46.7209 81.9171 46.6192Z" fill="#8DD4DA"/>
<path id="Vector_41" d="M79.1364 42.6954L79.1147 42.6663C79.1597 42.5868 79.1747 42.5097 79.1661 42.434L79.1876 42.4323C80.6106 42.3676 82.0562 43.737 82.053 44.9429C82.0266 45.2165 82.0025 45.4894 81.9805 45.7617C81.6574 42.8303 79.4682 42.723 79.1364 42.6954Z" fill="#095195"/>
<path id="Vector_42" d="M79.1137 42.6671C79.0549 42.7719 78.9407 42.8781 78.7614 42.9862C78.1018 43.3795 76.7781 42.4325 76.6206 43.5003C76.2852 43.1952 76.3159 42.6146 76.7846 42.4951C76.4098 42.4392 75.9287 42.0525 75.7113 41.7267C76.1379 41.4199 76.4485 41.3707 76.9094 41.5153C76.3227 40.9594 76.7051 40.4277 77.2977 40.3607C76.844 40.7277 77.3563 41.144 77.7322 41.3465C78.1538 41.5737 79.1083 41.9722 79.1649 42.4358C79.1749 42.5096 79.1598 42.5877 79.1137 42.6671Z" fill="#CCAD62"/>
<path id="Vector_43" d="M81.1457 37.5042C81.1222 38.4171 80.6268 39.2908 79.7671 39.7579C78.6008 40.3905 77.168 40.0546 76.3964 39.0223C76.321 38.9206 76.2517 38.8136 76.1901 38.6994C76.1276 38.5839 76.0749 38.4669 76.0308 38.3492C75.5868 37.14 76.0844 35.7553 77.2486 35.1224C78.491 34.4472 80.036 34.8739 80.7612 36.0705C80.784 36.1061 80.8053 36.1436 80.8255 36.1819C81.0548 36.6021 81.1574 37.0573 81.1457 37.5042ZM78.3837 36.2534C78.2297 34.7995 76.4449 35.7697 77.5813 36.6887C76.4449 35.7697 75.8687 37.7164 77.3223 37.5634C75.8687 37.7164 76.8386 39.5022 77.7578 38.3648C76.8388 39.5012 78.7865 40.0776 78.6336 38.624C78.7865 40.0776 80.5712 39.1085 79.436 38.1887C80.5712 39.1085 81.1476 37.1608 79.6939 37.3137C81.1474 37.1618 80.1787 35.3751 79.2585 36.5124C80.1775 35.376 78.2295 34.8006 78.3837 36.2534Z" fill="#095195"/>
<path id="Vector_44" d="M79.2567 36.5127C80.1768 35.3765 81.1457 37.1621 79.6922 37.3141C81.1457 37.1621 80.5694 39.1089 79.4342 38.189C80.5694 39.1089 78.7848 40.078 78.6318 38.6243C78.7848 40.078 76.837 39.5015 77.756 38.3651C76.837 39.5015 75.8669 37.7167 77.3206 37.5638C75.8669 37.7167 76.4433 35.769 77.5796 36.689C76.4432 35.77 78.228 34.7999 78.382 36.2537C78.2288 34.8011 80.1768 35.3765 79.2567 36.5127ZM78.2229 36.9169C77.9337 37.0736 77.8268 37.4357 77.9845 37.7251C78.1412 38.0143 78.5034 38.1202 78.7916 37.9633C79.0808 37.8066 79.1875 37.4456 79.031 37.1553C78.8733 36.8659 78.5122 36.7592 78.2229 36.9169Z" fill="#CCAD62"/>
<path id="Vector_45" d="M81.8955 62.9076C81.3253 60.5091 81.6046 57.9054 82.7886 55.732C82.8692 55.5839 82.9613 55.4339 83.0654 55.2868C84.177 53.7068 86.5136 52.2634 88.7534 51.9472C90.3219 51.7279 91.8418 52.057 92.8596 53.2733C94.2061 54.8802 93.1721 58.7762 90.6545 57.8926C88.5134 57.1392 90.0758 54.403 91.7198 55.7709C92.0726 54.5877 91.432 53.7123 90.3949 53.3445C87.6744 52.3781 84.5648 54.6771 83.2317 56.9359C82.0684 58.9085 82.2537 60.9912 82.7713 63.0807C82.7953 63.1831 82.8253 63.287 82.8512 63.3884C82.5648 63.1679 82.2384 63.0073 81.8955 62.9076Z" fill="#8DD4DA"/>
<path id="Vector_46" d="M79.9743 58.9596C80.8987 59.7794 83.0642 61.3418 82.9317 62.5403C82.9103 62.7359 82.826 62.9231 82.6657 63.0946C82.4556 63.3227 82.1057 63.5237 81.5894 63.6874C79.7004 64.2876 76.9333 61.1283 75.9068 63.7194C75.2425 62.7551 75.6629 61.3152 76.9119 61.2888C76.501 61.1271 76.0799 60.7769 75.7062 60.3612C75.2487 59.8551 74.8632 59.2449 74.6696 58.724C75.5514 58.3581 76.2138 58.2852 76.901 58.4892C77.1913 58.5771 77.487 58.7081 77.8039 58.8988C76.6601 57.1554 77.9323 56.0434 79.4631 56.2253C78.1076 56.8818 79.1504 58.2271 79.9743 58.9596Z" fill="#CCAD62"/>
</g>
<defs>
<filter id="filter0_d_3602_16497" x="0.847168" y="0.34082" width="126.606" height="129.65" filterUnits="userSpaceOnUse" color-interpolation-filters="sRGB">
<feFlood flood-opacity="0" result="BackgroundImageFix"/>
<feColorMatrix in="SourceAlpha" type="matrix" values="0 0 0 0 0 0 0 0 0 0 0 0 0 0 0 0 0 0 127 0" result="hardAlpha"/>
<feOffset/>
<feGaussianBlur stdDeviation="17"/>
<feComposite in2="hardAlpha" operator="out"/>
<feColorMatrix type="matrix" values="0 0 0 0 0 0 0 0 0 0 0 0 0 0 0 0 0 0 0.15 0"/>
<feBlend mode="normal" in2="BackgroundImageFix" result="effect1_dropShadow_3602_16497"/>
<feBlend mode="normal" in="SourceGraphic" in2="effect1_dropShadow_3602_16497" result="shape"/>
</filter>
</defs>
</svg>
