<svg width="129" height="130" viewBox="0 0 129 130" fill="none" xmlns="http://www.w3.org/2000/svg">
<g id="Group 203" filter="url(#filter0_d_3989_2572)">
<g id="Group">
<g id="Group_2">
<g id="Group_3">
<path id="Vector" d="M80.3189 66.9387C80.586 64.1197 82.5092 58.9236 86.3439 61.2695C87.7337 62.1173 88.3397 64.9467 86.4649 65.6445C84.3707 66.4257 83.9992 63.571 85.9181 63.525C85.192 62.7379 84.2475 62.7691 83.3718 63.2742C80.4358 64.9663 80.4015 70.01 81.9549 72.5587C81.8504 72.7168 81.7725 72.9082 81.7246 73.1294L81.7195 73.0379C80.1758 71.5285 80.1659 69.2138 80.2993 67.1715C80.3042 67.0967 80.3091 67.0185 80.3189 66.9387Z" fill="#8DD4DA"/>
</g>
<g id="Group_4">
<path id="Vector_2" d="M67.4814 79.8132C67.5612 79.8031 67.6394 79.798 67.7142 79.7929C69.7544 79.652 72.0725 79.6554 73.5846 81.1964L73.5897 81.2213C73.4035 81.2715 73.2423 81.3432 73.1077 81.4349C70.5529 79.887 65.5077 79.9341 63.824 82.8782C63.3214 83.7553 63.2928 84.6999 64.0821 85.4238C64.1226 83.5047 66.9783 83.8681 66.2048 85.9662C65.5107 87.8413 62.6812 87.245 61.8295 85.8577C59.4743 82.0247 64.6648 80.0866 67.4814 79.8132Z" fill="#8DD4DA"/>
</g>
</g>
<g id="Group_5">
<path id="Vector_3" d="M84.204 74.0246C84.8141 73.8358 85.4428 73.968 85.9161 74.679C87.0193 76.3337 84.2714 78.1037 83.9001 75.4718C83.6142 75.5287 83.2886 75.762 83.0748 76.2562C82.6256 77.2928 83.1084 78.857 83.6983 79.7341L83.6552 79.814C83.4272 79.6863 83.1992 79.5719 82.9729 79.4724L82.9878 79.4408C82.0747 78.1484 81.9488 77.2921 82.1453 76.3058C82.3186 75.4225 83.2383 74.3203 84.204 74.0246Z" fill="#CCAD62"/>
<path id="Vector_4" d="M82.234 72.1799C83.2314 71.9656 84.1091 72.8607 84.2005 74.0179L84.2005 74.0246C83.2348 74.3203 82.3151 75.4225 82.1401 76.3041C81.9419 77.2921 82.0712 78.1483 82.9827 79.4391L82.9678 79.4707C82.615 79.3116 82.2623 79.1857 81.9162 79.0931L81.9196 79.0831C79.9645 77.1336 80.2331 74.2398 81.0362 73.028C81.1109 72.9165 81.1889 72.8183 81.272 72.7383C81.4031 72.6101 81.5327 72.5035 81.6656 72.4202C81.86 72.2985 82.0495 72.2184 82.234 72.1799Z" fill="#8DD4DA"/>
<path id="Vector_5" d="M82.1835 83.3612C81.5425 82.8383 80.6689 81.2631 80.9986 80.4561C81.8047 80.124 83.3807 80.9948 83.9054 81.6343C83.7449 80.966 83.6775 80.3974 83.7665 79.8552C83.8605 79.288 84.1209 78.7571 84.6206 78.1794C87.0909 75.3057 91.2808 78.3345 88.6316 80.5417C87.6084 81.3945 85.7227 80.2581 87.096 78.8809C85.5293 78.7235 83.8572 80.4371 85.3294 83.1173L85.3461 83.1671C85.253 83.2038 85.1666 83.2605 85.0919 83.3354L83.8863 84.5444C83.8116 84.6194 83.7552 84.7059 83.7187 84.7991L83.6671 84.7809C80.9828 83.3163 79.2757 84.995 79.4375 86.5579C80.8092 85.1824 81.9509 87.0615 81.101 88.0904C78.9014 90.7426 75.8606 86.5614 78.7289 84.0845C79.3036 83.5848 79.8387 83.3213 80.4023 83.2257C80.9476 83.1351 81.5164 83.2009 82.1835 83.3612Z" fill="#095195"/>
<path id="Vector_6" d="M77.2773 72.4876C77.6856 69.6567 79.9847 70.2953 80.8409 72.4509C80.9126 72.6287 80.9728 72.8182 81.0229 73.0177L81.0412 73.0293C80.2398 74.2394 79.9695 77.1349 81.9246 79.0844L81.9213 79.0944C81.3789 78.9455 80.8517 78.8747 80.3428 78.8854L80.3428 78.8755C79.8618 77.3662 78.8095 74.1483 77.2739 72.4876L77.2756 72.4859L77.2773 72.4876Z" fill="#095195"/>
<path id="Vector_7" d="M75.4117 71.4478C76.0952 71.485 76.7177 71.8833 77.274 72.4878C78.8079 74.1502 79.8618 77.3664 80.3429 78.8757L80.3429 78.8856C80.0785 78.891 79.8191 78.918 79.5681 78.9666L79.5282 78.9733C79.477 79.2411 79.4491 79.5188 79.4462 79.8049L79.4196 79.8049C77.8874 79.3198 74.6016 78.2553 72.958 76.6928C72.3869 76.1532 72.0135 75.5517 71.976 74.8966C71.9401 74.2132 72.416 73.2497 73.0152 72.4955C73.7677 71.8941 74.7282 71.4138 75.4117 71.4478Z" fill="#CCAD62"/>
<path id="Vector_8" d="M83.7152 79.8472L83.7684 79.8571C83.6794 80.396 83.7451 80.9663 83.9073 81.6362C83.3826 80.9967 81.8049 80.1276 81.0005 80.458C80.6708 81.265 81.5444 82.8402 82.1853 83.3631C81.5166 83.2011 80.9478 83.1387 80.4092 83.2293L80.3991 83.1761C80.3874 83.1545 80.3758 83.1362 80.3658 83.1163C80.2374 82.8886 80.124 82.6593 80.0255 82.4316C79.8687 82.076 79.7452 81.7236 79.6515 81.3745C79.5078 80.8359 79.4405 80.3106 79.4448 79.8067C79.4477 79.5207 79.4756 79.2429 79.5267 78.9751L79.5666 78.9684C79.8177 78.9198 80.0754 78.8945 80.3414 78.8875C80.8503 78.8768 81.3775 78.9475 81.9199 79.0964C82.2659 79.189 82.6169 79.3166 82.9714 79.4741C83.1977 79.5735 83.4256 79.6879 83.6536 79.8157C83.6753 79.8239 83.6969 79.8355 83.7152 79.8472Z" fill="#CCAD62"/>
<path id="Vector_9" d="M85.6337 83.1118C85.8283 83.1132 86.0213 83.1861 86.1711 83.3355C86.386 83.5497 86.4446 83.8573 86.3502 84.1252C86.3171 84.2283 86.2557 84.3265 86.1743 84.4081L84.9688 85.6171C84.8874 85.6987 84.7894 85.7604 84.6863 85.7938C84.4187 85.8889 84.111 85.8312 83.8962 85.617C83.6747 85.3961 83.6177 85.0736 83.7271 84.8007C83.7635 84.7075 83.8199 84.621 83.8947 84.546L85.1002 83.337C85.175 83.2621 85.2613 83.2054 85.3544 83.1687C85.4408 83.132 85.5373 83.1119 85.6337 83.1118Z" fill="#8DD4DA"/>
<path id="Vector_10" d="M86.3887 84.1366C88.8786 83.3149 87.9078 87.0895 88.6775 88.1094C87.6537 87.3443 83.8836 88.3241 84.6982 85.8319L84.6849 85.792C84.7896 85.7569 84.886 85.6969 84.9673 85.6153L86.1729 84.4063C86.2559 84.3231 86.3156 84.2265 86.3487 84.1234L86.3887 84.1366Z" fill="#095195"/>
<path id="Vector_11" d="M79.4199 79.805L79.4465 79.805C79.4406 80.3072 79.5095 80.8342 79.6533 81.3728L79.6383 81.3778C77.6833 79.4283 74.7835 79.7118 73.5741 80.5184L73.5624 80.5001C73.3678 80.4522 73.1848 80.3926 73.0084 80.323C70.8321 79.4714 70.122 77.1094 72.9583 76.6929L72.96 76.6912C74.6018 78.2554 77.8876 79.32 79.4199 79.805Z" fill="#095195"/>
<path id="Vector_12" d="M72.729 81.7152C72.7587 81.5555 72.8217 81.3925 72.9196 81.2244C73.0108 81.0696 73.1303 80.9131 73.2831 80.7566C73.3628 80.6733 73.4608 80.595 73.5721 80.52C74.7816 79.7135 77.6813 79.43 79.6363 81.3794L79.6513 81.3744C79.7449 81.7235 79.8685 82.0759 80.0253 82.4315L79.9887 82.4482C78.6937 81.5388 77.8371 81.4153 76.8513 81.6146C76.0134 81.782 74.9769 82.625 74.6274 83.5384L74.619 83.5334C73.4698 83.4469 72.5491 82.665 72.729 81.7152Z" fill="#8DD4DA"/>
<path id="Vector_13" d="M79.9904 82.4465L80.0269 82.4298C80.1254 82.6575 80.2404 82.8851 80.3671 83.1144L80.2874 83.1578C79.4085 82.5703 77.843 82.092 76.8077 82.5441C76.3141 82.7593 76.0801 83.0873 76.0256 83.3717C78.6602 83.7371 76.8981 86.4868 75.2386 85.39C74.4713 84.8805 74.3755 84.1906 74.6273 83.5383C74.9786 82.6266 76.015 81.7836 76.8512 81.6145C77.8387 81.4135 78.6937 81.5387 79.9904 82.4465Z" fill="#CCAD62"/>
</g>
</g>
<path id="Vector_14" d="M58.7495 82.8502L58.7104 82.8523C56.8784 81.8295 53.5539 80.9215 51.573 81.1761L51.5698 81.1797C51.3965 80.9669 51.1132 80.7786 50.7917 80.6345L50.8039 80.6129C51.2881 80.4632 51.6016 80.2997 51.7842 80.1272L51.8173 80.1558C53.6065 80.7819 56.874 81.5416 59.0312 82.2595L59.0366 82.2667C58.8221 82.436 58.7369 82.6387 58.7495 82.8502Z" fill="#095195"/>
<path id="Vector_15" d="M58.0643 82.684C55.8765 82.0557 55.2684 80.4971 54.9321 79.1634L54.9141 79.1517C54.9963 79.0144 55.0688 78.8414 55.1242 78.6297L55.1489 78.6201C55.2183 78.781 55.2959 78.9069 55.3788 79.005L55.3657 79.0166C55.7731 80.5508 57.1346 82.0575 58.9003 82.4436C58.7155 82.5158 58.5433 82.6054 58.381 82.7107C58.2764 82.6994 58.1706 82.6928 58.0643 82.684Z" fill="#095195"/>
<path id="Vector_16" d="M54.9631 83.3244C54.8902 83.3409 54.8174 83.3605 54.7417 83.3834C52.2929 81.6504 46.6494 85.6741 48.9216 86.8567C48.2401 87.5106 47.175 87.3888 46.5931 86.7539C46.521 86.678 46.4577 86.5954 46.4047 86.5045C46.3773 86.4568 46.3499 86.4091 46.327 86.3596C45.9632 86.7549 45.203 87.5396 44.4462 88.0099C44.033 88.2679 43.6203 88.4303 43.271 88.3812C43.0304 88.3504 42.8226 88.2176 42.6699 87.9476C42.6036 87.839 42.5497 87.7066 42.5049 87.5444C42.4106 87.6176 42.2982 87.698 42.1749 87.7775C41.3478 88.3104 39.9703 88.8597 39.1984 88.242C39.1127 88.1715 39.0355 88.0881 38.9666 87.9889C37.6854 88.9793 33.8341 88.9906 34.6751 86.4839C34.683 86.4619 34.7049 86.4145 34.7353 86.3542C34.822 86.3615 34.9098 86.3611 34.9977 86.3637C35.0924 86.8033 35.4833 87.3583 36.8972 87.2521C38.7621 87.1136 40.4932 86.527 42.2184 85.5156C42.2527 85.4967 45.327 83.6573 47.2861 82.8573C51.8513 80.992 55.9618 81.3338 60.4769 82.7089C60.4197 82.9201 60.3641 83.1297 60.3203 83.3324C58.6869 82.518 56.7102 82.8801 54.9631 83.3244Z" fill="#8DD4DA"/>
<path id="Vector_17" d="M50.8012 80.6115L50.789 80.6331C51.1124 80.7764 51.3937 80.9655 51.5671 81.1783C51.8637 81.5401 51.8391 81.979 51.1405 82.4111C50.839 82.5979 47.1648 83.3452 48.7281 84.6565C46.6953 84.6618 46.7611 82.0247 48.6036 81.6299C47.4427 81.5855 45.9606 80.5089 45.2023 79.6492C45.963 78.8851 47.8925 78.5295 48.6522 78.6231C47.4847 77.8159 46.8825 75.5204 49.36 75.3724C47.0229 76.8422 53.1836 78.7978 51.7798 80.1218C51.5989 80.2983 51.2853 80.4618 50.8012 80.6115Z" fill="#095195"/>
<path id="Vector_18" d="M55.6181 77.5485C55.6722 77.2883 55.5814 76.9941 55.3576 76.7856C55.3386 76.7696 55.3218 76.7532 55.3008 76.7376L55.3025 76.735C55.4375 76.511 55.5788 76.348 55.7218 76.2356C56.7706 75.4015 57.8811 77.2144 56.3304 77.5119L56.3267 77.526C56.1587 77.4881 55.9475 77.477 55.694 77.497L55.6181 77.5485Z" fill="#095195"/>
<path id="Vector_19" d="M55.3023 76.7391C54.9799 76.4848 54.5293 76.4974 54.2702 76.7764L54.2151 76.7258C54.1193 76.6082 54.0545 76.4907 54.0133 76.3794C53.5934 75.25 55.6306 74.5301 55.6983 76.2025L55.725 76.2346C55.5803 76.3495 55.4391 76.5126 55.3057 76.734L55.3023 76.7391Z" fill="#095195"/>
<path id="Vector_20" d="M54.9196 78.1396L54.916 78.0803C55.089 78.0684 55.2533 77.9938 55.3744 77.8616C55.4596 77.7704 55.5135 77.6568 55.54 77.5401L55.6184 77.4903C55.872 77.4702 56.0811 77.4818 56.2512 77.5193C57.7122 77.8406 56.1929 80.0293 55.3039 78.9942C55.2211 78.8961 55.1434 78.7702 55.074 78.6093C55.0156 78.4794 54.9645 78.3212 54.9196 78.1396Z" fill="#095195"/>
<path id="Vector_21" d="M54.2702 76.7763C54.0419 77.0221 54.032 77.3975 54.2205 77.6912L54.1642 77.7297C54.0115 77.8174 53.8701 77.8739 53.7365 77.9042C52.3725 78.2335 52.0899 75.8775 53.9691 76.4019L54.0137 76.3814C54.0549 76.4928 54.1196 76.6102 54.2155 76.7278L54.2702 76.7763Z" fill="#095195"/>
<path id="Vector_22" d="M54.2187 77.6921C54.2586 77.7549 54.306 77.8115 54.3616 77.8643C54.5432 78.0305 54.7752 78.1083 54.9912 78.0895L54.9948 78.1488C55.0397 78.3304 55.0908 78.4885 55.1492 78.6185L55.1246 78.6281C55.067 78.8402 54.9967 79.0128 54.9145 79.1501C54.2027 80.3399 52.6958 78.9238 53.7372 77.9068L53.7368 77.9047C53.8704 77.8743 54.0118 77.8179 54.1645 77.7302L54.2187 77.6921Z" fill="#095195"/>
<path id="Vector_23" d="M46.8011 83.6951L46.7939 83.6964C46.5103 83.7156 46.2284 83.7388 45.9439 83.7646C45.6719 83.7893 45.3982 83.8164 45.1259 83.8453C44.8503 83.8738 44.5759 83.9031 44.2995 83.9328C43.0247 84.0687 41.58 84.0198 41.1306 82.5941C42.8976 82.7115 41.9806 80.2874 40.5462 81.4038C39.563 82.1684 40.0632 83.6521 41.3731 84.2264C42.0046 84.5039 42.8124 84.576 43.483 84.6297C41.7052 84.9873 38.8943 84.2199 37.6781 83.0147C37.2324 83.0307 36.7751 82.9329 36.3516 82.7079C36.3139 82.6869 36.2754 82.6672 36.2395 82.6448L36.2389 82.6471C36.8112 83.306 37.7435 84.065 38.4968 84.4124C40.0859 85.1468 42.3501 85.1901 44.0611 85.0144C45.601 84.8562 46.5075 84.7833 48.0636 84.416L48.0652 84.4072C47.5927 84.362 46.9074 84.1589 46.8011 83.6951Z" fill="#8DD4DA"/>
<path id="Vector_24" d="M42.8487 80.9536L42.8194 80.9322C42.7403 80.978 42.6634 80.9937 42.5876 80.9859L42.5861 81.0074C42.5356 82.431 43.9194 83.8628 45.1253 83.8476C45.3986 83.8184 45.6713 83.7915 45.9433 83.7669C43.0088 83.4731 42.8796 81.2851 42.8487 80.9536Z" fill="#095195"/>
<path id="Vector_25" d="M42.8203 80.931C42.9245 80.8711 43.0296 80.7559 43.1359 80.5755C43.5225 79.912 42.5623 78.5978 43.6285 78.4297C43.32 78.0973 42.7397 78.1338 42.625 78.6037C42.5653 78.2295 42.1739 77.7523 41.8459 77.5381C41.5434 77.9678 41.4973 78.2789 41.6465 78.7383C41.0847 78.1572 40.5569 78.5449 40.4958 79.1381C40.8583 78.6808 41.2796 79.1889 41.486 79.5627C41.7173 79.9821 42.1254 80.9325 42.5895 80.9845C42.6634 80.9938 42.7414 80.9779 42.8203 80.931Z" fill="#CCAD62"/>
<path id="Vector_26" d="M37.6774 83.0146C38.59 82.982 39.4586 82.4779 39.9171 81.6135C40.538 80.441 40.1878 79.0116 39.1478 78.2503C39.0453 78.176 38.9376 78.1078 38.8228 78.0473C38.7067 77.986 38.5892 77.9345 38.4711 77.8915C37.2575 77.4596 35.8779 77.9711 35.2566 79.1416C34.5939 80.3907 35.0361 81.9314 36.2398 82.6446C36.2756 82.6669 36.3133 82.6879 36.3519 82.7077C36.7743 82.9328 37.2306 83.0308 37.6774 83.0146ZM36.3989 80.2653C34.9436 80.1259 35.8958 78.3315 36.8261 79.4586C35.8958 78.3315 37.8367 77.7357 37.6982 79.1908C37.8367 77.7357 39.6321 78.6878 38.5039 79.6183C39.6311 78.6879 40.227 80.6298 38.7719 80.4914C40.227 80.6298 39.2758 82.4241 38.3446 81.2981C39.2758 82.4241 37.3339 83.02 37.4723 81.5649C37.335 83.0198 35.5387 82.069 36.6666 81.1375C35.5395 82.0678 34.9446 80.1257 36.3989 80.2653Z" fill="#095195"/>
<path id="Vector_27" d="M36.6671 81.1362C35.5402 82.0676 37.3355 83.0185 37.4728 81.5636C37.3355 83.0185 39.2763 82.4228 38.3451 81.2969C39.2763 82.4228 40.2275 80.6286 38.7724 80.4902C40.2275 80.6286 39.6316 78.6867 38.5045 79.617C39.6316 78.6867 37.8372 77.7345 37.6988 79.1896C37.8372 77.7345 35.8953 78.3304 36.8266 79.4573C35.8963 78.3302 34.9441 80.1246 36.3994 80.2641C34.9453 80.1255 35.5402 82.0676 36.6671 81.1362ZM37.061 80.0983C37.2148 79.8076 37.5758 79.697 37.8667 79.8519C38.1575 80.0057 38.267 80.3668 38.113 80.6566C37.9592 80.9473 37.5993 81.0577 37.3075 80.9041C37.0165 80.7492 36.9062 80.3893 37.061 80.0983Z" fill="#CCAD62"/>
<path id="Vector_28" d="M37.3343 80.8629C37.6251 81.0167 37.9861 80.9061 38.1399 80.6154C38.2937 80.3246 38.1833 79.9647 37.8936 79.8107C37.6028 79.6569 37.2418 79.7674 37.0879 80.0571C36.9339 80.3469 37.0434 80.7081 37.3343 80.8629Z" fill="white"/>
<path id="Vector_29" d="M63.0876 83.5093C60.6836 82.9631 58.0828 83.2685 55.9214 84.4742C55.7741 84.5563 55.625 84.6499 55.479 84.7554C53.9101 85.8828 52.4902 88.2338 52.1964 90.4766C51.9929 92.0473 52.3372 93.5638 53.5636 94.5694C55.184 95.8997 59.0694 94.8267 58.1606 92.318C57.3858 90.1847 54.6654 91.7743 56.0497 93.4045C54.8701 93.7692 53.9883 93.1374 53.6102 92.104C52.6165 89.3933 54.8843 86.2609 57.1296 84.9052C59.0905 83.7222 61.1749 83.8866 63.2695 84.3833C63.3722 84.4063 63.4764 84.4352 63.578 84.4601C63.3546 84.1759 63.1908 83.8512 63.0876 83.5093Z" fill="#8DD4DA"/>
<path id="Vector_30" d="M59.1208 81.629C59.9498 82.5451 61.5338 84.6949 62.7309 84.5504C62.9262 84.527 63.1126 84.4409 63.2825 84.2789C63.5085 84.0665 63.706 83.7146 63.8645 83.1967C64.4457 81.3017 61.2589 78.5665 63.8396 77.514C62.8686 76.8595 61.433 77.2942 61.4192 78.5435C61.2534 78.1342 60.899 77.7166 60.4795 77.3471C59.9689 76.8947 59.3548 76.5153 58.832 76.3269C58.475 77.2124 58.4087 77.8754 58.6196 78.5605C58.7104 78.8499 58.8444 79.1444 59.0381 79.4593C57.2834 78.333 56.1842 79.6163 56.3814 81.1452C57.0243 79.7832 58.38 80.8125 59.1208 81.629Z" fill="#CCAD62"/>
<path id="Vector_31" d="M81.9416 58.6511L81.9447 58.6121C80.9689 56.7547 80.146 53.4081 80.451 51.4343L80.4547 51.4312C80.2464 51.2525 80.0654 50.9645 79.9295 50.6395L79.9076 50.6511C79.7456 51.1313 79.5742 51.4405 79.3971 51.6186L79.4248 51.6525C80.0051 53.4571 80.6813 56.7429 81.3439 58.9177L81.3509 58.9232C81.5257 58.7131 81.7305 58.6331 81.9416 58.6511Z" fill="#095195"/>
<path id="Vector_32" d="M81.7938 57.9624C81.2214 55.7593 79.6788 55.1117 78.3542 54.7415L78.3429 54.7232C78.2036 54.8019 78.0287 54.8699 77.8157 54.9199L77.8055 54.9443C77.9646 55.0178 78.0885 55.0986 78.1844 55.184L78.1964 55.1712C79.7197 55.6175 81.1912 57.0171 81.5321 58.792C81.609 58.6092 81.703 58.4393 81.8124 58.2797C81.8037 58.1749 81.7998 58.0689 81.7938 57.9624Z" fill="#095195"/>
<path id="Vector_33" d="M82.5128 54.8779C82.5312 54.8054 82.5527 54.7331 82.5775 54.6581C80.9074 52.1659 85.0737 46.6268 86.198 48.9285C86.8691 48.2638 86.7745 47.196 86.1547 46.5981C86.0806 46.524 85.9996 46.4587 85.9101 46.4034C85.8631 46.3748 85.8161 46.3461 85.7672 46.322C86.1717 45.9684 86.9755 45.2285 87.465 44.4839C87.7334 44.0774 87.9063 43.669 87.8661 43.3185C87.8414 43.0773 87.714 42.8661 87.448 42.7066C87.3411 42.6375 87.2101 42.5803 87.0491 42.5314C87.1247 42.4389 87.208 42.3286 87.2906 42.2074C87.8444 41.3942 88.4286 40.0311 87.8308 39.2437C87.7625 39.1562 87.6811 39.0769 87.5837 39.0056C88.6064 37.75 88.7159 33.9002 86.1886 34.677C86.1664 34.6844 86.1184 34.7051 86.0573 34.734C86.0625 34.8208 86.0598 34.9085 86.0602 34.9965C86.4972 35.1024 87.0421 35.5073 86.8998 36.918C86.7139 38.7788 86.0833 40.4944 85.0283 42.1932C85.0085 42.227 83.0914 45.2534 82.2417 47.1915C80.2605 51.7077 80.4975 55.8255 81.7569 60.3742C81.9695 60.3225 82.1805 60.2722 82.3843 60.2336C81.6118 58.58 82.0241 56.6131 82.5128 54.8779Z" fill="#8DD4DA"/>
<path id="Vector_34" d="M79.9069 50.648L79.9288 50.6364C80.0638 50.9634 80.2456 51.2494 80.454 51.4281C80.8081 51.7339 81.2475 51.7205 81.6973 51.0331C81.8916 50.7364 82.7324 47.0825 84.0034 48.6787C84.0606 46.6467 81.4226 46.6453 80.981 48.4771C80.9662 47.3155 79.9277 45.8064 79.0876 45.0265C78.3043 45.7674 77.8997 47.6871 77.9739 48.449C77.1967 47.2614 74.9173 46.6008 74.7062 49.0738C76.2352 46.7749 78.033 52.9834 79.3923 51.6138C79.5735 51.4375 79.7449 51.1282 79.9069 50.648Z" fill="#095195"/>
<path id="Vector_35" d="M76.7214 55.3845C76.4598 55.4319 76.168 55.3336 75.9654 55.1045C75.9499 55.0852 75.9338 55.068 75.9188 55.0465L75.9162 55.0482C75.6888 55.1775 75.5222 55.3145 75.4063 55.4546C74.5457 56.4818 76.3297 57.6382 76.6666 56.0956L76.6808 56.0923C76.6472 55.9234 76.6415 55.7119 76.668 55.459L76.7214 55.3845Z" fill="#095195"/>
<path id="Vector_36" d="M75.9206 55.0493C75.6746 54.7205 75.6987 54.2703 75.9842 54.0184L75.935 53.9621C75.8199 53.8632 75.7041 53.7955 75.5939 53.7515C74.4756 53.3029 73.7039 55.3211 75.3741 55.4314L75.4055 55.4589C75.5241 55.3172 75.6907 55.1802 75.9154 55.0525L75.9206 55.0493Z" fill="#095195"/>
<path id="Vector_37" d="M77.3302 54.7028L77.2711 54.6977C77.2547 54.8704 77.1759 55.0327 77.0408 55.1504C76.9473 55.2333 76.8324 55.2842 76.7151 55.3078L76.6633 55.3849C76.6368 55.6378 76.643 55.8472 76.6762 56.0182C76.9602 57.4868 79.1868 56.0239 78.1748 55.1088C78.0788 55.0235 77.9549 54.9427 77.7958 54.8692C77.6674 54.8074 77.5107 54.7523 77.3302 54.7028Z" fill="#095195"/>
<path id="Vector_38" d="M75.984 54.0183C76.2355 53.7964 76.6111 53.7961 76.8998 53.992L76.9398 53.9366C77.0313 53.7863 77.0914 53.6463 77.1251 53.5135C77.4891 52.1584 75.1411 51.8158 75.6174 53.7078L75.5958 53.7518C75.706 53.7959 75.8218 53.8636 75.9369 53.9624L75.984 54.0183Z" fill="#095195"/>
<path id="Vector_39" d="M76.9006 53.9902C76.9623 54.0317 77.0177 54.0806 77.069 54.1375C77.2306 54.3233 77.3025 54.5571 77.2781 54.7726L77.3373 54.7777C77.5177 54.8272 77.6745 54.8823 77.8029 54.9441L77.8131 54.9197C78.0267 54.8675 78.201 54.8016 78.3403 54.723C79.5479 54.0418 78.1707 52.4992 77.1275 53.5144L77.1254 53.5139C77.0916 53.6467 77.0316 53.7866 76.94 53.937L76.9006 53.9902Z" fill="#095195"/>
<path id="Vector_40" d="M83.0907 46.7276L83.0922 46.7204C83.1187 46.4374 83.1491 46.1562 83.1821 45.8724C83.2137 45.6012 83.2477 45.3282 83.2836 45.0568C83.3191 44.782 83.3554 44.5085 83.3921 44.2329C83.5605 42.9619 83.5485 41.5165 82.1347 41.0308C82.2069 42.8003 79.807 41.8218 80.9596 40.4163C81.7491 39.453 83.2195 39.9908 83.7603 41.3149C84.0216 41.9533 84.073 42.7626 84.1097 43.4344C84.5124 41.6663 83.817 38.8368 82.6431 37.5902C82.6705 37.1451 82.5844 36.6854 82.3703 36.2564C82.3503 36.2181 82.3315 36.1791 82.3101 36.1427L82.3123 36.1421C82.9564 36.731 83.6914 37.6824 84.0195 38.4443C84.7131 40.0516 84.6988 42.3161 84.4795 44.0221C84.2821 45.5575 84.186 46.4618 83.7792 48.008L83.7704 48.0094C83.7373 47.536 83.5517 46.8457 83.0907 46.7276Z" fill="#8DD4DA"/>
<path id="Vector_41" d="M80.4511 42.7077L80.4305 42.6779C80.4783 42.6 80.496 42.5235 80.4901 42.4475L80.5116 42.4465C81.9361 42.4324 83.3321 43.8523 83.2861 45.0573C83.25 45.3298 83.2162 45.6017 83.1846 45.873C82.9657 42.932 80.7817 42.747 80.4511 42.7077Z" fill="#095195"/>
<path id="Vector_42" d="M80.4295 42.6782C80.367 42.7809 80.2491 42.883 80.0661 42.9847C79.393 43.3543 78.1036 42.3609 77.9084 43.4224C77.584 43.1055 77.6353 42.5264 78.108 42.4237C77.7354 42.3545 77.2683 41.951 77.0626 41.6176C77.4998 41.3262 77.812 41.2881 78.2674 41.4489C77.7009 40.8725 78.1019 40.3547 78.6965 40.3088C78.2301 40.6595 78.7272 41.0937 79.0957 41.3095C79.509 41.5515 80.4488 41.9836 80.4889 42.4489C80.4963 42.523 80.4784 42.6006 80.4295 42.6782Z" fill="#CCAD62"/>
<path id="Vector_43" d="M82.6436 37.5907C82.5878 38.5022 82.0616 39.3577 81.1859 39.794C79.9979 40.3849 78.5779 39.9983 77.8434 38.9392C77.7716 38.8349 77.7063 38.7255 77.6487 38.6092C77.5903 38.4916 77.5418 38.3728 77.502 38.2536C77.1011 37.0294 77.6476 35.6632 78.8336 35.072C80.0991 34.4414 81.628 34.9227 82.3103 36.1442C82.3318 36.1806 82.3518 36.2188 82.3705 36.2579C82.5848 36.6859 82.6712 37.1445 82.6436 37.5907ZM79.9278 36.2426C79.8255 34.7842 78.0074 35.6904 79.1104 36.6491C78.0074 35.6904 77.3624 37.6154 78.8205 37.5141C77.3624 37.6154 78.2683 39.4345 79.2273 38.3305C78.2685 39.4335 80.1946 40.0788 80.0933 38.6206C80.1946 40.0788 82.0125 39.1736 80.9107 38.2141C82.0125 39.1736 82.6577 37.2476 81.1996 37.3488C82.6575 37.2486 81.7528 35.4286 80.7928 36.5325C81.7516 35.4295 79.8253 34.7852 79.9278 36.2426Z" fill="#095195"/>
<path id="Vector_44" d="M80.7909 36.5327C81.7507 35.4299 82.6556 37.2488 81.1976 37.349C82.6556 37.2488 82.0106 39.1738 80.9088 38.2142C82.0106 39.1738 80.1927 40.0789 80.0914 38.6208C80.1927 40.0789 78.2666 39.4337 79.2254 38.3307C78.2666 39.4337 77.3605 37.6156 78.8186 37.5143C77.3605 37.6156 78.0057 35.6895 79.1085 36.6493C78.0055 35.6906 79.8236 34.7844 79.9259 36.2428C79.8244 34.7856 81.7507 35.4299 80.7909 36.5327ZM79.7433 36.9C79.4488 37.0463 79.3291 37.4044 79.4764 37.6991C79.6227 37.9937 79.981 38.1124 80.2746 37.9659C80.5692 37.8195 80.6886 37.4625 80.5425 37.1669C80.3952 36.8721 80.0381 36.7526 79.7433 36.9Z" fill="#CCAD62"/>
<path id="Vector_45" d="M82.4909 63.0045C82.0062 60.5873 82.3778 57.9951 83.6382 55.8652C83.724 55.72 83.8214 55.5734 83.9306 55.4301C85.0976 53.8905 87.484 52.531 89.7336 52.2945C91.309 52.131 92.8162 52.5139 93.7902 53.7655C95.0788 55.4193 93.907 59.276 91.4224 58.3037C89.3095 57.4747 90.968 54.7957 92.5624 56.2211C92.957 55.0512 92.3479 54.1536 91.3245 53.7492C88.64 52.6868 85.4508 54.8739 84.0383 57.084C82.8056 59.0141 82.9169 61.102 83.36 63.2086C83.3803 63.3118 83.4066 63.4167 83.4289 63.5189C83.1505 63.2884 82.83 63.1163 82.4909 63.0045Z" fill="#8DD4DA"/>
<path id="Vector_46" d="M80.7112 58.9913C81.6058 59.8434 83.7145 61.4817 83.5395 62.6747C83.5112 62.8694 83.4204 63.0536 83.2541 63.2192C83.036 63.4397 82.6792 63.6282 82.1573 63.7735C80.2482 64.3062 77.5951 61.0506 76.4772 63.6037C75.8476 62.6164 76.3188 61.1923 77.568 61.2103C77.1631 61.0341 76.7547 60.6692 76.396 60.2404C75.9568 59.7184 75.5932 59.0949 75.4181 58.5674C76.3124 58.2331 76.977 58.1837 77.6565 58.412C77.9435 58.5102 78.2344 58.6516 78.5442 58.8534C77.4631 57.0705 78.774 56.0044 80.2974 56.2405C78.9194 56.8485 79.9138 58.23 80.7112 58.9913Z" fill="#CCAD62"/>
</g>
<defs>
<filter id="filter0_d_3989_2572" x="0.556152" y="0.574219" width="127.763" height="128.57" filterUnits="userSpaceOnUse" color-interpolation-filters="sRGB">
<feFlood flood-opacity="0" result="BackgroundImageFix"/>
<feColorMatrix in="SourceAlpha" type="matrix" values="0 0 0 0 0 0 0 0 0 0 0 0 0 0 0 0 0 0 127 0" result="hardAlpha"/>
<feOffset/>
<feGaussianBlur stdDeviation="17"/>
<feComposite in2="hardAlpha" operator="out"/>
<feColorMatrix type="matrix" values="0 0 0 0 0 0 0 0 0 0 0 0 0 0 0 0 0 0 0.15 0"/>
<feBlend mode="normal" in2="BackgroundImageFix" result="effect1_dropShadow_3989_2572"/>
<feBlend mode="normal" in="SourceGraphic" in2="effect1_dropShadow_3989_2572" result="shape"/>
</filter>
</defs>
</svg>
