<svg width="127" height="131" viewBox="0 0 127 131" fill="none" xmlns="http://www.w3.org/2000/svg">
<g id="patern" filter="url(#filter0_d_3602_16445)">
<g id="Group">
<g id="Group_2">
<g id="Group_3">
<path id="Vector" d="M47.6136 63.875C47.3921 66.6924 45.5598 71.977 41.7069 69.8922C40.3106 69.139 39.6632 66.3672 41.5179 65.554C43.5896 64.6439 44.0042 67.4559 42.0953 67.6244C42.8302 68.3599 43.7696 68.2683 44.6331 67.7105C47.5282 65.8418 47.4833 60.8294 45.8974 58.3971C45.999 58.2333 46.0735 58.0383 46.1177 57.8154L46.1242 57.9059C47.684 59.3065 47.7303 61.6052 47.6295 63.6425C47.6258 63.7171 47.6222 63.7951 47.6136 63.875Z" fill="#8DD4DA"/>
</g>
<g id="Group_4">
<path id="Vector_2" d="M59.9313 50.6323C59.8521 50.6474 59.7744 50.6575 59.7 50.6673C57.672 50.9379 55.3651 51.083 53.8362 49.649L53.8308 49.6246C54.0153 49.5628 54.1746 49.4813 54.3071 49.3816C56.8736 50.7556 61.8935 50.3858 63.5228 47.3536C64.0092 46.4502 64.0228 45.51 63.226 44.8415C63.2158 46.7504 60.3683 46.5722 61.1052 44.4386C61.7665 42.5315 64.5915 42.9427 65.4609 44.2663C67.8647 47.923 62.7299 50.1804 59.9313 50.6323Z" fill="#8DD4DA"/>
</g>
</g>
<g id="Group_5">
<path id="Vector_3" d="M43.4283 57.0029C42.8236 57.2298 42.1951 57.1387 41.7125 56.4616C40.5876 54.8861 43.2972 52.9492 43.7084 55.5437C43.9923 55.4687 44.313 55.2158 44.5183 54.7104C44.9495 53.6504 44.444 52.1252 43.8425 51.2904L43.8842 51.2082C44.1134 51.3206 44.3423 51.4198 44.5693 51.5043L44.5549 51.5367C45.4848 52.7639 45.6237 53.6077 45.4434 54.6016C45.2846 55.4914 44.3857 56.6468 43.4283 57.0029Z" fill="#CCAD62"/>
<path id="Vector_4" d="M45.444 58.7752C44.4502 59.0536 43.5589 58.2152 43.4493 57.064L43.4492 57.0573C44.41 56.6995 45.3121 55.5382 45.4732 54.6455C45.6558 53.6448 45.5132 52.797 44.5818 51.5651L44.5962 51.5325C44.9514 51.6689 45.3059 51.7721 45.6533 51.8424L45.6501 51.8526C47.6351 53.676 47.4119 56.5868 46.628 57.8501C46.5551 57.9664 46.4787 58.0696 46.3969 58.1549C46.2678 58.2915 46.14 58.4065 46.0084 58.4984C45.816 58.6325 45.6278 58.7248 45.444 58.7752Z" fill="#8DD4DA"/>
<path id="Vector_5" d="M45.1787 47.5979C45.8216 48.0729 46.7113 49.571 46.3975 50.3879C45.6046 50.7667 44.0304 50.0081 43.5009 49.4108C43.6704 50.0597 43.746 50.6163 43.6663 51.1568C43.5822 51.7222 43.3328 52.2623 42.8471 52.864C40.4463 55.8556 36.2502 53.1348 38.8386 50.7893C39.8382 49.8829 41.7231 50.8838 40.3851 52.3296C41.9388 52.3851 43.5674 50.5886 42.0677 48.0387L42.0504 47.9906C42.142 47.9485 42.2266 47.8871 42.2994 47.8084L43.4741 46.5392C43.5469 46.4606 43.6014 46.3716 43.636 46.2774L43.6874 46.2921C46.3682 47.5657 48.0321 45.8014 47.8473 44.2701C46.5108 45.7142 45.3508 43.9334 46.1762 42.8644C48.3124 40.1085 51.3889 44.0391 48.5878 46.6647C48.0266 47.1941 47.501 47.488 46.9444 47.6182C46.4059 47.7422 45.8417 47.7136 45.1787 47.5979Z" fill="#095195"/>
<path id="Vector_6" d="M50.4212 58.2355C50.0554 61.1113 47.7368 60.6173 46.8433 58.5031C46.7685 58.3287 46.7051 58.1419 46.6516 57.9444L46.6331 57.9339C47.4189 56.664 47.645 53.7321 45.6513 51.8964L45.6545 51.8862C46.2014 52.0009 46.732 52.038 47.2427 51.9943L47.2429 52.0043C47.7496 53.4923 48.8566 56.6631 50.4246 58.2352L50.4229 58.237L50.4212 58.2355Z" fill="#095195"/>
<path id="Vector_7" d="M52.2729 59.2724C51.5861 59.2791 50.9549 58.9187 50.3869 58.3464C48.8209 56.7729 47.7125 53.6048 47.2058 52.1172L47.2057 52.1072C47.471 52.0847 47.731 52.0408 47.9823 51.9756L48.0223 51.9663C48.0694 51.6935 48.0931 51.4122 48.0915 51.1242L48.1182 51.1225C49.6642 51.5114 52.9797 52.3699 54.6542 53.8358C55.2361 54.3418 55.6204 54.9229 55.6683 55.5797C55.715 56.265 55.2523 57.2654 54.6625 58.063C53.9165 58.7169 52.9597 59.2623 52.2729 59.2724Z" fill="#CCAD62"/>
<path id="Vector_8" d="M43.7419 51.2438L43.6885 51.2373C43.7691 50.6926 43.6945 50.1265 43.5218 49.467C44.0564 50.0727 45.6474 50.8403 46.4464 50.4581C46.7635 49.6299 45.8654 48.1108 45.2164 47.6291C45.8875 47.7481 46.4571 47.7739 46.9943 47.6486L47.0052 47.7012C47.0172 47.722 47.0291 47.7395 47.0394 47.7588C47.1713 47.9782 47.2883 48.2003 47.3903 48.4216C47.5527 48.7672 47.6817 49.1116 47.7808 49.4547C47.933 49.984 48.0085 50.5051 48.0121 51.0093C48.0136 51.2956 47.9901 51.5751 47.9432 51.8462L47.9034 51.8555C47.6532 51.9203 47.3959 51.9622 47.13 51.9863C46.6214 52.0298 46.0932 51.993 45.5486 51.879C45.2012 51.8086 44.8483 51.7037 44.4914 51.569C44.2636 51.4841 44.0339 51.3844 43.804 51.2713C43.7822 51.2644 43.7604 51.2542 43.7419 51.2438Z" fill="#CCAD62"/>
<path id="Vector_9" d="M41.7046 47.9816C41.5116 47.9926 41.3189 47.9328 41.1679 47.7945C40.9514 47.5963 40.8883 47.2958 40.9778 47.0248C41.009 46.9207 41.0684 46.8196 41.1479 46.7337L42.3251 45.4608C42.4045 45.3749 42.5008 45.3076 42.6025 45.268C42.8665 45.1568 43.1728 45.1943 43.3893 45.3925C43.6125 45.5969 43.6741 45.9123 43.5699 46.1892C43.5352 46.2837 43.4806 46.3729 43.4076 46.4518L42.2304 47.7247C42.1575 47.8036 42.0726 47.8652 41.9809 47.9074C41.8957 47.9492 41.8003 47.9753 41.7046 47.9816Z" fill="#8DD4DA"/>
<path id="Vector_10" d="M40.8901 46.9638C38.4123 47.9466 39.3243 44.1064 38.5383 43.1352C39.5744 43.835 43.3304 42.6115 42.5545 45.1582L42.5685 45.1973C42.4643 45.2391 42.3689 45.3054 42.2888 45.3923L41.1018 46.68C41.02 46.7687 40.9618 46.8691 40.9303 46.9745L40.8901 46.9638Z" fill="#095195"/>
<path id="Vector_11" d="M48.042 51.1773L48.0153 51.179C48.0134 50.6731 47.9359 50.147 47.7831 49.6142L47.7981 49.6082C49.7919 51.444 52.6995 50.9709 53.9015 50.0807L53.9135 50.0983C54.1097 50.134 54.2944 50.1821 54.4726 50.2408C56.6715 50.9572 57.4215 53.2888 54.5797 53.8917L54.578 53.8934C52.9047 52.4252 49.5884 51.5663 48.042 51.1773Z" fill="#095195"/>
<path id="Vector_12" d="M54.6693 48.8144C54.6421 48.976 54.5817 49.1431 54.4865 49.3175C54.3977 49.4782 54.2806 49.6424 54.1304 49.8088C54.052 49.8972 53.9552 49.9818 53.8451 50.0639C52.6485 50.9484 49.7538 51.4187 47.7686 49.5949L47.7537 49.6009C47.6547 49.2578 47.5256 48.9134 47.3633 48.5678L47.3995 48.5487C48.7086 49.3749 49.5669 49.4432 50.5494 49.1805C51.3845 48.959 52.4076 48.0493 52.7428 47.1133L52.7512 47.1177C53.9015 47.1302 54.8343 47.8529 54.6693 48.8144Z" fill="#8DD4DA"/>
<path id="Vector_13" d="M47.3791 48.5188L47.343 48.5377C47.2413 48.3175 47.1231 48.0984 46.9933 47.8784L47.0721 47.8302C47.9568 48.3583 49.5238 48.7338 50.5481 48.2176C51.0364 47.9719 51.2644 47.6307 51.3142 47.3442C48.6839 47.1496 50.3962 44.3012 52.0665 45.286C52.8389 45.7436 52.9451 46.4238 52.7045 47.0888C52.3689 48.0184 51.3496 48.9234 50.5193 49.1453C49.5387 49.4085 48.6851 49.3388 47.3791 48.5188Z" fill="#CCAD62"/>
</g>
</g>
<path id="Vector_14" d="M68.6037 47.2849L68.6427 47.2813C70.5098 48.2385 73.8645 49.0278 75.8351 48.7031L75.8382 48.6993C76.019 48.9059 76.3088 49.084 76.6351 49.2166L76.6237 49.2386C76.1452 49.4054 75.8376 49.5799 75.6613 49.7588L75.6272 49.7314C73.8169 49.1693 70.5245 48.526 68.3431 47.8852L68.3375 47.8782C68.5459 47.7013 68.6238 47.4957 68.6037 47.2849Z" fill="#095195"/>
<path id="Vector_15" d="M69.2945 47.4267C71.5032 47.977 72.1662 49.513 72.5497 50.8339L72.5681 50.845C72.4908 50.9851 72.4246 51.1606 72.3767 51.3741L72.3524 51.3846C72.2773 51.2262 72.1952 51.1032 72.1089 51.0081L72.1216 50.996C71.66 49.4772 70.2458 48.0198 68.4675 47.6967C68.6496 47.6179 68.8186 47.5223 68.977 47.4113C69.082 47.4189 69.188 47.4218 69.2945 47.4267Z" fill="#095195"/>
<path id="Vector_16" d="M72.3709 46.6765C72.4432 46.6574 72.5153 46.6352 72.5901 46.6097C75.0989 48.2547 80.596 44.0331 78.2832 42.9319C78.941 42.2543 80.0098 42.3382 80.6139 42.9519C80.6887 43.0253 80.7549 43.1056 80.811 43.1945C80.8401 43.2412 80.8692 43.2879 80.8938 43.3366C81.2433 42.9286 81.9752 42.1174 82.7148 41.6205C83.1187 41.3481 83.5253 41.1711 83.8762 41.2078C84.1176 41.23 84.3301 41.3553 84.4922 41.6197C84.5624 41.7259 84.6209 41.8563 84.6714 42.0168C84.7631 41.9403 84.8726 41.8559 84.9929 41.7721C85.8006 41.2102 87.1578 40.6123 87.9511 41.2023C88.0392 41.2697 88.1194 41.3502 88.1917 41.4469C89.437 40.4117 93.2855 40.2636 92.534 42.7986C92.5268 42.8209 92.5066 42.8691 92.4784 42.9304C92.3915 42.9262 92.3038 42.9297 92.2158 42.9302C92.1056 42.4942 91.6952 41.9535 90.286 42.1099C88.4272 42.3145 86.718 42.9622 85.0298 44.0342C84.9962 44.0543 81.9891 46.0016 80.0597 46.8707C75.5636 48.8969 71.4436 48.7013 66.8825 47.4874C66.9321 47.2743 66.9803 47.0629 67.0168 46.8587C68.6781 47.6146 70.6407 47.1826 72.3709 46.6765Z" fill="#8DD4DA"/>
<path id="Vector_17" d="M76.6267 49.2399L76.6382 49.218C76.3098 49.0862 76.022 48.9072 75.8412 48.7007C75.5319 48.3497 75.5409 47.9102 76.2238 47.4535C76.5185 47.2562 80.1638 46.3788 78.5549 45.1239C80.5863 45.0464 80.6141 47.6842 78.7868 48.1442C79.9485 48.1473 81.4679 49.1706 82.2562 50.0028C81.5231 50.7935 79.6076 51.2174 78.845 51.1508C80.0404 51.916 80.7237 54.1887 78.253 54.4246C80.5365 52.8727 74.3102 51.1371 75.6662 49.7641C75.8407 49.5812 76.1482 49.4067 76.6267 49.2399Z" fill="#095195"/>
<path id="Vector_18" d="M71.9213 52.472C71.8765 52.734 71.9777 53.0248 72.2088 53.2251C72.2283 53.2405 72.2457 53.2563 72.2673 53.2711L72.2657 53.2738C72.1387 53.5024 72.0033 53.6704 71.8644 53.7877C70.8458 54.6585 69.6717 52.8862 71.2108 52.5338L71.214 52.5196C71.3832 52.5516 71.5947 52.5552 71.8474 52.5261L71.9213 52.472Z" fill="#095195"/>
<path id="Vector_19" d="M72.2661 53.2694C72.5974 53.5121 73.0473 53.4835 73.2963 53.1955L73.3532 53.2441C73.4531 53.3582 73.522 53.4733 73.5671 53.5831C74.0269 54.6968 72.0165 55.4887 71.8895 53.8197L71.8616 53.7886C72.0022 53.6686 72.1375 53.5006 72.263 53.2746L72.2661 53.2694Z" fill="#095195"/>
<path id="Vector_20" d="M72.5986 51.8565L72.6042 51.9156C72.4317 51.9337 72.2702 52.0141 72.1539 52.1504C72.072 52.2447 72.0222 52.3601 71.9998 52.4776L71.9232 52.5302C71.6705 52.5592 71.4611 52.5551 71.2898 52.5237C69.8184 52.2544 71.2589 50.0132 72.1841 51.0161C72.2704 51.1112 72.3524 51.2342 72.4275 51.3926C72.4906 51.5203 72.5472 51.6765 72.5986 51.8565Z" fill="#095195"/>
<path id="Vector_21" d="M73.2964 53.1959C73.5158 52.9422 73.5123 52.5667 73.3136 52.2799L73.3685 52.2394C73.5179 52.1463 73.6573 52.0849 73.7897 52.0498C75.1411 51.6723 75.5072 54.0168 73.6106 53.5594L73.5667 53.5815C73.5216 53.4717 73.4527 53.3566 73.3528 53.2425L73.2964 53.1959Z" fill="#095195"/>
<path id="Vector_22" d="M73.315 52.2787C73.2729 52.2175 73.2234 52.1625 73.166 52.1118C72.9786 51.9521 72.7441 51.8826 72.5288 51.909L72.5231 51.85C72.4718 51.67 72.4152 51.5138 72.3521 51.386L72.3764 51.3755C72.4264 51.1615 72.4906 50.9865 72.5679 50.8464C73.2369 49.6321 74.7932 50.9938 73.7885 52.0471L73.789 52.0492C73.6566 52.0843 73.5172 52.1457 73.3678 52.2388L73.315 52.2787Z" fill="#095195"/>
<path id="Vector_23" d="M80.5149 46.0163L80.5221 46.0148C80.8048 45.9855 81.0857 45.9523 81.3691 45.9164C81.6401 45.8821 81.9126 45.8453 82.1837 45.8067C82.4581 45.7684 82.7313 45.7294 83.0065 45.6899C84.2757 45.5089 85.7211 45.5064 86.221 46.9152C84.4509 46.8607 85.4534 49.2507 86.8472 48.0841C87.8026 47.285 87.2501 45.82 85.9206 45.2926C85.2797 45.0377 84.4698 44.9944 83.7977 44.9644C85.5617 44.544 88.398 45.2111 89.6563 46.3724C90.1012 46.3406 90.5617 46.4221 90.9928 46.6318C91.0313 46.6515 91.0705 46.6698 91.1071 46.6909L91.1077 46.6887C90.5123 46.0505 89.5537 45.3251 88.7885 45.0046C87.1744 44.3271 84.9101 44.3642 83.2063 44.6005C81.6731 44.8133 80.7697 44.9184 79.2276 45.3407L79.2263 45.3495C79.7001 45.3779 80.3922 45.5566 80.5149 46.0163Z" fill="#8DD4DA"/>
<path id="Vector_24" d="M84.5617 48.6161L84.5918 48.6365C84.6692 48.5878 84.7455 48.5694 84.8215 48.5746L84.8223 48.553C84.8221 47.1285 83.3884 45.7467 82.1838 45.8048C81.9117 45.8436 81.6402 45.8802 81.3692 45.9145C84.3123 46.1039 84.5191 48.2859 84.5617 48.6161Z" fill="#095195"/>
<path id="Vector_25" d="M84.5915 48.6369C84.4895 48.7004 84.3885 48.8193 84.2887 49.0033C83.9259 49.6802 84.9321 50.9595 83.8726 51.1653C84.1927 51.4866 84.7713 51.4294 84.8692 50.9558C84.9422 51.3276 85.3504 51.7906 85.6857 51.993C85.9728 51.5529 86.0078 51.2404 85.8424 50.7865C86.4245 51.3473 86.9382 50.9411 86.9781 50.3461C86.6321 50.816 86.193 50.3232 85.9735 49.9569C85.7274 49.546 85.2858 48.6107 84.8202 48.5752C84.746 48.5686 84.6686 48.5872 84.5915 48.6369Z" fill="#CCAD62"/>
<path id="Vector_26" d="M89.6568 46.3723C88.746 46.4373 87.8958 46.9719 87.4682 47.852C86.8893 49.0459 87.2901 50.4619 88.3565 51.1858C88.4615 51.2565 88.5715 51.3208 88.6885 51.3771C88.8066 51.4343 88.9259 51.4816 89.0455 51.5203C90.2736 51.9089 91.6343 51.3487 92.2136 50.1569C92.8315 48.8851 92.3349 47.3611 91.1066 46.6911C91.07 46.67 91.0316 46.6504 90.9923 46.632C90.5622 46.422 90.1027 46.3403 89.6568 46.3723ZM91.0321 49.0745C92.4914 49.1622 91.6035 50.9892 90.6338 49.8959C91.6035 50.9892 89.685 51.6535 89.7717 50.1944C89.685 51.6535 87.8569 50.7658 88.9513 49.7959C87.858 50.7656 87.1935 48.8461 88.6526 48.9328C87.1935 48.8461 88.0803 47.0192 89.0509 48.1114C88.0803 47.0192 89.9998 46.3547 89.9132 47.8139C89.9988 46.355 91.8277 47.2414 90.7336 48.2124C91.8269 47.2426 92.4904 49.1624 91.0321 49.0745Z" fill="#095195"/>
<path id="Vector_27" d="M90.7333 48.2141C91.8265 47.2433 89.9986 46.3566 89.913 47.8155C89.9986 46.3566 88.0801 47.0209 89.0507 48.1131C88.0801 47.0209 87.1933 48.8478 88.6524 48.9345C87.1933 48.8478 87.8578 50.7673 88.9511 49.7975C87.8578 50.7673 89.6848 51.6552 89.7715 50.1961C89.6848 51.6552 91.6044 50.9907 90.6336 49.8975C91.6033 50.9909 92.4912 49.1638 91.0319 49.0761C92.49 49.163 91.8265 47.2433 90.7333 48.2141ZM90.3766 49.2653C90.2332 49.5613 89.8764 49.6846 89.5801 49.5402C89.2841 49.3968 89.1618 49.0398 89.3054 48.7447C89.4488 48.4487 89.8046 48.3257 90.1017 48.4688C90.3979 48.6132 90.521 48.969 90.3766 49.2653Z" fill="#CCAD62"/>
<path id="Vector_28" d="M90.0756 48.5102C89.7796 48.3669 89.4228 48.4901 89.2794 48.7862C89.136 49.0822 89.2591 49.438 89.5541 49.5816C89.8501 49.725 90.207 49.6017 90.3506 49.3067C90.4942 49.0117 90.3719 48.6546 90.0756 48.5102Z" fill="white"/>
<path id="Vector_29" d="M64.2451 46.7804C66.667 47.241 69.2553 46.8434 71.3726 45.5617C71.5168 45.4745 71.6625 45.3756 71.8047 45.265C73.3325 44.0826 74.668 41.6827 74.882 39.4309C75.0297 37.8539 74.6317 36.3506 73.3704 35.3892C71.7038 34.1173 67.859 35.3276 68.8562 37.8023C69.7063 39.9069 72.3685 38.2216 70.9272 36.6416C72.0932 36.2352 72.9968 36.8353 73.4114 37.8546C74.5007 40.5283 72.3456 43.7393 70.1498 45.1739C68.2321 46.4258 66.1432 46.3355 64.0323 45.9135C63.9288 45.8941 63.8237 45.8689 63.7213 45.8477C63.9546 46.1238 64.1299 46.4425 64.2451 46.7804Z" fill="#8DD4DA"/>
<path id="Vector_30" d="M68.2763 48.5188C67.4152 47.6327 65.7559 45.5405 64.5647 45.7275C64.3703 45.7577 64.1871 45.8504 64.0231 46.0183C63.8048 46.2386 63.6199 46.5973 63.4798 47.1206C62.9663 49.0349 66.2482 51.6553 63.7065 52.7987C64.7001 53.4184 66.1194 52.9329 66.0889 51.684C66.2691 52.0871 66.6381 52.4919 67.0704 52.8463C67.5968 53.2802 68.224 53.6375 68.7531 53.8073C69.0784 52.9097 69.1212 52.2447 68.8861 51.5675C68.7851 51.2815 68.6407 50.992 68.4359 50.6842C70.2294 51.7474 71.2824 50.426 71.0311 48.905C70.4369 50.2889 69.0455 49.3085 68.2763 48.5188Z" fill="#CCAD62"/>
<path id="Vector_31" d="M46.2857 72.2922L46.284 72.3314C47.3251 74.1529 48.2663 77.4682 48.0316 79.4516L48.028 79.4548C48.2425 79.626 48.4336 79.9074 48.581 80.2274L48.6024 80.215C48.7473 79.7294 48.9076 79.4142 49.0783 79.2299L49.0494 79.1971C48.4054 77.4142 47.613 74.1545 46.8736 72.0046L46.8663 71.9993C46.6991 72.2155 46.4973 72.3027 46.2857 72.2922Z" fill="#095195"/>
<path id="Vector_32" d="M46.458 72.9749C47.1082 75.1563 48.6728 75.7487 50.0097 76.0716L50.0217 76.0896C50.1581 76.006 50.3304 75.9318 50.5415 75.8742L50.5509 75.8495C50.3893 75.7817 50.2626 75.7053 50.1637 75.6234L50.1522 75.6367C48.614 75.2447 47.0938 73.8982 46.69 72.1365C46.6196 72.322 46.5318 72.4952 46.4281 72.6585C46.4405 72.763 46.4482 72.8687 46.458 72.9749Z" fill="#095195"/>
<path id="Vector_33" d="M45.849 76.0831C45.8332 76.1562 45.8144 76.2292 45.7923 76.3051C47.5497 78.7364 43.5827 84.4199 42.3774 82.1596C41.7304 82.8477 41.8629 83.9115 42.5035 84.487C42.5801 84.5584 42.6634 84.6208 42.7548 84.6729C42.8028 84.6998 42.8507 84.7268 42.9005 84.7491C42.5089 85.1169 41.7318 85.8849 41.2691 86.6464C41.0153 87.0622 40.857 87.4764 40.9096 87.8253C40.9428 88.0655 41.0777 88.272 41.3491 88.422C41.4584 88.4872 41.5914 88.5397 41.754 88.5829C41.6818 88.678 41.6025 88.7912 41.5242 88.9152C40.9996 89.7476 40.4642 91.1306 41.0896 91.8963C41.1609 91.9812 41.2451 92.0576 41.345 92.1255C40.3675 93.4166 40.3947 97.2678 42.8928 96.4018C42.9148 96.3936 42.962 96.3712 43.022 96.3402C43.0138 96.2536 43.0134 96.1658 43.0099 96.0779C42.5693 95.9876 42.0104 95.6023 42.1025 94.1874C42.2223 92.3213 42.7916 90.5843 43.7856 88.8491C43.8042 88.8146 45.6126 85.722 46.393 83.755C48.2125 79.1713 47.8295 75.0645 46.4093 70.5635C46.1987 70.6227 45.9897 70.6804 45.7874 70.7262C46.6181 72.3514 46.2758 74.3316 45.849 76.0831Z" fill="#8DD4DA"/>
<path id="Vector_34" d="M48.6032 80.2176L48.5817 80.2301C48.4352 79.9081 48.2433 79.6287 48.0287 79.4575C47.664 79.1645 47.2254 79.1935 46.8002 79.8964C46.6165 80.1998 45.906 83.8813 44.5791 82.3311C44.5942 84.3639 47.2305 84.2717 47.6068 82.4254C47.6629 83.5857 48.7542 85.057 49.6215 85.8066C50.378 85.0383 50.7142 83.1054 50.613 82.3467C51.4318 83.506 53.7333 84.0851 53.8564 81.6063C52.4101 83.958 50.3929 77.8172 49.0831 79.2342C48.9083 79.4169 48.748 79.732 48.6032 80.2176Z" fill="#095195"/>
<path id="Vector_35" d="M51.6187 75.3714C51.8784 75.3147 52.1735 75.4025 52.3841 75.6243C52.4003 75.6431 52.417 75.6597 52.4328 75.6806L52.4353 75.6789C52.6579 75.5416 52.8196 75.3987 52.9305 75.2546C53.754 74.1975 51.9301 73.1052 51.6481 74.6588L51.6341 74.6626C51.6737 74.8302 51.6869 75.0413 51.6694 75.295L51.6187 75.3714Z" fill="#095195"/>
<path id="Vector_36" d="M52.4305 75.6779C52.688 75.9978 52.6799 76.4486 52.4036 76.7104L52.4547 76.765C52.5733 76.8597 52.6914 76.9232 52.8031 76.9633C53.9366 77.3719 54.6361 75.3275 52.9631 75.2767L52.9307 75.2502C52.8173 75.3961 52.6557 75.5389 52.4356 75.6745L52.4305 75.6779Z" fill="#095195"/>
<path id="Vector_37" d="M51.0342 76.0742L51.0935 76.0772C51.1037 75.9041 51.1767 75.7391 51.3076 75.6167C51.398 75.5305 51.511 75.4755 51.6275 75.4478L51.6765 75.3689C51.694 75.1152 51.6804 74.9062 51.6412 74.7365C51.3052 73.2788 49.1319 74.8199 50.1758 75.6985C50.2747 75.7804 50.4014 75.8567 50.563 75.9245C50.6935 75.9817 50.8521 76.0312 51.0342 76.0742Z" fill="#095195"/>
<path id="Vector_38" d="M52.4037 76.711C52.1602 76.9417 51.7849 76.9553 51.4894 76.7697L51.4514 76.8265C51.3653 76.98 51.3102 77.122 51.2812 77.2559C50.9656 78.6231 53.3243 78.8821 52.7811 77.0082L52.8011 76.9634C52.6894 76.9233 52.5713 76.8598 52.4527 76.7651L52.4037 76.711Z" fill="#095195"/>
<path id="Vector_39" d="M51.489 76.7709C51.4259 76.7317 51.3688 76.6848 51.3155 76.6297C51.1475 76.4498 51.0673 76.2186 51.084 76.0024L51.0247 75.9994C50.8426 75.9563 50.684 75.9069 50.5535 75.8497L50.5441 75.8744C50.3325 75.9341 50.1607 76.0062 50.0242 76.0898C48.8416 76.8134 50.2727 78.3061 51.2792 77.2545L51.2813 77.2549C51.3103 77.121 51.3654 76.979 51.4515 76.8255L51.489 76.7709Z" fill="#095195"/>
<path id="Vector_40" d="M45.5605 84.249L45.5593 84.2562C45.5429 84.54 45.5225 84.822 45.4995 85.1068C45.4776 85.3791 45.4533 85.653 45.427 85.9256C45.4013 86.2014 45.3748 86.4761 45.3478 86.7528C45.2248 88.029 45.2881 89.473 46.7182 89.9082C46.5832 88.1424 49.0163 89.0351 47.9143 90.4806C47.1596 91.4714 45.671 90.9861 45.0836 89.682C44.7997 89.0533 44.7196 88.2463 44.6591 87.5763C44.3194 89.3576 45.1149 92.1606 46.3323 93.3647C46.3207 93.8105 46.4231 94.2669 46.6523 94.688C46.6736 94.7255 46.6938 94.7639 46.7165 94.7995L46.7143 94.8002C46.0497 94.2345 45.2814 93.3098 44.9265 92.56C44.1761 90.9784 44.1101 88.7148 44.2687 87.002C44.4114 85.4607 44.4753 84.5534 44.827 82.9938L44.8358 82.9921C44.8857 83.4641 45.0957 84.1473 45.5605 84.249Z" fill="#8DD4DA"/>
<path id="Vector_41" d="M48.3412 88.1728L48.3629 88.2018C48.3178 88.2813 48.3029 88.3584 48.3115 88.4342L48.29 88.4359C46.8669 88.5006 45.4213 87.1312 45.4245 85.9253C45.4509 85.6517 45.4751 85.3787 45.497 85.1065C45.8202 88.0379 48.0094 88.1452 48.3412 88.1728Z" fill="#095195"/>
<path id="Vector_42" d="M48.3638 88.2011C48.4226 88.0963 48.5368 87.9901 48.7161 87.8819C49.3757 87.4887 50.6995 88.4357 50.8569 87.3679C51.1924 87.673 51.1616 88.2536 50.6929 88.373C51.0677 88.429 51.5488 88.8156 51.7663 89.1415C51.3396 89.4483 51.029 89.4974 50.5682 89.3529C51.1548 89.9088 50.7725 90.4405 50.1799 90.5075C50.6335 90.1404 50.1212 89.7242 49.7454 89.5216C49.3237 89.2945 48.3692 88.8959 48.3126 88.4324C48.3026 88.3586 48.3177 88.2804 48.3638 88.2011Z" fill="#CCAD62"/>
<path id="Vector_43" d="M46.3319 93.3639C46.3553 92.4511 46.8507 91.5774 47.7104 91.1103C48.8767 90.4776 50.3096 90.8135 51.0812 91.8459C51.1566 91.9476 51.2258 92.0546 51.2874 92.1688C51.3499 92.2842 51.4026 92.4012 51.4467 92.5189C51.8908 93.7281 51.3931 95.1128 50.2289 95.7458C48.9866 96.421 47.4415 95.9942 46.7163 94.7977C46.6936 94.7621 46.6722 94.7246 46.6521 94.6862C46.4227 94.2661 46.3202 93.8108 46.3319 93.3639ZM49.0938 94.6148C49.2478 96.0686 51.0326 95.0985 49.8962 94.1795C51.0326 95.0985 51.6089 93.1518 50.1552 93.3047C51.6089 93.1518 50.6389 91.366 49.7198 92.5034C50.6388 91.367 48.691 90.7905 48.844 92.2442C48.691 90.7905 46.9064 91.7596 48.0416 92.6795C46.9064 91.7596 46.3299 93.7074 47.7836 93.5544C46.3301 93.7064 47.2989 95.493 48.2191 94.3558C47.3001 95.4922 49.248 96.0676 49.0938 94.6148Z" fill="#095195"/>
<path id="Vector_44" d="M48.2213 94.3555C47.3013 95.4917 46.3323 93.706 47.7858 93.5541C46.3323 93.706 46.9086 91.7593 48.0438 92.6791C46.9086 91.7593 48.6932 90.7902 48.8462 92.2438C48.6932 90.7902 50.641 91.3666 49.722 92.503C50.641 91.3666 51.6111 93.1514 50.1575 93.3044C51.6111 93.1514 51.0347 95.0992 49.8985 94.1792C51.0349 95.0982 49.2501 96.0683 49.0961 94.6145C49.2492 96.0671 47.3013 95.4917 48.2213 94.3555ZM49.2552 93.9512C49.5444 93.7945 49.6513 93.4324 49.4935 93.1431C49.3368 92.8539 48.9746 92.748 48.6864 92.9049C48.3972 93.0615 48.2905 93.4226 48.447 93.7128C48.6047 94.0022 48.9658 94.109 49.2552 93.9512Z" fill="#CCAD62"/>
<path id="Vector_45" d="M45.582 67.9606C46.1523 70.359 45.8729 72.9627 44.6889 75.1361C44.6084 75.2842 44.5162 75.4342 44.4122 75.5813C43.3005 77.1614 40.9639 78.6048 38.7242 78.921C37.1556 79.1403 35.6357 78.8112 34.6179 77.5949C33.2714 75.988 34.3055 72.092 36.8231 72.9756C38.9641 73.729 37.4018 76.4652 35.7578 75.0973C35.4049 76.2805 36.0455 77.1559 37.0826 77.5236C39.8031 78.4901 42.9127 76.1911 44.2458 73.9323C45.4092 71.9596 45.2239 69.877 44.7062 67.7875C44.6822 67.685 44.6522 67.5811 44.6264 67.4798C44.9128 67.7003 45.2391 67.8609 45.582 67.9606Z" fill="#8DD4DA"/>
<path id="Vector_46" d="M47.5032 71.9085C46.5789 71.0887 44.4133 69.5263 44.5459 68.3279C44.5673 68.1323 44.6515 67.945 44.8118 67.7736C45.0219 67.5455 45.3718 67.3444 45.8882 67.1807C47.7772 66.5805 50.5442 69.7398 51.5708 67.1487C52.235 68.1131 51.8146 69.553 50.5656 69.5793C50.9765 69.741 51.3977 70.0912 51.7714 70.507C52.2288 71.0131 52.6143 71.6233 52.808 72.1442C51.9261 72.51 51.2638 72.583 50.5766 72.379C50.2863 72.2911 49.9905 72.16 49.6737 71.9694C50.8174 73.7127 49.5453 74.8247 48.0144 74.6429C49.3699 73.9864 48.3271 72.641 47.5032 71.9085Z" fill="#CCAD62"/>
</g>
<defs>
<filter id="filter0_d_3602_16445" x="0.0244141" y="0.877686" width="126.606" height="129.65" filterUnits="userSpaceOnUse" color-interpolation-filters="sRGB">
<feFlood flood-opacity="0" result="BackgroundImageFix"/>
<feColorMatrix in="SourceAlpha" type="matrix" values="0 0 0 0 0 0 0 0 0 0 0 0 0 0 0 0 0 0 127 0" result="hardAlpha"/>
<feOffset/>
<feGaussianBlur stdDeviation="17"/>
<feComposite in2="hardAlpha" operator="out"/>
<feColorMatrix type="matrix" values="0 0 0 0 0 0 0 0 0 0 0 0 0 0 0 0 0 0 0.15 0"/>
<feBlend mode="normal" in2="BackgroundImageFix" result="effect1_dropShadow_3602_16445"/>
<feBlend mode="normal" in="SourceGraphic" in2="effect1_dropShadow_3602_16445" result="shape"/>
</filter>
</defs>
</svg>
