<svg width="136" height="47" viewBox="0 0 136 47" fill="none" xmlns="http://www.w3.org/2000/svg">
<g id="Group 220">
<g id="Group">
<path id="Vector" d="M91.585 29.7353C91.7605 29.72 91.9302 29.6949 92.0927 29.6712C96.5249 29.0313 101.485 27.9542 104.011 23.9577L104.01 23.902C103.589 23.8805 103.21 23.8014 102.88 23.6673C98.1257 28.1597 87.3044 30.3875 82.3416 24.8625C80.8609 23.2171 80.3638 21.2083 81.7191 19.2945C82.6915 23.3837 88.6367 21.2877 86.0124 17.1538C83.6613 13.4604 77.8798 16.0426 76.697 19.4054C73.4247 28.6971 85.4298 30.45 91.585 29.7353Z" fill="#8DD4DA"/>
</g>
<g id="Group_2">
<path id="Vector_2" d="M42.5138 31.2685C42.6892 31.2532 42.8589 31.2281 43.0214 31.2045C47.4536 30.5645 52.4141 29.4874 54.9396 25.4909L54.9389 25.4352C54.5172 25.4137 54.1391 25.3346 53.8087 25.2005C49.0545 29.6929 38.2331 31.9207 33.2703 26.3957C31.7897 24.7503 31.2925 22.7415 32.6478 20.8277C33.6203 24.9169 39.5654 22.8209 36.9412 18.687C34.59 14.9936 28.8086 17.5758 27.6257 20.9386C24.3534 30.2303 36.3585 31.9832 42.5138 31.2685Z" fill="#8DD4DA"/>
</g>
<path id="Vector_3" d="M51.829 26.4895C47.0009 31.7069 46.7116 33.549 38.499 34.9868C37.935 35.4852 37.1539 35.8035 36.1927 35.8711C36.1055 35.8755 36.0192 35.8829 35.932 35.883L35.935 35.8875C37.8627 36.3958 40.446 36.6928 42.0625 36.4833C45.4752 36.0441 48.5612 33.7231 50.5242 31.6167C52.2905 29.721 53.3661 28.6391 54.7837 26.3728L54.7703 26.3562C54.0624 26.7795 52.7918 27.1609 51.829 26.4895Z" fill="#095195"/>
<g id="Group_3">
<path id="Vector_4" d="M17.9781 22.7325C18.1536 22.7477 18.3232 22.7729 18.4858 22.7965C22.918 23.4365 27.8785 24.5135 30.404 28.5101L30.4032 28.5658C29.9816 28.5872 29.6034 28.6664 29.2731 28.8005C24.5188 24.3081 13.6975 22.0803 8.73468 27.6053C7.25401 29.2507 6.75686 31.2594 8.11219 33.1733C9.08461 29.0841 15.0298 31.1801 12.4055 35.314C10.0543 39.0074 4.27291 36.4251 3.09004 33.0624C-0.182248 23.7707 11.8228 22.0178 17.9781 22.7325Z" fill="#8DD4DA"/>
</g>
<path id="Vector_5" d="M75.4413 23.6006C70.11 21.8266 68.7701 17.9202 68.0774 14.5966L68.0342 14.5658C68.251 14.2356 68.4475 13.8163 68.6059 13.2999L68.6677 13.2787C68.8224 13.6827 69.0009 14.0012 69.1952 14.2516L69.1617 14.279C70.0092 18.1046 73.2128 21.9601 77.5279 23.0934C77.0648 23.2526 76.6308 23.4559 76.2197 23.6989C75.9629 23.6602 75.7026 23.6331 75.4413 23.6006Z" fill="#095195"/>
<path id="Vector_6" d="M39.7081 36.0166L39.7043 36.0657C40.4073 36.0514 41.073 36.155 41.5644 36.3922C42.403 36.7937 42.7284 37.6047 41.8343 38.9711C41.4487 39.5612 35.4629 44.0008 39.3818 45.0452C35.7262 46.7666 33.6241 41.963 36.6089 39.7008C34.4815 40.5983 30.9064 39.9081 28.8172 38.9988C29.5433 36.9824 32.7177 34.7174 34.1644 34.2462C31.3828 33.776 28.3656 30.1502 32.7016 27.7975C29.7314 32.4118 42.4702 30.745 41.0575 34.3108C40.8805 34.7811 40.4537 35.3394 39.7081 36.0166Z" fill="#095195"/>
<path id="Vector_7" d="M71.6319 12.4078C71.7921 11.7714 71.5982 11.0365 71.0675 10.4995C71.0224 10.4581 70.9827 10.4158 70.9324 10.3752L70.9368 10.3691C71.2929 9.83049 71.6579 9.44279 72.0221 9.18043C74.6944 7.23081 77.2473 11.8158 73.3924 12.3906L73.3818 12.425C72.9714 12.3141 72.4516 12.2651 71.8242 12.2885L71.6319 12.4078Z" fill="#095195"/>
<path id="Vector_8" d="M70.9393 10.3795C70.1702 9.71915 69.0574 9.70413 68.3899 10.3656L68.2592 10.2351C68.0348 9.93526 67.8872 9.63887 67.797 9.36009C66.8771 6.5317 71.9755 4.96494 71.9707 9.09653L72.0335 9.17853C71.6648 9.44708 71.2998 9.83478 70.9481 10.3672L70.9393 10.3795Z" fill="#095195"/>
<path id="Vector_9" d="M69.8517 13.7931L69.849 13.6466C70.2769 13.6348 70.6898 13.4677 71.0019 13.1542C71.2215 12.9378 71.366 12.6633 71.4434 12.3782L71.6419 12.2633C72.2693 12.2399 72.7838 12.2898 73.1995 12.3998C76.7697 13.3421 72.7984 18.5842 70.712 15.9403C70.5177 15.6898 70.3392 15.3714 70.1844 14.9674C70.0536 14.641 69.9439 14.2457 69.8517 13.7931Z" fill="#095195"/>
<path id="Vector_10" d="M68.3894 10.365C67.8012 10.9479 67.7384 11.8727 68.1731 12.6163L68.0303 12.7055C67.6448 12.9061 67.2901 13.0308 66.9575 13.092C63.5598 13.7644 63.1043 7.92475 67.6853 9.41075L67.7974 9.36478C67.8876 9.64357 68.0352 9.93995 68.2596 10.2398L68.3894 10.365Z" fill="#095195"/>
<path id="Vector_11" d="M68.1682 12.6172C68.2601 12.776 68.3714 12.9207 68.503 13.0565C68.9339 13.485 69.498 13.7007 70.0327 13.6765L70.0355 13.823C70.1276 14.2756 70.2373 14.6708 70.3682 14.9972L70.3064 15.0185C70.1427 15.5357 69.9515 15.9542 69.7347 16.2844C67.8573 19.1458 64.2859 15.4988 66.9587 13.0974L66.9578 13.0921C67.2905 13.0309 67.6451 12.9062 68.0306 12.7056L68.1682 12.6172Z" fill="#095195"/>
<path id="Vector_12" d="M26.759 23.4543L26.7413 23.4506C26.074 23.2339 25.4071 23.0279 24.7315 22.8254C24.0857 22.6317 23.4338 22.442 22.7834 22.258C22.126 22.0698 21.4705 21.8846 20.81 21.6984C17.7646 20.8373 14.5003 19.3969 14.7817 15.7177C18.7217 17.6115 18.8501 11.2152 14.5377 12.4535C11.5824 13.3009 11.3637 17.1597 13.8363 19.6799C15.0277 20.8963 16.8118 21.8042 18.2986 22.544C13.8973 21.7282 8.16402 17.3855 6.48626 13.5062C5.45051 13.133 4.49284 12.4884 3.72972 11.5837C3.66261 11.5009 3.59245 11.4202 3.53092 11.336L3.52733 11.3405C4.23253 13.3762 5.67019 15.9723 7.07636 17.4608C10.0412 20.6045 15.188 22.786 19.2692 23.957C22.9421 25.0105 25.0858 25.6771 28.9881 26.2667L29 26.248C27.9592 25.7101 26.5761 24.6145 26.759 23.4543Z" fill="#095195"/>
<path id="Vector_13" d="M19.2355 13.8654L19.1881 13.7894C18.9648 13.8218 18.7741 13.787 18.6077 13.6993L18.5845 13.7472C17.1598 16.962 19.013 21.5144 21.7893 22.5884C22.4423 22.773 23.0916 22.9621 23.7374 23.1558C17.2854 19.7842 19.0015 14.6531 19.2355 13.8654Z" fill="#095195"/>
<g id="Group_4">
<path id="Vector_14" d="M68.5831 21.1983C68.7586 21.2136 68.9282 21.2387 69.0907 21.2623C73.5229 21.9023 78.4834 22.9794 81.009 26.9759L81.0082 27.0316C80.5866 27.0531 80.2084 27.1322 79.878 27.2663C75.1238 22.7739 64.3025 20.5461 59.3397 26.0711C57.859 27.7165 57.3618 29.7253 58.7172 31.6391C59.6896 27.5499 65.6347 29.6459 63.0105 33.7798C60.6593 37.4732 54.8779 34.891 53.695 31.5282C50.4227 22.2365 62.4278 20.4836 68.5831 21.1983Z" fill="#8DD4DA"/>
</g>
<path id="Vector_15" d="M19.1911 13.7893C19.4849 13.748 19.8316 13.5805 20.241 13.2652C21.7369 12.1008 20.7459 8.20723 23.3428 8.80259C22.9418 7.75743 21.5789 7.30761 20.884 8.27847C21.0914 7.3663 20.6335 5.91317 20.0791 5.12092C18.991 5.82706 18.5995 6.49728 18.5187 7.68683C17.7661 5.83919 16.2005 6.24179 15.5151 7.54465C16.766 6.83044 17.264 8.38175 17.3928 9.42787C17.5372 10.6013 17.598 13.1538 18.6133 13.6996C18.7741 13.7888 18.9673 13.8241 19.1911 13.7893Z" fill="#CCAD62"/>
<path id="Vector_16" d="M5.49282 13.8331C7.6133 14.5978 10.0668 14.2416 11.912 12.6833C14.4126 10.5682 14.9248 6.97176 13.2424 4.27153C13.0761 4.00695 12.8921 3.75182 12.6846 3.50762C12.4752 3.26036 12.2534 3.03427 12.0222 2.82735C9.6394 0.721925 6.00856 0.624938 3.50897 2.73494C0.842323 4.98675 0.4384 8.92277 2.54002 11.6635C2.60154 11.7477 2.66865 11.8304 2.73882 11.9111C3.49941 12.8153 4.45455 13.4594 5.49282 13.8331ZM5.09238 6.35952C1.88689 4.7018 5.71828 1.4669 6.81296 4.9044C5.71828 1.4669 10.7122 1.88701 9.057 5.09303C10.7122 1.88701 13.9496 5.71892 10.5096 6.81307C13.9471 5.71839 13.5265 10.7148 10.3204 9.05964C13.5265 10.7148 9.69761 13.9503 8.59987 10.5148C9.69761 13.9503 4.70116 13.5296 6.35635 10.3236C4.70369 13.5302 1.46319 9.70024 4.90374 8.60357C1.46625 9.69824 1.88942 4.70233 5.09238 6.35952Z" fill="#095195"/>
<path id="Vector_17" d="M4.90473 8.60079C1.4667 9.69799 4.70467 13.5274 6.35733 10.3208C4.70467 13.5274 9.69859 13.9475 8.60085 10.512C9.69859 13.9475 13.5274 10.712 10.3214 9.05686C13.5274 10.712 13.9481 5.71561 10.5106 6.81029C13.9481 5.71561 10.7132 1.88423 9.05798 5.09025C10.7132 1.88423 5.71674 1.46359 6.81394 4.90162C5.71927 1.46412 1.88787 4.69903 5.09336 6.35675C1.88987 4.70209 1.4667 9.69799 4.90473 8.60079ZM6.76138 6.58549C7.38105 6.06086 8.30965 6.13965 8.83375 6.76186C9.35839 7.38153 9.27708 8.3096 8.65794 8.83171C8.03826 9.35634 7.11219 9.27808 6.58503 8.65787C6.06092 8.03567 6.13917 7.1096 6.76138 6.58549Z" fill="#CCAD62"/>
<path id="Vector_18" d="M6.68674 8.58818C7.21138 9.20786 8.13998 9.28665 8.75965 8.76202C9.37933 8.23738 9.45758 7.31131 8.93547 6.69217C8.41083 6.07249 7.48224 5.99369 6.86309 6.5158C6.24395 7.03791 6.16264 7.96598 6.68674 8.58818Z" fill="white"/>
<g id="Group 193">
<g id="Group_5">
<path id="Vector_19" d="M134.749 25.7396C130.641 23.7503 131.074 20.5821 126.266 21.8485C127.362 18.2521 123.923 16.6266 121.519 18.2245C123.361 13.4722 119.645 13.6426 118.014 11.7546C115.772 17.3357 109.095 16.645 107.755 21.4479C105.927 19.3112 103.086 21.1347 103.574 23.2944C102.013 23.2944 100.921 24.3259 100.921 25.735C100.921 27.1441 102.017 28.1755 103.574 28.1755C103.086 30.3352 105.927 32.1541 107.755 30.0221C109.095 34.825 115.772 34.1342 118.014 39.7153C119.649 37.8273 123.361 37.9977 121.519 33.2455C123.918 34.848 127.358 33.2225 126.266 29.6215C131.074 30.897 130.641 27.7335 134.749 25.7396Z" fill="#095195"/>
<path id="Vector_20" d="M118.014 11.3028C118.148 11.3028 118.272 11.3581 118.364 11.464C118.783 11.9475 119.364 12.2882 119.981 12.6474C121.427 13.4901 123.043 14.4341 122.292 17.3536C123.448 16.9806 124.696 17.1372 125.64 17.8371C126.658 18.5923 127.095 19.831 126.883 21.2447C129.609 20.7244 130.669 21.7881 131.88 23.0037C132.639 23.7635 133.496 24.6293 134.951 25.3338C135.108 25.4121 135.209 25.5732 135.209 25.7482C135.209 25.9232 135.108 26.0844 134.951 26.1627C133.496 26.8672 132.635 27.7283 131.88 28.4881C130.669 29.7038 129.605 30.7629 126.883 30.2472C127.1 31.6609 126.658 32.8996 125.64 33.6548C124.701 34.3547 123.448 34.5159 122.292 34.1383C123.043 37.0578 121.427 38.0018 119.981 38.8444C119.364 39.2036 118.779 39.5444 118.364 40.0279C118.259 40.1476 118.102 40.2075 117.941 40.1799C117.784 40.1522 117.651 40.0463 117.591 39.899C116.513 37.2143 114.331 36.0585 112.222 34.9349C110.274 33.8988 108.423 32.918 107.561 30.8596C106.548 31.6333 105.425 31.5504 104.633 31.1498C103.638 30.6524 103.044 29.6578 103.067 28.6125C101.534 28.4053 100.465 27.2632 100.465 25.7436C100.465 24.224 101.534 23.082 103.067 22.8748C103.044 21.8295 103.638 20.8348 104.633 20.3375C105.425 19.9369 106.548 19.854 107.561 20.6276C108.427 18.5692 110.274 17.5838 112.222 16.5523C114.331 15.4334 116.513 14.2729 117.591 11.5883C117.651 11.4409 117.784 11.3304 117.941 11.3074C117.964 11.3028 117.991 11.3028 118.014 11.3028ZM121.519 18.689C121.417 18.689 121.316 18.6568 121.229 18.5877C121.072 18.4634 121.017 18.2515 121.086 18.0627C122.256 15.0373 121.044 14.3328 119.511 13.4394C119.051 13.1724 118.581 12.8961 118.162 12.5507C116.886 15.1156 114.644 16.3083 112.645 17.3674C110.582 18.4634 108.8 19.412 108.192 21.5809C108.146 21.7466 108.013 21.8709 107.847 21.9078C107.681 21.9446 107.506 21.8894 107.396 21.7558C106.728 20.9776 105.844 20.7566 105.029 21.1618C104.389 21.4795 103.799 22.2578 104.011 23.1972C104.043 23.3353 104.011 23.478 103.924 23.5886C103.836 23.6991 103.703 23.7635 103.564 23.7635C102.275 23.7635 101.373 24.5786 101.373 25.7436C101.373 26.9086 102.275 27.7237 103.564 27.7237C103.703 27.7237 103.836 27.7882 103.924 27.8987C104.011 28.0092 104.043 28.152 104.011 28.2855C103.799 29.2295 104.389 30.0031 105.029 30.3255C105.844 30.7353 106.728 30.5096 107.396 29.7314C107.506 29.6025 107.681 29.5473 107.847 29.5795C108.013 29.6163 108.146 29.7406 108.192 29.9064C108.796 32.0753 110.578 33.0239 112.645 34.1199C114.644 35.179 116.886 36.3716 118.162 38.9365C118.581 38.5912 119.051 38.3149 119.511 38.0478C121.044 37.1545 122.256 36.4499 121.086 33.4245C121.012 33.2357 121.072 33.0239 121.229 32.8996C121.385 32.7752 121.606 32.7615 121.772 32.8766C122.836 33.5857 124.167 33.6041 125.083 32.918C125.962 32.2641 126.23 31.1175 125.82 29.7683C125.769 29.6071 125.815 29.4367 125.93 29.317C126.045 29.1973 126.216 29.1512 126.381 29.1927C129.149 29.9249 129.927 29.1374 131.221 27.8388C131.857 27.1988 132.626 26.4297 133.777 25.7482C132.626 25.0621 131.861 24.2931 131.221 23.6576C129.927 22.3637 129.149 21.5762 126.381 22.3038C126.22 22.3452 126.05 22.2992 125.93 22.1795C125.815 22.0597 125.774 21.8848 125.82 21.7282C126.23 20.379 125.962 19.2324 125.083 18.5785C124.162 17.897 122.831 17.9108 121.772 18.6199C121.698 18.666 121.611 18.689 121.519 18.689Z" fill="#8DD4DA"/>
</g>
<g id="Group_6">
<path id="Vector_21" d="M111.475 25.7391C111.475 28.3179 113.566 30.4038 116.14 30.4038C118.719 30.4038 122.992 27.5074 129.715 25.7391C122.992 23.9709 118.714 21.0744 116.14 21.0744C113.561 21.0744 111.475 23.165 111.475 25.7391Z" fill="#CCAD62"/>
<path id="Vector_22" d="M116.14 20.6144C117.527 20.6144 119.313 21.3696 121.574 22.3274C123.775 23.2576 126.515 24.418 129.835 25.2929C130.038 25.3481 130.181 25.5278 130.181 25.7396C130.181 25.9514 130.038 26.131 129.835 26.1863C126.515 27.0612 123.775 28.2216 121.574 29.1518C119.313 30.1096 117.527 30.8647 116.14 30.8647C113.313 30.8647 111.015 28.567 111.015 25.7396C111.015 22.9122 113.313 20.6144 116.14 20.6144ZM128.03 25.7396C125.35 24.9245 123.089 23.9713 121.215 23.1747C119.051 22.2583 117.338 21.5354 116.14 21.5354C113.82 21.5354 111.936 23.4234 111.936 25.7396C111.936 28.0558 113.824 29.9438 116.14 29.9438C117.338 29.9438 119.051 29.2208 121.215 28.3045C123.085 27.5124 125.346 26.5547 128.03 25.7396Z" fill="#F4EBCF"/>
</g>
<g id="Group_7">
<path id="Vector_23" d="M107 23.3817C105.698 23.3817 104.642 24.4374 104.642 25.7395C104.642 27.0416 105.698 28.0972 107 28.0972C108.302 28.0972 109.357 27.0416 109.357 25.7395C109.357 24.4374 108.302 23.3817 107 23.3817Z" fill="#B8A635"/>
<path id="Vector_24" d="M107 22.9207C108.556 22.9207 109.818 24.1871 109.818 25.739C109.818 27.2908 108.552 28.5571 107 28.5571C105.443 28.5571 104.182 27.2908 104.182 25.739C104.182 24.1871 105.443 22.9207 107 22.9207ZM107 27.6407C108.045 27.6407 108.897 26.7888 108.897 25.7435C108.897 24.6982 108.045 23.8463 107 23.8463C105.954 23.8463 105.103 24.6982 105.103 25.7435C105.103 26.7888 105.95 27.6407 107 27.6407Z" fill="#F4EBCF"/>
</g>
</g>
</g>
</svg>
