<svg width="134" height="110" viewBox="0 0 134 110" fill="none" xmlns="http://www.w3.org/2000/svg">
<g id="Frame 171">
<g id="Group 206" filter="url(#filter0_d_4585_3663)">
<g id="Group">
<g id="Group_2">
<g id="Group_3">
<path id="Vector" d="M71.0677 55.6491C71.1441 55.6241 71.217 55.5952 71.2869 55.5678C73.1929 54.8219 75.293 53.8239 76.0468 51.756L76.0413 51.7309C75.8525 51.7646 75.6776 51.7678 75.5189 51.7411C73.8227 54.2628 69.23 56.3849 66.5247 54.3967C65.7178 53.8048 65.3136 52.9474 65.7392 51.9421C66.5445 53.6917 68.9878 52.1314 67.4463 50.5316C66.0662 49.103 63.7399 50.8665 63.5233 52.5094C62.9232 57.0495 68.4048 56.6062 71.0677 55.6491Z" fill="#8DD4DA"/>
</g>
</g>
<g id="Group_4">
<path id="Vector_2" d="M88.0052 48.1478C88.5778 47.875 88.9528 47.3465 88.8324 46.4858C88.5537 44.4814 85.3693 45.0142 86.8292 47.2595C86.5816 47.4112 86.1887 47.4565 85.7063 47.2281C84.6938 46.7495 84.0188 45.2365 83.8748 44.1705L83.7905 44.1394C83.707 44.3914 83.6148 44.6334 83.514 44.8629L83.5458 44.8767C83.7257 46.4773 84.1969 47.2112 84.9907 47.824C85.6995 48.3745 87.1009 48.5821 88.0052 48.1478Z" fill="#CCAD62"/>
<path id="Vector_3" d="M87.7624 50.8468C88.6339 50.3308 88.6894 49.0587 87.9966 48.123L87.9923 48.118C87.0905 48.551 85.693 48.344 84.986 47.7974C84.1922 47.1862 83.7248 46.4521 83.5452 44.8583L83.5135 44.8446C83.3595 45.2044 83.1837 45.5391 82.991 45.8442L82.9999 45.8495C82.8473 48.6496 84.944 50.6515 86.328 51.0205C86.4559 51.0539 86.5776 51.0751 86.6909 51.079C86.8712 51.0866 87.0361 51.0791 87.1882 51.0517C87.4105 51.0114 87.6019 50.9431 87.7624 50.8468Z" fill="#8DD4DA"/>
<path id="Vector_4" d="M80.3009 42.5165C80.1735 43.3532 80.5703 45.1497 81.3477 45.5376C82.1626 45.2382 82.7505 43.4964 82.715 42.6506C83.0384 43.2689 83.3649 43.7475 83.7893 44.099C84.2339 44.4661 84.7773 44.6916 85.5285 44.7888C89.2539 45.2827 90.3445 40.1093 86.928 40.2449C85.6082 40.2969 84.9674 42.4528 86.8926 42.5598C85.8397 43.7525 83.4713 43.5943 82.7855 40.5474L82.7649 40.4981C82.6719 40.5339 82.5706 40.55 82.4658 40.5441L80.7757 40.4502C80.671 40.4444 80.5721 40.4172 80.4835 40.3713L80.4575 40.4205C79.4439 43.3729 77.0728 43.2653 76.1584 41.9656C78.0813 42.0725 77.6814 39.8612 76.3731 39.6607C72.9943 39.1498 73.5146 44.4128 77.2713 44.3323C78.0262 44.3188 78.5957 44.1527 79.0751 43.8394C79.5378 43.5349 79.9144 43.0953 80.3009 42.5165Z" fill="#095195"/>
<path id="Vector_5" d="M83.9102 53.9322C86.0601 55.7848 87.3209 53.7478 86.536 51.5469C86.472 51.3646 86.392 51.1813 86.2982 50.9973L86.3039 50.9762C84.9272 50.6088 82.8359 48.614 82.9881 45.824L82.9792 45.8188C82.6806 46.298 82.342 46.7082 81.9635 47.0447L81.97 47.0522C82.606 48.513 83.9426 51.6457 83.9078 53.9345L83.9101 53.9346L83.9102 53.9322Z" fill="#095195"/>
<path id="Vector_6" d="M83.1648 55.9546C83.6395 55.4637 83.8336 54.7426 83.8443 53.9111C83.8768 51.6219 82.5423 48.4889 81.9062 47.0278L81.8997 47.0203C81.7031 47.1953 81.496 47.3506 81.281 47.4841L81.2474 47.5061C81.0349 47.3393 80.8328 47.1492 80.6436 46.936L80.6241 46.954C79.8226 48.3565 78.1197 51.3825 77.9418 53.6708C77.8778 54.4635 77.9986 55.1687 78.3998 55.6869C78.8207 56.2253 79.7985 56.6278 80.7295 56.7893C81.6724 56.7321 82.6879 56.443 83.1648 55.9546Z" fill="#CCAD62"/>
<path id="Vector_7" d="M83.74 44.0935L83.7724 44.0498C83.3535 43.7036 83.0272 43.2285 82.7063 42.6126C82.7416 43.4518 82.1563 45.1798 81.3501 45.4769C80.5787 45.0919 80.1847 43.3094 80.3111 42.4792C79.9275 43.0559 79.5517 43.4894 79.0976 43.7871L79.1252 43.834C79.1308 43.8583 79.1342 43.88 79.14 43.9018C79.1954 44.1609 79.2628 44.411 79.3402 44.6498C79.4587 45.0247 79.5995 45.3747 79.7601 45.7017C80.0083 46.206 80.3039 46.6482 80.6378 47.0256C80.8277 47.2395 81.0304 47.4302 81.2437 47.5976L81.2774 47.5755C81.4932 47.4416 81.6986 47.2856 81.8981 47.1102C82.278 46.7725 82.6178 46.3609 82.9174 45.88C83.1101 45.575 83.2836 45.2402 83.4399 44.8805C83.5404 44.6517 83.6323 44.4104 83.7155 44.1591C83.7259 44.1381 83.7342 44.1147 83.74 44.0935Z" fill="#CCAD62"/>
<path id="Vector_8" d="M83.0093 40.4118C83.1518 40.2778 83.246 40.0905 83.2577 39.8745C83.2746 39.565 83.1148 39.2913 82.8683 39.1525C82.7757 39.0968 82.6656 39.0642 82.5517 39.0578L80.8645 38.964C80.7507 38.9577 80.6377 38.9778 80.5396 39.0229C80.2795 39.1336 80.0908 39.3879 80.0739 39.6974C80.0565 40.0165 80.2275 40.3004 80.4883 40.4329C80.5767 40.4787 80.6755 40.5059 80.78 40.5117L82.4672 40.6055C82.5718 40.6113 82.6729 40.5953 82.7658 40.5596C82.8537 40.5283 82.9381 40.4777 83.0093 40.4118Z" fill="#8DD4DA"/>
<path id="Vector_9" d="M82.8801 39.1661C85.2428 38.095 82.0551 35.9066 81.9495 34.6143C81.7018 35.8869 78.2979 37.7082 80.5298 39.0352L80.5462 39.0744C80.6459 39.0297 80.7558 39.0096 80.8689 39.0159L82.5451 39.1092C82.6606 39.1156 82.7677 39.1479 82.8596 39.2032L82.8801 39.1661Z" fill="#095195"/>
<path id="Vector_10" d="M80.5591 46.9745L80.5785 46.9565C80.2457 46.5829 79.9513 46.1398 79.704 45.6374L79.6898 45.6438C79.5376 48.4336 77.2352 50.1837 75.8246 50.396L75.8281 50.4176C75.7174 50.5855 75.6227 50.7542 75.5395 50.9259C74.5077 53.0399 75.5342 55.2971 77.8773 53.6899L77.8796 53.69C78.0552 51.4021 79.7577 48.3767 80.5591 46.9745Z" fill="#095195"/>
<path id="Vector_11" d="M74.393 50.1048C74.5196 50.2051 74.6728 50.2854 74.8548 50.3458C75.0233 50.4006 75.2136 50.4376 75.4282 50.4519C75.5413 50.4606 75.6645 50.4531 75.7953 50.4341C77.2108 50.2211 79.5214 48.4648 79.6741 45.665L79.6883 45.6587C79.5277 45.3316 79.387 44.9817 79.2684 44.6067L79.2307 44.6189C78.8788 46.1853 78.3323 46.8605 77.4793 47.3799C76.7554 47.8228 75.4428 47.8908 74.587 47.4389L74.5842 47.4483C73.799 48.2944 73.6378 49.5102 74.393 50.1048Z" fill="#8DD4DA"/>
<path id="Vector_12" d="M79.2338 44.6423L79.2717 44.63C79.1941 44.3906 79.1288 44.1398 79.0709 43.8799L78.9838 43.9015C78.7247 44.945 77.8893 46.374 76.8309 46.7373C76.3265 46.9107 75.9386 46.8219 75.7114 46.6437C77.4067 44.5717 74.3016 43.6911 73.8043 45.6523C73.5759 46.5608 73.9597 47.1484 74.5742 47.4705C75.4326 47.9213 76.7491 47.8531 77.4749 47.4113C78.3328 46.8905 78.8786 46.2131 79.2338 44.6423Z" fill="#CCAD62"/>
</g>
</g>
<path id="Vector_13" d="M58.9266 55.7748L58.8884 55.7835C57.4082 57.2706 54.4614 59.0575 52.4869 59.3573L52.4828 59.3547C52.3746 59.607 52.154 59.8659 51.8846 60.0928L51.9022 60.1102C52.4089 60.121 52.7553 60.192 52.9782 60.3077L53.0022 60.2711C54.5504 59.1773 57.4831 57.5486 59.3599 56.2653L59.363 56.2569C59.1102 56.1531 58.9726 55.9816 58.9266 55.7748Z" fill="#095195"/>
<path id="Vector_14" d="M58.3138 56.123C56.383 57.3286 56.2269 58.9943 56.2702 60.369L56.2561 60.3853C56.3728 60.4947 56.4901 60.6411 56.6016 60.8294L56.6279 60.8319C56.6504 60.6581 56.6904 60.5157 56.7432 60.3986L56.7274 60.391C56.6973 58.8039 57.5922 56.981 59.1837 56.1243C58.9862 56.1057 58.7959 56.0669 58.611 56.0103C58.5135 56.0499 58.4136 56.0854 58.3138 56.123Z" fill="#095195"/>
<path id="Vector_15" d="M55.1559 56.3601C55.0811 56.3642 55.0058 56.3654 54.9267 56.3642C53.0487 58.7037 46.5165 56.3864 48.3761 54.6247C47.5411 54.1834 46.5504 54.5933 46.1655 55.3637C46.117 55.4565 46.0789 55.5533 46.0529 55.6553C46.0397 55.7087 46.0265 55.7621 46.0181 55.816C45.5597 55.5359 44.613 54.9904 43.7561 54.7463C43.2878 54.6119 42.8464 54.5692 42.524 54.7125C42.3012 54.8082 42.1379 54.993 42.0653 55.2945C42.0314 55.4172 42.016 55.5593 42.0175 55.7276C41.9067 55.6831 41.7765 55.6367 41.6362 55.5941C40.6944 55.3091 39.2189 55.1597 38.6466 55.9658C38.5836 56.0572 38.5323 56.1586 38.4934 56.2729C36.9892 55.6729 33.2832 56.7208 34.7809 58.8997C34.7946 58.9187 34.8287 58.9583 34.8745 59.0079C34.9558 58.977 35.0404 58.9533 35.1242 58.9266C35.0944 58.4779 35.3176 57.8368 36.7063 57.5503C38.5373 57.1707 40.3631 57.2588 42.2998 57.757C42.338 57.7657 45.7995 58.689 47.903 58.9196C52.8052 59.458 56.6632 57.9994 60.6263 55.4361C60.5134 55.2487 60.4022 55.0625 60.3044 54.8796C58.9579 56.1117 56.9578 56.307 55.1559 56.3601Z" fill="#8DD4DA"/>
<path id="Vector_16" d="M51.8992 60.113L51.8815 60.0956C52.1531 59.8689 52.3716 59.6097 52.4798 59.3574C52.6655 58.9281 52.5212 58.5128 51.7307 58.2894C51.3895 58.1927 47.6514 58.4842 48.794 56.7937C46.838 57.3475 47.6263 59.8649 49.5063 59.738C48.4024 60.0998 47.2733 61.5423 46.7806 62.5774C47.7221 63.103 49.6749 62.9144 50.3796 62.6156C49.4791 63.7126 49.5312 66.0852 51.9539 65.5464C49.3027 64.7757 54.6884 61.2018 52.9747 60.3148C52.7522 60.1948 52.4059 60.1238 51.8992 60.113Z" fill="#095195"/>
<path id="Vector_17" d="M57.3727 61.7331C57.4962 61.9685 57.4898 62.2763 57.3319 62.5382C57.3181 62.5588 57.3064 62.5793 57.2905 62.6L57.2928 62.602C57.4842 62.7803 57.6649 62.8982 57.8332 62.9669C59.071 63.4805 59.6403 61.4322 58.0676 61.5725L58.0601 61.5599C57.9091 61.6426 57.709 61.7113 57.4597 61.7618L57.3727 61.7331Z" fill="#095195"/>
<path id="Vector_18" d="M57.2915 62.5981C57.0514 62.9313 56.6146 63.043 56.2889 62.846L56.2498 62.9099C56.19 63.0493 56.16 63.18 56.151 63.2984C56.0577 64.4997 58.2144 64.6318 57.8197 63.0053L57.8366 62.967C57.6659 62.8963 57.4852 62.7784 57.2961 62.6022L57.2915 62.5981Z" fill="#095195"/>
<path id="Vector_19" d="M56.5393 61.3572L56.5522 61.4152C56.7218 61.3791 56.9003 61.4056 57.053 61.4994C57.1601 61.5637 57.2431 61.6581 57.3007 61.763L57.3898 61.7894C57.6391 61.739 57.8369 61.6704 57.9902 61.5875C59.3065 60.8769 57.2441 59.1903 56.6739 60.4299C56.6212 60.547 56.5812 60.6893 56.5587 60.8632C56.5382 61.0041 56.5326 61.1702 56.5393 61.3572Z" fill="#095195"/>
<path id="Vector_20" d="M56.2892 62.8464C56.0021 62.6728 55.8895 62.3146 55.9899 61.9804L55.9252 61.9589C55.7543 61.9165 55.6028 61.9012 55.466 61.9087C54.064 61.967 54.44 64.31 56.1027 63.2891L56.1512 63.2966C56.1602 63.1782 56.1901 63.0475 56.25 62.9081L56.2892 62.8464Z" fill="#095195"/>
<path id="Vector_21" d="M55.9884 61.9793C56.0095 61.908 56.0396 61.8405 56.0785 61.7745C56.2074 61.5648 56.409 61.4262 56.6219 61.3849L56.6091 61.3269C56.6023 61.1399 56.6079 60.9738 56.6284 60.8329L56.6021 60.8304C56.4884 60.6422 56.3733 60.4956 56.2566 60.3862C55.2452 59.4379 54.1856 61.2137 55.4665 61.9052L55.4666 61.9074C55.6034 61.8999 55.7549 61.9152 55.9258 61.9576L55.9884 61.9793Z" fill="#095195"/>
<path id="Vector_22" d="M47.2058 58.2474L47.1985 58.2482C46.9206 58.3076 46.6432 58.3628 46.3625 58.4162C46.0943 58.4673 45.8237 58.5165 45.5539 58.5635C45.2811 58.6119 45.0092 58.6591 44.7353 58.7066C43.4722 58.9264 42.0967 59.3705 42.0565 60.8649C43.7232 60.2663 43.5079 62.849 41.8218 62.17C40.6664 61.7051 40.7394 60.1411 41.8409 59.2288C42.3718 58.7884 43.1286 58.497 43.7586 58.261C41.9511 58.4059 39.4595 59.9165 38.6214 61.4096C38.1885 61.5168 37.7757 61.7365 37.4304 62.0692C37.3999 62.0998 37.3683 62.1294 37.34 62.1607L37.3387 62.1588C37.7079 61.3679 38.3956 60.3819 39.0243 59.8408C40.3503 58.6978 42.5153 58.0336 44.2087 57.7322C45.7327 57.461 46.6244 57.2819 48.2215 57.2072L48.2255 57.2152C47.7836 57.3886 47.1806 57.7723 47.2058 58.2474Z" fill="#8DD4DA"/>
<path id="Vector_23" d="M44.1599 61.9697L44.1376 61.9983C44.049 61.976 43.9707 61.982 43.9 62.0104L43.8926 61.9902C43.4528 60.6353 44.3896 58.8782 45.5532 58.5614C45.824 58.5142 46.0936 58.4651 46.3619 58.4141C43.6212 59.5033 44.0985 61.6425 44.1599 61.9697Z" fill="#095195"/>
<path id="Vector_24" d="M44.1379 61.9994C44.2546 62.0283 44.3873 62.1102 44.5391 62.2544C45.0932 62.7861 44.5313 64.3136 45.6026 64.1821C45.3974 64.5866 44.8294 64.7109 44.59 64.2907C44.6354 64.6669 44.3903 65.2333 44.1338 65.5294C43.7248 65.1995 43.595 64.913 43.6121 64.4303C43.2317 65.1434 42.6177 64.9158 42.3959 64.3622C42.8701 64.7022 43.1356 64.0979 43.2312 63.6818C43.3383 63.2149 43.4694 62.1889 43.9013 62.0114C43.9698 61.9821 44.0492 61.976 44.1379 61.9994Z" fill="#CCAD62"/>
<path id="Vector_25" d="M38.6204 61.4104C39.5068 61.1908 40.4806 61.4368 41.1591 62.1418C42.0784 63.0984 42.1346 64.569 41.344 65.5869C41.2659 65.6865 41.1811 65.7817 41.0873 65.8714C40.9926 65.9623 40.8938 66.0441 40.792 66.1179C39.7439 66.8668 38.2768 66.7543 37.3577 65.7997C36.3771 64.7809 36.3787 63.178 37.34 62.1614C37.3683 62.13 37.3988 62.0995 37.4305 62.0699C37.7747 61.7373 38.1865 61.5177 38.6204 61.4104ZM38.147 64.4052C36.7862 64.9394 38.195 66.4029 38.7796 65.0634C38.195 66.4029 40.2248 66.4421 39.6917 65.0811C40.2248 66.4421 41.6894 65.0332 40.3489 64.4486C41.6883 65.0333 41.7275 63.0024 40.3665 63.5355C41.7275 63.0024 40.3197 61.5388 39.7339 62.8773C40.3197 61.5388 38.2888 61.4996 38.8219 62.8606C38.2898 61.4995 36.8241 62.9075 38.1647 63.4931C36.8253 62.9085 36.7872 64.9393 38.147 64.4052Z" fill="#095195"/>
<path id="Vector_26" d="M38.1669 63.4938C36.8273 62.9081 38.292 61.5003 38.824 62.8614C38.292 61.5003 40.3218 61.5395 39.7361 62.878C40.3218 61.5395 41.7296 63.0031 40.3686 63.5362C41.7296 63.0031 41.6905 65.034 40.351 64.4494C41.6905 65.034 40.227 66.4428 39.6939 65.0818C40.227 66.4428 38.1961 66.4037 38.7818 65.0641C38.1971 66.4036 36.7883 64.9401 38.1492 64.4059C36.7892 64.9389 36.8273 62.9081 38.1669 63.4938ZM38.8309 64.3834C39.0587 64.6207 39.4362 64.6277 39.6733 64.3989C39.9106 64.1711 39.9166 63.7937 39.6889 63.5575C39.4611 63.3202 39.0847 63.3131 38.8464 63.541C38.6092 63.7698 38.602 64.1462 38.8309 64.3834Z" fill="#CCAD62"/>
<path id="Vector_27" d="M48.5925 74.3462C48.7061 74.0375 49.0485 73.8785 49.3572 73.9921C49.6659 74.1057 49.8243 74.4472 49.7117 74.7554C49.5981 75.0641 49.2557 75.2231 48.9475 75.1104C48.6394 74.9977 48.4795 74.6558 48.5925 74.3462Z" fill="white"/>
<path id="Vector_28" d="M62.9163 53.949C60.7551 55.1351 58.1705 55.5564 55.7609 54.9914C55.5968 54.953 55.4277 54.904 55.2583 54.8427C53.4399 54.19 51.4284 52.3199 50.5294 50.2443C49.9018 48.7901 49.816 47.2374 50.7187 45.9334C51.9109 44.2089 55.9416 44.1724 55.7575 46.8342C55.599 49.0984 52.5465 48.3179 53.4292 46.3699C52.1948 46.3436 51.5207 47.1934 51.4412 48.2909C51.2311 51.1704 54.2726 53.5587 56.8041 54.2448C59.0147 54.8432 60.9736 54.1121 62.8509 53.0587C62.9433 53.0084 63.0356 52.9519 63.1264 52.9001C62.9898 53.2347 62.9215 53.592 62.9163 53.949Z" fill="#8DD4DA"/>
<path id="Vector_29" d="M59.6186 56.8478C60.1638 55.7391 61.0958 53.2367 62.2865 53.0466C62.4807 53.0153 62.6837 53.0468 62.8915 53.1559C63.1672 53.298 63.4538 53.582 63.7486 54.0365C64.8284 55.6986 62.5163 59.2045 65.2869 59.507C64.5333 60.4032 63.0335 60.3799 62.6767 59.1826C62.6298 59.6217 62.4039 60.1206 62.1021 60.5913C61.7355 61.1665 61.2494 61.7001 60.7986 62.025C60.2119 61.2718 59.9659 60.6525 59.9803 59.9358C59.988 59.6326 60.0359 59.3127 60.1357 58.9566C58.7582 60.5219 57.3486 59.5903 57.1178 58.0661C58.1104 59.1988 59.1309 57.8365 59.6186 56.8478Z" fill="#CCAD62"/>
</g>
<g id="Group_5">
<path id="Vector_30" d="M91.8871 55.8766C91.8012 55.8477 91.7192 55.8151 91.6406 55.784C89.4968 54.9384 87.1329 53.8292 86.267 51.7091L86.2729 51.6841C86.4849 51.7274 86.6809 51.7392 86.8585 51.7202C88.7853 54.344 93.9542 56.7087 96.966 54.8402C97.8643 54.2841 98.3086 53.4405 97.8213 52.4069C96.9367 54.1292 94.1823 52.4367 95.8937 50.9018C97.4259 49.5312 100.051 51.4225 100.311 53.088C101.03 57.6904 94.8814 56.9725 91.8871 55.8766Z" fill="#8DD4DA"/>
</g>
<path id="Vector_31" d="M105.497 56.6034L105.54 56.6141C107.214 58.1851 110.535 60.1308 112.751 60.5306L112.755 60.5281C112.879 60.7875 113.129 61.0592 113.433 61.3012L113.414 61.3178C112.846 61.3036 112.458 61.358 112.21 61.4635L112.182 61.4254C110.436 60.2471 107.132 58.4614 105.016 57.076L105.012 57.0674C105.295 56.9753 105.447 56.8094 105.497 56.6034Z" fill="#095195"/>
<path id="Vector_32" d="M106.187 56.9853C108.363 58.2952 108.555 59.9806 108.521 61.3631L108.537 61.3801C108.407 61.4846 108.277 61.6262 108.154 61.8103L108.124 61.8115C108.097 61.6353 108.051 61.49 107.991 61.3694L108.008 61.3625C108.026 59.7655 107.004 57.8852 105.212 56.9436C105.433 56.9346 105.646 56.905 105.853 56.8571C105.962 56.9019 106.075 56.9425 106.187 56.9853Z" fill="#095195"/>
<path id="Vector_33" d="M109.729 57.379C109.812 57.3869 109.897 57.3918 109.985 57.3945C112.114 59.8438 119.412 57.8334 117.31 55.9669C118.241 55.5638 119.355 56.0257 119.795 56.8206C119.85 56.9166 119.894 57.0159 119.924 57.1199C119.939 57.1744 119.955 57.2288 119.964 57.2835C120.475 57.0241 121.531 56.5216 122.489 56.3182C123.012 56.206 123.506 56.1848 123.869 56.3451C124.12 56.4525 124.305 56.6467 124.389 56.954C124.429 57.0792 124.447 57.2231 124.447 57.3926C124.571 57.3533 124.716 57.313 124.873 57.277C125.926 57.0366 127.578 56.9592 128.228 57.7995C128.299 57.8946 128.358 57.9992 128.403 58.1163C130.082 57.5865 134.247 58.8254 132.59 60.9458C132.575 60.9643 132.537 61.0025 132.486 61.0502C132.395 61.0151 132.3 60.987 132.206 60.9559C132.235 60.5055 131.978 59.8487 130.419 59.4914C128.363 59.0184 126.317 59.0168 124.152 59.4226C124.109 59.4295 120.239 60.188 117.883 60.3161C112.395 60.6157 108.056 58.9555 103.588 56.1775C103.713 55.9944 103.835 55.8123 103.943 55.6329C105.465 56.9405 107.709 57.2363 109.729 57.379Z" fill="#8DD4DA"/>
<path id="Vector_34" d="M113.417 61.3199L113.436 61.3032C113.13 61.0614 112.882 60.7896 112.758 60.5301C112.546 60.0885 112.703 59.6774 113.587 59.4915C113.969 59.4111 118.161 59.8898 116.863 58.1305C119.061 58.7851 118.203 61.2816 116.095 61.0607C117.336 61.4797 118.616 62.9886 119.179 64.0555C118.129 64.5382 115.938 64.2516 115.145 63.9157C116.166 65.0652 116.132 67.4523 113.411 66.7896C116.374 66.1447 110.302 62.2784 112.213 61.4699C112.462 61.36 112.849 61.3057 113.417 61.3199Z" fill="#095195"/>
<path id="Vector_35" d="M107.299 62.6816C107.163 62.9125 107.173 63.2229 107.353 63.4945C107.368 63.516 107.382 63.5372 107.4 63.5588L107.397 63.5608C107.184 63.7308 106.983 63.8406 106.795 63.9015C105.413 64.3575 104.754 62.2663 106.518 62.4854L106.526 62.4731C106.697 62.5639 106.921 62.643 107.201 62.7062L107.299 62.6816Z" fill="#095195"/>
<path id="Vector_36" d="M107.399 63.5574C107.671 63.9049 108.162 64.0391 108.525 63.8568L108.569 63.923C108.638 64.0664 108.673 64.1995 108.684 64.3192C108.801 65.5337 106.385 65.56 106.811 63.9413L106.792 63.902C106.982 63.8392 107.183 63.7293 107.394 63.5612L107.399 63.5574Z" fill="#095195"/>
<path id="Vector_37" d="M108.229 62.3439L108.216 62.4017C108.025 62.357 107.825 62.3749 107.655 62.4617C107.536 62.5212 107.444 62.6122 107.38 62.715L107.281 62.7371C107.001 62.674 106.778 62.5951 106.606 62.5041C105.123 61.7232 107.417 60.1265 108.069 61.4033C108.129 61.5238 108.176 61.6692 108.203 61.8454C108.227 61.9884 108.235 62.1559 108.229 62.3439Z" fill="#095195"/>
<path id="Vector_38" d="M108.525 63.8568C108.845 63.6962 108.968 63.341 108.852 62.9994L108.924 62.9809C109.115 62.9467 109.285 62.9388 109.438 62.9531C111.01 63.0813 110.612 65.4224 108.739 64.312L108.684 64.3171C108.673 64.1974 108.638 64.0642 108.57 63.9208L108.525 63.8568Z" fill="#095195"/>
<path id="Vector_39" d="M108.853 62.9981C108.828 62.9253 108.794 62.8558 108.75 62.7874C108.603 62.5697 108.376 62.4202 108.137 62.368L108.15 62.3103C108.156 62.1223 108.148 61.9547 108.124 61.8117L108.153 61.8105C108.279 61.6267 108.406 61.4847 108.536 61.3803C109.66 60.4753 110.865 62.3163 109.437 62.9494L109.437 62.9515C109.283 62.9372 109.114 62.9452 108.923 62.9793L108.853 62.9981Z" fill="#095195"/>
<path id="Vector_40" d="M118.659 59.6735L118.667 59.6747C118.979 59.7483 119.29 59.8176 119.605 59.8853C119.907 59.95 120.21 60.013 120.513 60.0737C120.819 60.1359 121.125 60.197 121.432 60.2583C122.85 60.5423 124.396 61.0577 124.457 62.5648C122.582 61.8793 122.85 64.4914 124.733 63.8909C126.023 63.4799 125.925 61.901 124.681 60.9276C124.082 60.4577 123.231 60.1268 122.522 59.8579C124.55 60.0934 127.357 61.7382 128.312 63.2836C128.798 63.4129 129.263 63.6547 129.654 64.0069C129.688 64.0392 129.724 64.0705 129.756 64.1035L129.757 64.1016C129.335 63.2868 128.555 62.2596 127.844 61.6835C126.347 60.4666 123.913 59.6905 122.012 59.303C120.302 58.9544 119.3 58.7298 117.51 58.5756L117.505 58.5834C118.002 58.7799 118.682 59.1962 118.659 59.6735Z" fill="#8DD4DA"/>
<path id="Vector_41" d="M122.11 63.5736L122.135 63.6036C122.234 63.5855 122.322 63.5954 122.402 63.6275L122.41 63.6075C122.889 62.2646 121.821 60.4485 120.514 60.0718C120.21 60.0109 119.907 59.9481 119.606 59.8834C122.689 61.1161 122.176 63.2471 122.11 63.5736Z" fill="#095195"/>
<path id="Vector_42" d="M122.135 63.6041C122.004 63.6274 121.856 63.7034 121.688 63.8411C121.072 64.3491 121.717 65.9155 120.515 65.73C120.75 66.1475 121.387 66.3009 121.651 65.8895C121.604 66.2662 121.885 66.8488 122.175 67.1597C122.63 66.8476 122.773 66.5656 122.749 66.0786C123.182 66.8156 123.868 66.6168 124.111 66.0702C123.583 66.3892 123.28 65.7674 123.168 65.3435C123.043 64.868 122.886 63.8281 122.4 63.6279C122.323 63.5951 122.234 63.585 122.135 63.6041Z" fill="#CCAD62"/>
<path id="Vector_43" d="M128.313 63.285C127.317 63.0199 126.228 63.2194 125.475 63.8959C124.454 64.8139 124.406 66.2923 125.303 67.3566C125.391 67.4609 125.487 67.5609 125.593 67.6559C125.7 67.7521 125.812 67.8395 125.927 67.9188C127.109 68.7249 128.752 68.6843 129.773 67.7683C130.861 66.7908 130.843 65.1763 129.755 64.1048C129.723 64.0718 129.689 64.0395 129.653 64.0081C129.264 63.6561 128.8 63.4145 128.313 63.285ZM128.874 66.3248C130.404 66.9302 128.84 68.3344 128.171 66.9564C128.84 68.3344 126.566 68.2734 127.149 66.929C126.566 68.2734 124.91 66.7818 126.406 66.2595C124.911 66.782 124.846 64.7345 126.377 65.3389C124.846 64.7345 126.409 63.3301 127.08 64.7073C126.409 63.3301 128.685 63.3913 128.102 64.7357C128.684 63.3911 130.341 64.8818 128.844 65.4052C130.34 64.8827 130.403 66.93 128.874 66.3248Z" fill="#095195"/>
<path id="Vector_44" d="M128.842 65.407C130.337 64.8835 128.681 63.393 128.099 64.7375C128.681 63.393 126.407 63.3319 127.077 64.7091C126.407 63.3319 124.844 64.7364 126.375 65.3407C124.844 64.7364 124.908 66.7838 126.404 66.2613C124.908 66.7838 126.563 68.2752 127.147 66.9308C126.563 68.2752 128.839 68.3364 128.169 66.9582C128.838 68.3362 130.402 66.932 128.871 66.3266C130.401 66.9308 130.337 64.8835 128.842 65.407ZM128.107 66.2701C127.854 66.4978 127.431 66.4862 127.163 66.244C126.895 66.0028 126.884 65.6224 127.137 65.3958C127.39 65.1681 127.811 65.1795 128.081 65.4209C128.349 65.6631 128.361 66.0426 128.107 66.2701Z" fill="#CCAD62"/>
<path id="Vector_45" d="M101.007 54.5663C103.441 55.8679 106.342 56.4203 109.037 55.9705C109.22 55.9399 109.409 55.8989 109.599 55.8456C111.63 55.2783 113.865 53.4944 114.852 51.4484C115.54 50.0148 115.621 48.4552 114.596 47.0971C113.242 45.3011 108.724 45.0648 108.957 47.7548C109.158 50.0431 112.571 49.4082 111.562 47.4025C112.945 47.4371 113.71 48.3265 113.81 49.4358C114.075 52.3463 110.69 54.6012 107.86 55.1669C105.388 55.6601 103.186 54.8267 101.071 53.6728C100.967 53.6176 100.863 53.5561 100.76 53.4994C100.917 53.8432 100.997 54.2065 101.007 54.5663Z" fill="#8DD4DA"/>
<path id="Vector_46" d="M104.732 57.6501C104.11 56.5064 103.04 53.9399 101.704 53.6895C101.486 53.6484 101.258 53.6701 101.027 53.7696C100.719 53.8991 100.401 54.171 100.075 54.6141C98.8817 56.2347 101.509 59.8803 98.4066 60.0477C99.2604 60.9877 100.941 61.0385 101.329 59.8503C101.386 60.2949 101.644 60.8086 101.987 61.2975C102.404 61.8951 102.954 62.4566 103.463 62.8061C104.113 62.0765 104.382 61.465 104.359 60.7425C104.347 60.4367 104.29 60.1121 104.174 59.7485C105.734 61.3932 107.305 60.5247 107.548 59.001C106.447 60.0927 105.289 58.6701 104.732 57.6501Z" fill="#CCAD62"/>
</g>
<defs>
<filter id="filter0_d_4585_3663" x="0.431152" y="0.614258" width="122.556" height="108.532" filterUnits="userSpaceOnUse" color-interpolation-filters="sRGB">
<feFlood flood-opacity="0" result="BackgroundImageFix"/>
<feColorMatrix in="SourceAlpha" type="matrix" values="0 0 0 0 0 0 0 0 0 0 0 0 0 0 0 0 0 0 127 0" result="hardAlpha"/>
<feOffset/>
<feGaussianBlur stdDeviation="17"/>
<feComposite in2="hardAlpha" operator="out"/>
<feColorMatrix type="matrix" values="0 0 0 0 0 0 0 0 0 0 0 0 0 0 0 0 0 0 0.15 0"/>
<feBlend mode="normal" in2="BackgroundImageFix" result="effect1_dropShadow_4585_3663"/>
<feBlend mode="normal" in="SourceGraphic" in2="effect1_dropShadow_4585_3663" result="shape"/>
</filter>
</defs>
</svg>
